STARTFONT 2.1
COMMENT
COMMENT Converted from OpenType font "UbuntuMono-Regular.ttf" by "otf2bdf 3.0".
COMMENT
FONT -FreeType-Ubuntu Mono-Medium-R-Normal--28-200-100-100-P-119-ISO10646-1
SIZE 20 100 100
FONTBOUNDINGBOX 27 28 -9 -5
STARTPROPERTIES 19
FOUNDRY "FreeType"
FAMILY_NAME "Ubuntu Mono"
WEIGHT_NAME "Medium"
SLANT "R"
SETWIDTH_NAME "Normal"
ADD_STYLE_NAME ""
PIXEL_SIZE 28
POINT_SIZE 200
RESOLUTION_X 100
RESOLUTION_Y 100
SPACING "P"
AVERAGE_WIDTH 119
CHARSET_REGISTRY "ISO10646"
CHARSET_ENCODING "1"
FONT_ASCENT 23
FONT_DESCENT 4
COPYRIGHT "Copyright 2011 Canonical Ltd.  Licensed under the Ubuntu Font Licence 1.0"
_OTF_FONTFILE "UbuntuMono-Regular.ttf"
_OTF_PSNAME "UbuntuMono-Regular"
ENDPROPERTIES
CHARS 1224
STARTCHAR 0000
ENCODING 0
SWIDTH 468 0
DWIDTH 13 0
BBX 0 0 0 0
BITMAP
ENDCHAR
STARTCHAR 0008
ENCODING 8
SWIDTH 468 0
DWIDTH 13 0
BBX 0 0 0 0
BITMAP
ENDCHAR
STARTCHAR 0009
ENCODING 9
SWIDTH 468 0
DWIDTH 13 0
BBX 0 0 0 0
BITMAP
ENDCHAR
STARTCHAR 000D
ENCODING 13
SWIDTH 468 0
DWIDTH 13 0
BBX 0 0 0 0
BITMAP
ENDCHAR
STARTCHAR 001D
ENCODING 29
SWIDTH 468 0
DWIDTH 13 0
BBX 0 0 0 0
BITMAP
ENDCHAR
STARTCHAR 0020
ENCODING 32
SWIDTH 468 0
DWIDTH 13 0
BBX 0 0 0 0
BITMAP
ENDCHAR
STARTCHAR 0021
ENCODING 33
SWIDTH 468 0
DWIDTH 13 0
BBX 4 17 5 0
BITMAP
60
60
60
60
60
60
60
60
60
60
60
00
00
00
F0
F0
E0
ENDCHAR
STARTCHAR 0022
ENCODING 34
SWIDTH 468 0
DWIDTH 13 0
BBX 6 7 4 12
BITMAP
CC
CC
CC
CC
CC
8C
84
ENDCHAR
STARTCHAR 0023
ENCODING 35
SWIDTH 468 0
DWIDTH 13 0
BBX 12 17 1 0
BITMAP
0C60
0C60
1C60
18E0
FFF0
FFF0
18C0
38C0
31C0
3180
3180
FFF0
3180
6380
6300
6300
6300
ENDCHAR
STARTCHAR 0024
ENCODING 36
SWIDTH 468 0
DWIDTH 13 0
BBX 10 22 2 -3
BITMAP
0C00
0C00
0C00
7F80
FB80
E000
C000
C000
E000
7C00
3F00
0780
01C0
00C0
00C0
00C0
E3C0
FF80
3C00
0C00
0C00
0C00
ENDCHAR
STARTCHAR 0025
ENCODING 37
SWIDTH 468 0
DWIDTH 13 0
BBX 13 18 0 0
BITMAP
1000
7C18
6C30
4430
C660
46C0
44C0
6D80
3B00
0300
06F0
06D8
0D88
1988
1988
3188
30D8
60F0
ENDCHAR
STARTCHAR 0026
ENCODING 38
SWIDTH 468 0
DWIDTH 13 0
BBX 12 18 1 0
BITMAP
0C00
3F00
3380
6180
6180
6180
7300
3700
1C00
3C60
6E60
E760
C3C0
C1C0
C0C0
E1E0
7F60
3E70
ENDCHAR
STARTCHAR 0027
ENCODING 39
SWIDTH 468 0
DWIDTH 13 0
BBX 2 8 6 11
BITMAP
C0
C0
C0
C0
C0
C0
C0
C0
ENDCHAR
STARTCHAR 0028
ENCODING 40
SWIDTH 468 0
DWIDTH 13 0
BBX 8 24 3 -5
BITMAP
06
0F
1C
18
38
70
60
60
E0
E0
C0
C0
C0
C0
E0
60
60
70
30
38
1C
0E
06
02
ENDCHAR
STARTCHAR 0029
ENCODING 41
SWIDTH 468 0
DWIDTH 13 0
BBX 8 24 3 -5
BITMAP
60
F0
38
38
1C
0C
0E
06
06
07
07
03
07
07
06
06
06
0C
1C
18
38
70
E0
40
ENDCHAR
STARTCHAR 002A
ENCODING 42
SWIDTH 468 0
DWIDTH 13 0
BBX 10 10 2 7
BITMAP
0C00
0C00
8C40
EDC0
FFC0
0C00
1E00
3300
7380
2100
ENDCHAR
STARTCHAR 002B
ENCODING 43
SWIDTH 468 0
DWIDTH 13 0
BBX 12 12 1 1
BITMAP
0600
0600
0600
0600
0600
FFF0
FFF0
0600
0600
0600
0600
0600
ENDCHAR
STARTCHAR 002C
ENCODING 44
SWIDTH 468 0
DWIDTH 13 0
BBX 6 8 4 -4
BITMAP
18
3C
3C
3C
18
38
F0
C0
ENDCHAR
STARTCHAR 002D
ENCODING 45
SWIDTH 468 0
DWIDTH 13 0
BBX 6 2 4 6
BITMAP
FC
FC
ENDCHAR
STARTCHAR 002E
ENCODING 46
SWIDTH 468 0
DWIDTH 13 0
BBX 4 4 5 0
BITMAP
60
F0
F0
F0
ENDCHAR
STARTCHAR 002F
ENCODING 47
SWIDTH 468 0
DWIDTH 13 0
BBX 10 24 2 -5
BITMAP
01C0
0180
0180
0380
0300
0300
0700
0600
0600
0E00
0C00
0C00
1C00
1C00
1800
1800
3800
3000
3000
7000
6000
6000
E000
C000
ENDCHAR
STARTCHAR 0030
ENCODING 48
SWIDTH 468 0
DWIDTH 13 0
BBX 12 18 1 0
BITMAP
0600
1F80
3FC0
70E0
6060
6060
E060
E670
EE70
EF70
E670
E070
E060
6060
60E0
70C0
3FC0
1F80
ENDCHAR
STARTCHAR 0031
ENCODING 49
SWIDTH 468 0
DWIDTH 13 0
BBX 10 17 2 0
BITMAP
0600
1E00
3E00
F600
4600
0600
0600
0600
0600
0600
0600
0600
0600
0600
0600
7FC0
7FC0
ENDCHAR
STARTCHAR 0032
ENCODING 50
SWIDTH 468 0
DWIDTH 13 0
BBX 10 18 2 0
BITMAP
1800
7F00
F780
8180
01C0
01C0
0180
0180
0300
0700
0E00
1C00
3800
7000
6000
E000
FFC0
FFC0
ENDCHAR
STARTCHAR 0033
ENCODING 51
SWIDTH 468 0
DWIDTH 13 0
BBX 10 18 2 0
BITMAP
0C00
FF00
F780
0180
01C0
01C0
0180
0380
1E00
1F80
01C0
00C0
00C0
00C0
00C0
01C0
FF80
FF00
ENDCHAR
STARTCHAR 0034
ENCODING 52
SWIDTH 468 0
DWIDTH 13 0
BBX 12 17 1 0
BITMAP
01C0
03C0
07C0
06C0
0CC0
18C0
38C0
30C0
60C0
60C0
C0C0
FFF0
FFF0
00C0
00C0
00C0
00C0
ENDCHAR
STARTCHAR 0035
ENCODING 53
SWIDTH 468 0
DWIDTH 13 0
BBX 10 17 2 0
BITMAP
7FC0
7FC0
6000
6000
6000
6000
7000
7F00
0F80
01C0
00C0
00C0
00C0
00C0
01C0
FF80
FF00
ENDCHAR
STARTCHAR 0036
ENCODING 54
SWIDTH 468 0
DWIDTH 13 0
BBX 11 17 1 0
BITMAP
03C0
0FC0
1C00
3800
3000
7000
6200
7FC0
71E0
E060
E060
6060
6060
6060
70E0
3FC0
1F80
ENDCHAR
STARTCHAR 0037
ENCODING 55
SWIDTH 468 0
DWIDTH 13 0
BBX 11 17 2 0
BITMAP
FFE0
FFE0
00C0
0180
0380
0300
0700
0600
0E00
0C00
0C00
1C00
1800
1800
1800
3800
3800
ENDCHAR
STARTCHAR 0038
ENCODING 56
SWIDTH 468 0
DWIDTH 13 0
BBX 11 18 1 0
BITMAP
0400
1F80
39C0
60E0
6060
6060
6060
70C0
3F80
1F80
31C0
60E0
6060
E060
E060
6060
7FE0
3FC0
ENDCHAR
STARTCHAR 0039
ENCODING 57
SWIDTH 468 0
DWIDTH 13 0
BBX 11 18 1 0
BITMAP
0400
3F80
7BC0
60E0
6060
E060
E060
6060
7060
7FE0
3FE0
0060
00E0
00C0
01C0
0780
7F00
7800
ENDCHAR
STARTCHAR 003A
ENCODING 58
SWIDTH 468 0
DWIDTH 13 0
BBX 4 13 5 0
BITMAP
60
F0
F0
F0
00
00
00
00
00
60
F0
F0
F0
ENDCHAR
STARTCHAR 003B
ENCODING 59
SWIDTH 468 0
DWIDTH 13 0
BBX 5 17 4 -4
BITMAP
30
78
78
78
00
00
00
00
00
30
78
78
78
18
30
E0
C0
ENDCHAR
STARTCHAR 003C
ENCODING 60
SWIDTH 468 0
DWIDTH 13 0
BBX 12 10 1 3
BITMAP
00E0
03E0
0F80
7C00
F000
F000
3E00
0F80
03F0
0060
ENDCHAR
STARTCHAR 003D
ENCODING 61
SWIDTH 468 0
DWIDTH 13 0
BBX 12 7 1 4
BITMAP
FFF0
FFF0
0000
0000
0000
FFF0
FFF0
ENDCHAR
STARTCHAR 003E
ENCODING 62
SWIDTH 468 0
DWIDTH 13 0
BBX 12 10 1 3
BITMAP
7000
7C00
1F00
03E0
00F0
00F0
07C0
1F00
FC00
6000
ENDCHAR
STARTCHAR 003F
ENCODING 63
SWIDTH 468 0
DWIDTH 13 0
BBX 8 18 3 0
BITMAP
10
FE
CF
03
03
03
07
0E
0C
18
38
30
00
00
00
38
78
38
ENDCHAR
STARTCHAR 0040
ENCODING 64
SWIDTH 468 0
DWIDTH 13 0
BBX 12 22 1 -4
BITMAP
0200
1FC0
3CE0
3060
6030
6030
61F0
E7F0
C630
CE30
CC30
CC30
CC30
EE30
E630
67F0
61E0
7000
3800
1C00
0FE0
03C0
ENDCHAR
STARTCHAR 0041
ENCODING 65
SWIDTH 468 0
DWIDTH 13 0
BBX 14 17 0 0
BITMAP
0780
0780
0780
0CC0
0CC0
0CC0
18E0
1860
1860
3070
3030
3FF0
7FF0
6038
6018
6018
E01C
ENDCHAR
STARTCHAR 0042
ENCODING 66
SWIDTH 468 0
DWIDTH 13 0
BBX 12 17 1 0
BITMAP
FF80
FFC0
E0C0
E0E0
E0E0
E0C0
E1C0
FF80
FFC0
E0E0
E060
E070
E070
E060
E0E0
FFC0
FF80
ENDCHAR
STARTCHAR 0043
ENCODING 67
SWIDTH 468 0
DWIDTH 13 0
BBX 12 18 1 0
BITMAP
0380
0FE0
1EE0
3800
7000
6000
6000
E000
E000
E000
E000
E000
6000
6000
7000
3800
1FF0
0FE0
ENDCHAR
STARTCHAR 0044
ENCODING 68
SWIDTH 468 0
DWIDTH 13 0
BBX 12 17 1 0
BITMAP
FF00
FF80
E1C0
E0E0
E060
E060
E070
E070
E070
E070
E070
E060
E060
E0E0
E1C0
FF80
FF00
ENDCHAR
STARTCHAR 0045
ENCODING 69
SWIDTH 468 0
DWIDTH 13 0
BBX 10 17 3 0
BITMAP
FF80
FF80
C000
C000
C000
C000
C000
FF00
FF00
C000
C000
C000
C000
C000
C000
FFC0
FFC0
ENDCHAR
STARTCHAR 0046
ENCODING 70
SWIDTH 468 0
DWIDTH 13 0
BBX 9 17 3 0
BITMAP
FF80
FF80
C000
C000
C000
C000
C000
FF00
FF00
C000
C000
C000
C000
C000
C000
C000
C000
ENDCHAR
STARTCHAR 0047
ENCODING 71
SWIDTH 468 0
DWIDTH 13 0
BBX 12 18 1 0
BITMAP
0180
0FE0
1EE0
3800
7000
6000
6000
E000
E000
E000
E070
E070
6070
6070
7070
3870
1FF0
0FF0
ENDCHAR
STARTCHAR 0048
ENCODING 72
SWIDTH 468 0
DWIDTH 13 0
BBX 12 17 1 0
BITMAP
E070
E070
E070
E070
E070
E070
E070
FFF0
FFF0
E070
E070
E070
E070
E070
E070
E070
E070
ENDCHAR
STARTCHAR 0049
ENCODING 73
SWIDTH 468 0
DWIDTH 13 0
BBX 9 17 2 0
BITMAP
FF80
FF80
0C00
0C00
0C00
0C00
0C00
0C00
0C00
0C00
0C00
0C00
0C00
0C00
0C00
FF80
FF80
ENDCHAR
STARTCHAR 004A
ENCODING 74
SWIDTH 468 0
DWIDTH 13 0
BBX 10 17 2 0
BITMAP
3FC0
3FC0
01C0
01C0
01C0
01C0
01C0
01C0
01C0
01C0
01C0
01C0
01C0
0180
8380
FF80
FF00
ENDCHAR
STARTCHAR 004B
ENCODING 75
SWIDTH 468 0
DWIDTH 13 0
BBX 11 17 2 0
BITMAP
C0E0
C1C0
C380
C300
C700
CE00
DC00
F800
F800
DC00
CE00
C700
C380
C1C0
C0C0
C0E0
C060
ENDCHAR
STARTCHAR 004C
ENCODING 76
SWIDTH 468 0
DWIDTH 13 0
BBX 10 17 3 0
BITMAP
C000
C000
C000
C000
C000
C000
C000
C000
C000
C000
C000
C000
C000
C000
C000
FFC0
FFC0
ENDCHAR
STARTCHAR 004D
ENCODING 77
SWIDTH 468 0
DWIDTH 13 0
BBX 12 17 1 0
BITMAP
70E0
70E0
70E0
51E0
59A0
59A0
C920
CF30
CF30
C630
C030
C030
C030
C030
C030
C030
C030
ENDCHAR
STARTCHAR 004E
ENCODING 78
SWIDTH 468 0
DWIDTH 13 0
BBX 10 17 2 0
BITMAP
C0C0
E0C0
E0C0
F0C0
F0C0
D8C0
D8C0
CCC0
CCC0
C6C0
C6C0
C3C0
C3C0
C1C0
C1C0
C1C0
C0C0
ENDCHAR
STARTCHAR 004F
ENCODING 79
SWIDTH 468 0
DWIDTH 13 0
BBX 12 18 1 0
BITMAP
0600
1F80
3FC0
70E0
6060
E070
C030
C030
C030
C030
C030
C030
C070
E070
6060
70E0
3FC0
1F80
ENDCHAR
STARTCHAR 0050
ENCODING 80
SWIDTH 468 0
DWIDTH 13 0
BBX 11 17 2 0
BITMAP
FF00
FF80
C1C0
C0C0
C0E0
C0E0
C0C0
C0C0
C7C0
FF80
F800
C000
C000
C000
C000
C000
C000
ENDCHAR
STARTCHAR 0051
ENCODING 81
SWIDTH 468 0
DWIDTH 13 0
BBX 12 22 1 -5
BITMAP
0600
1F80
3FC0
70E0
6060
E070
C030
C030
C030
C030
C030
C030
C070
E070
6060
70E0
3FC0
1F80
0600
0700
03C0
01E0
ENDCHAR
STARTCHAR 0052
ENCODING 82
SWIDTH 468 0
DWIDTH 13 0
BBX 11 17 2 0
BITMAP
FF00
FF80
C180
C1C0
C0C0
C0C0
C1C0
C180
FF80
FE00
C600
C300
C380
C180
C1C0
C0C0
C0E0
ENDCHAR
STARTCHAR 0053
ENCODING 83
SWIDTH 468 0
DWIDTH 13 0
BBX 10 18 2 0
BITMAP
0600
3FC0
7B80
E000
C000
C000
E000
7000
7C00
1F00
0780
01C0
00C0
00C0
00C0
81C0
FFC0
FF00
ENDCHAR
STARTCHAR 0054
ENCODING 84
SWIDTH 468 0
DWIDTH 13 0
BBX 12 17 1 0
BITMAP
FFF0
FFF0
0600
0600
0600
0600
0600
0600
0600
0600
0600
0600
0600
0600
0600
0600
0600
ENDCHAR
STARTCHAR 0055
ENCODING 85
SWIDTH 468 0
DWIDTH 13 0
BBX 12 17 1 0
BITMAP
E070
E070
E070
E070
E070
E070
E070
E070
E070
E070
E070
E070
E060
6060
70E0
7FC0
1F80
ENDCHAR
STARTCHAR 0056
ENCODING 86
SWIDTH 468 0
DWIDTH 13 0
BBX 12 17 1 0
BITMAP
C030
C030
C030
E070
6060
6060
6060
70C0
30C0
30C0
39C0
1980
1980
1B80
0F00
0F00
0F00
ENDCHAR
STARTCHAR 0057
ENCODING 87
SWIDTH 468 0
DWIDTH 13 0
BBX 12 17 1 0
BITMAP
C030
C030
C030
C030
C030
C030
C630
C630
CF30
CF20
C920
59A0
59E0
50E0
70E0
70E0
60E0
ENDCHAR
STARTCHAR 0058
ENCODING 88
SWIDTH 468 0
DWIDTH 13 0
BBX 12 17 1 0
BITMAP
E070
6060
70C0
31C0
1980
1B80
0F00
0F00
0F00
1F00
1980
39C0
30C0
70E0
6060
E070
C070
ENDCHAR
STARTCHAR 0059
ENCODING 89
SWIDTH 468 0
DWIDTH 13 0
BBX 12 17 1 0
BITMAP
C030
E070
E060
6060
70C0
30C0
3980
1980
0F00
0F00
0600
0600
0600
0600
0600
0600
0600
ENDCHAR
STARTCHAR 005A
ENCODING 90
SWIDTH 468 0
DWIDTH 13 0
BBX 12 17 1 0
BITMAP
7FE0
7FE0
00E0
00C0
0180
0380
0300
0700
0E00
0C00
1C00
1800
3800
7000
6000
FFF0
FFF0
ENDCHAR
STARTCHAR 005B
ENCODING 91
SWIDTH 468 0
DWIDTH 13 0
BBX 7 24 4 -5
BITMAP
FE
C0
C0
C0
C0
C0
C0
C0
C0
C0
C0
C0
C0
C0
C0
C0
C0
C0
C0
C0
C0
C0
FE
FE
ENDCHAR
STARTCHAR 005C
ENCODING 92
SWIDTH 468 0
DWIDTH 13 0
BBX 10 24 2 -5
BITMAP
E000
6000
6000
7000
3000
3000
3000
3800
1800
1800
1C00
0C00
0C00
0E00
0600
0600
0700
0300
0300
0380
0180
0180
01C0
00C0
ENDCHAR
STARTCHAR 005D
ENCODING 93
SWIDTH 468 0
DWIDTH 13 0
BBX 7 24 3 -5
BITMAP
FE
06
06
06
06
06
06
06
06
06
06
06
06
06
06
06
06
06
06
06
06
06
FE
FE
ENDCHAR
STARTCHAR 005E
ENCODING 94
SWIDTH 468 0
DWIDTH 13 0
BBX 10 9 2 8
BITMAP
0C00
1E00
3F00
3300
7380
6180
C1C0
C0C0
8040
ENDCHAR
STARTCHAR 005F
ENCODING 95
SWIDTH 468 0
DWIDTH 13 0
BBX 14 2 0 -5
BITMAP
FFFC
FFFC
ENDCHAR
STARTCHAR 0060
ENCODING 96
SWIDTH 468 0
DWIDTH 13 0
BBX 4 4 5 14
BITMAP
C0
C0
60
30
ENDCHAR
STARTCHAR 0061
ENCODING 97
SWIDTH 468 0
DWIDTH 13 0
BBX 10 13 2 0
BITMAP
7F00
7F80
01C0
00C0
00C0
1FC0
7FC0
E0C0
C0C0
C0C0
C0C0
FFC0
7FC0
ENDCHAR
STARTCHAR 0062
ENCODING 98
SWIDTH 468 0
DWIDTH 13 0
BBX 11 19 2 0
BITMAP
C000
C000
C000
C000
C000
C000
FF00
FF80
E1C0
C0C0
C0E0
C0E0
C0E0
C0E0
C0E0
C0C0
C1C0
FF80
FF00
ENDCHAR
STARTCHAR 0063
ENCODING 99
SWIDTH 468 0
DWIDTH 13 0
BBX 12 13 1 0
BITMAP
0FE0
3FE0
7800
7000
6000
E000
E000
E000
6000
7000
7800
3FE0
0FF0
ENDCHAR
STARTCHAR 0064
ENCODING 100
SWIDTH 468 0
DWIDTH 13 0
BBX 11 19 1 0
BITMAP
0060
0060
0060
0060
0060
0060
1F60
3FE0
70E0
6060
E060
E060
C060
E060
E060
6060
7060
3FE0
1FE0
ENDCHAR
STARTCHAR 0065
ENCODING 101
SWIDTH 468 0
DWIDTH 13 0
BBX 12 13 1 0
BITMAP
1F80
3FC0
70E0
6060
E060
FFF0
FFF0
C000
E000
6000
7000
3FE0
1FE0
ENDCHAR
STARTCHAR 0066
ENCODING 102
SWIDTH 468 0
DWIDTH 13 0
BBX 11 19 2 0
BITMAP
0FE0
1FE0
1C00
1800
3800
3800
FFC0
FFC0
3800
3800
3800
3800
3800
3800
3800
3800
3800
3800
3800
ENDCHAR
STARTCHAR 0067
ENCODING 103
SWIDTH 468 0
DWIDTH 13 0
BBX 11 18 1 -5
BITMAP
1FE0
3FE0
7060
6060
E060
E060
C060
E060
E060
6060
7FE0
3FE0
0460
00E0
00E0
63C0
7F80
1C00
ENDCHAR
STARTCHAR 0068
ENCODING 104
SWIDTH 468 0
DWIDTH 13 0
BBX 10 19 2 0
BITMAP
C000
C000
C000
C000
C000
C000
FF00
FF80
C180
C1C0
C0C0
C0C0
C0C0
C0C0
C0C0
C0C0
C0C0
C0C0
C0C0
ENDCHAR
STARTCHAR 0069
ENCODING 105
SWIDTH 468 0
DWIDTH 13 0
BBX 11 19 1 0
BITMAP
0800
1C00
1E00
1C00
0000
0000
FE00
FE00
0E00
0E00
0E00
0E00
0E00
0E00
0E00
0E00
0E00
07E0
03E0
ENDCHAR
STARTCHAR 006A
ENCODING 106
SWIDTH 468 0
DWIDTH 13 0
BBX 9 24 2 -5
BITMAP
0200
0700
0700
0700
0000
0000
7F80
7F80
0380
0380
0380
0380
0380
0380
0380
0380
0380
0380
0380
0380
0300
E700
FE00
3C00
ENDCHAR
STARTCHAR 006B
ENCODING 107
SWIDTH 468 0
DWIDTH 13 0
BBX 11 19 2 0
BITMAP
C000
C000
C000
C000
C000
C000
C0C0
C1C0
C300
C600
DC00
F800
F800
DC00
CF00
C380
C180
C1C0
C0E0
ENDCHAR
STARTCHAR 006C
ENCODING 108
SWIDTH 468 0
DWIDTH 13 0
BBX 11 19 1 0
BITMAP
FE00
FE00
0E00
0E00
0E00
0E00
0E00
0E00
0E00
0E00
0E00
0E00
0E00
0E00
0E00
0E00
0E00
07E0
03E0
ENDCHAR
STARTCHAR 006D
ENCODING 109
SWIDTH 468 0
DWIDTH 13 0
BBX 12 13 1 0
BITMAP
FFE0
FFE0
C630
C630
C630
C630
C630
C630
C030
C030
C030
C030
C030
ENDCHAR
STARTCHAR 006E
ENCODING 110
SWIDTH 468 0
DWIDTH 13 0
BBX 10 13 2 0
BITMAP
FF00
FF80
C1C0
C1C0
C0C0
C0C0
C0C0
C0C0
C0C0
C0C0
C0C0
C0C0
C0C0
ENDCHAR
STARTCHAR 006F
ENCODING 111
SWIDTH 468 0
DWIDTH 13 0
BBX 12 13 1 0
BITMAP
1F80
3FC0
70E0
6060
E070
E070
C070
E070
E070
6060
70E0
3FC0
1F80
ENDCHAR
STARTCHAR 0070
ENCODING 112
SWIDTH 468 0
DWIDTH 13 0
BBX 11 18 2 -5
BITMAP
FF00
FF80
C1C0
C0C0
C0E0
C0E0
C0E0
C0E0
C0E0
C0C0
E1C0
FF80
FF00
C000
C000
C000
C000
C000
ENDCHAR
STARTCHAR 0071
ENCODING 113
SWIDTH 468 0
DWIDTH 13 0
BBX 11 18 1 -5
BITMAP
1FE0
3FE0
7060
6060
E060
E060
C060
E060
E060
6060
70E0
3FE0
1FE0
0060
0060
0060
0060
0060
ENDCHAR
STARTCHAR 0072
ENCODING 114
SWIDTH 468 0
DWIDTH 13 0
BBX 9 13 3 0
BITMAP
7F80
FF80
C000
C000
C000
C000
C000
C000
C000
C000
C000
C000
C000
ENDCHAR
STARTCHAR 0073
ENCODING 115
SWIDTH 468 0
DWIDTH 13 0
BBX 10 13 2 0
BITMAP
3F80
7F80
E000
C000
E000
7800
3F00
0780
01C0
00C0
80C0
FFC0
FF00
ENDCHAR
STARTCHAR 0074
ENCODING 116
SWIDTH 468 0
DWIDTH 13 0
BBX 10 17 2 0
BITMAP
3800
3800
3800
3800
FFC0
FFC0
3800
3800
3800
3800
3800
3800
3800
1800
1800
1FC0
0FC0
ENDCHAR
STARTCHAR 0075
ENCODING 117
SWIDTH 468 0
DWIDTH 13 0
BBX 10 13 2 0
BITMAP
C0C0
C0C0
C0C0
C0C0
C0C0
C0C0
C0C0
C0C0
C0C0
E0C0
E0C0
7FC0
3FC0
ENDCHAR
STARTCHAR 0076
ENCODING 118
SWIDTH 468 0
DWIDTH 13 0
BBX 12 13 1 0
BITMAP
C030
E070
6060
6060
70E0
30C0
31C0
3980
1980
1F80
0F00
0F00
0600
ENDCHAR
STARTCHAR 0077
ENCODING 119
SWIDTH 468 0
DWIDTH 13 0
BBX 12 13 1 0
BITMAP
C030
C030
C030
C630
C630
CF30
CF30
EB60
79E0
79E0
71E0
70E0
70C0
ENDCHAR
STARTCHAR 0078
ENCODING 120
SWIDTH 468 0
DWIDTH 13 0
BBX 12 13 1 0
BITMAP
E060
70E0
30C0
1980
1F80
0F00
0F00
0F80
1980
39C0
70E0
6060
C070
ENDCHAR
STARTCHAR 0079
ENCODING 121
SWIDTH 468 0
DWIDTH 13 0
BBX 12 18 1 -5
BITMAP
E070
6060
6060
7060
30E0
30C0
38C0
19C0
1D80
0D80
0F80
0700
0700
0600
0600
9C00
F800
7000
ENDCHAR
STARTCHAR 007A
ENCODING 122
SWIDTH 468 0
DWIDTH 13 0
BBX 10 13 2 0
BITMAP
FFC0
FFC0
0380
0300
0600
0E00
1C00
1800
3000
7000
6000
FFC0
FFC0
ENDCHAR
STARTCHAR 007B
ENCODING 123
SWIDTH 468 0
DWIDTH 13 0
BBX 10 24 2 -5
BITMAP
0FC0
0E00
1C00
1800
1800
1800
1800
1800
1800
1800
3800
F000
7800
1800
1800
1800
1800
1800
1800
1800
1800
0C00
0FC0
01C0
ENDCHAR
STARTCHAR 007C
ENCODING 124
SWIDTH 468 0
DWIDTH 13 0
BBX 2 24 6 -5
BITMAP
C0
C0
C0
C0
C0
C0
C0
C0
C0
C0
C0
C0
C0
C0
C0
C0
C0
C0
C0
C0
C0
C0
C0
C0
ENDCHAR
STARTCHAR 007D
ENCODING 125
SWIDTH 468 0
DWIDTH 13 0
BBX 10 24 2 -5
BITMAP
FC00
1C00
0E00
0600
0600
0600
0600
0600
0600
0600
0700
03C0
0700
0600
0600
0600
0600
0600
0600
0600
0E00
0C00
FC00
F000
ENDCHAR
STARTCHAR 007E
ENCODING 126
SWIDTH 468 0
DWIDTH 13 0
BBX 12 4 1 5
BITMAP
7C30
7F70
C7E0
41C0
ENDCHAR
STARTCHAR 00A0
ENCODING 160
SWIDTH 468 0
DWIDTH 13 0
BBX 0 0 0 0
BITMAP
ENDCHAR
STARTCHAR 00A1
ENCODING 161
SWIDTH 468 0
DWIDTH 13 0
BBX 4 18 5 -5
BITMAP
60
F0
F0
60
00
00
60
60
60
60
60
60
60
60
60
60
60
60
ENDCHAR
STARTCHAR 00A2
ENCODING 162
SWIDTH 468 0
DWIDTH 13 0
BBX 11 20 1 -3
BITMAP
0300
0300
0300
07C0
1FE0
3C20
7000
6000
E000
E000
E000
6000
6000
7800
3FE0
0FE0
0300
0300
0300
0300
ENDCHAR
STARTCHAR 00A3
ENCODING 163
SWIDTH 468 0
DWIDTH 13 0
BBX 12 17 1 1
BITMAP
0FE0
1FE0
1C00
1800
1800
1800
1800
1800
FFC0
FFC0
1800
3800
3800
3800
3800
3FF0
3FF0
ENDCHAR
STARTCHAR 00A4
ENCODING 164
SWIDTH 468 0
DWIDTH 13 0
BBX 12 11 1 4
BITMAP
C060
7FE0
39C0
70C0
6060
6060
6060
30C0
7FC0
FFF0
4020
ENDCHAR
STARTCHAR 00A5
ENCODING 165
SWIDTH 468 0
DWIDTH 13 0
BBX 12 17 1 0
BITMAP
C030
E070
6060
70E0
30C0
3980
1980
0F00
7FE0
7FE0
0600
0600
0600
7FE0
0600
0600
0600
ENDCHAR
STARTCHAR 00A6
ENCODING 166
SWIDTH 468 0
DWIDTH 13 0
BBX 2 24 6 -5
BITMAP
C0
C0
C0
C0
C0
C0
C0
C0
C0
00
00
00
00
00
C0
C0
C0
C0
C0
C0
C0
C0
C0
C0
ENDCHAR
STARTCHAR 00A7
ENCODING 167
SWIDTH 468 0
DWIDTH 13 0
BBX 10 21 2 -3
BITMAP
0400
3F80
7180
6000
6000
7000
3C00
7F00
E380
C1C0
C0C0
E0C0
7180
3F80
0F00
0380
0180
0180
C380
FF00
3C00
ENDCHAR
STARTCHAR 00A8
ENCODING 168
SWIDTH 468 0
DWIDTH 13 0
BBX 8 3 3 15
BITMAP
E7
E7
42
ENDCHAR
STARTCHAR 00A9
ENCODING 169
SWIDTH 468 0
DWIDTH 13 0
BBX 12 13 1 0
BITMAP
1F80
39C0
6060
C720
DF30
D830
D830
D830
DF30
CF20
6060
31C0
1F80
ENDCHAR
STARTCHAR 00AA
ENCODING 170
SWIDTH 468 0
DWIDTH 13 0
BBX 8 10 3 8
BITMAP
08
7E
06
03
3F
7F
C3
C3
7F
3F
ENDCHAR
STARTCHAR 00AB
ENCODING 171
SWIDTH 468 0
DWIDTH 13 0
BBX 9 10 2 2
BITMAP
1080
3180
7380
6300
C600
C600
6300
7380
3180
1080
ENDCHAR
STARTCHAR 00AC
ENCODING 172
SWIDTH 468 0
DWIDTH 13 0
BBX 12 9 1 1
BITMAP
FFF0
FFF0
0030
0030
0030
0030
0030
0030
0030
ENDCHAR
STARTCHAR 00AD
ENCODING 173
SWIDTH 468 0
DWIDTH 13 0
BBX 6 2 4 6
BITMAP
FC
FC
ENDCHAR
STARTCHAR 00AE
ENCODING 174
SWIDTH 468 0
DWIDTH 13 0
BBX 12 13 1 0
BITMAP
1F80
39C0
6060
CF20
CB30
C9B0
CF30
CF30
C930
C9A0
6060
31C0
1F80
ENDCHAR
STARTCHAR 00AF
ENCODING 175
SWIDTH 468 0
DWIDTH 13 0
BBX 7 2 3 16
BITMAP
FE
FE
ENDCHAR
STARTCHAR 00B0
ENCODING 176
SWIDTH 468 0
DWIDTH 13 0
BBX 7 7 3 12
BITMAP
3C
66
42
C2
66
7E
18
ENDCHAR
STARTCHAR 00B1
ENCODING 177
SWIDTH 468 0
DWIDTH 13 0
BBX 12 15 1 0
BITMAP
0600
0600
0600
0600
0600
FFF0
FFF0
0600
0600
0600
0600
0600
0000
FFF0
FFF0
ENDCHAR
STARTCHAR 00B2
ENCODING 178
SWIDTH 468 0
DWIDTH 13 0
BBX 6 10 4 8
BITMAP
20
FC
8C
0C
0C
18
70
60
C0
FC
ENDCHAR
STARTCHAR 00B3
ENCODING 179
SWIDTH 468 0
DWIDTH 13 0
BBX 6 10 4 8
BITMAP
20
F8
8C
0C
78
78
0C
04
0C
F8
ENDCHAR
STARTCHAR 00B4
ENCODING 180
SWIDTH 468 0
DWIDTH 13 0
BBX 4 4 5 14
BITMAP
30
70
60
C0
ENDCHAR
STARTCHAR 00B5
ENCODING 181
SWIDTH 468 0
DWIDTH 13 0
BBX 10 18 2 -5
BITMAP
C0C0
C0C0
C0C0
C0C0
C0C0
C0C0
C0C0
C0C0
C0C0
E0C0
E0C0
FFC0
FFC0
C000
C000
C000
C000
C000
ENDCHAR
STARTCHAR 00B6
ENCODING 182
SWIDTH 468 0
DWIDTH 13 0
BBX 11 22 1 -5
BITMAP
1FE0
7FE0
FE60
FE60
FE60
FE60
FE60
FE60
7E60
3E60
0660
0660
0660
0660
0660
0660
0660
0660
0660
0660
0660
0660
ENDCHAR
STARTCHAR 00B7
ENCODING 183
SWIDTH 468 0
DWIDTH 13 0
BBX 4 4 5 5
BITMAP
F0
F0
F0
60
ENDCHAR
STARTCHAR 00B8
ENCODING 184
SWIDTH 468 0
DWIDTH 13 0
BBX 5 6 4 -5
BITMAP
10
30
30
18
F8
70
ENDCHAR
STARTCHAR 00B9
ENCODING 185
SWIDTH 468 0
DWIDTH 13 0
BBX 7 9 4 8
BITMAP
30
F0
B0
30
30
30
30
30
FE
ENDCHAR
STARTCHAR 00BA
ENCODING 186
SWIDTH 468 0
DWIDTH 13 0
BBX 9 9 2 9
BITMAP
3F00
7380
6180
C080
C080
6180
6180
3F00
1E00
ENDCHAR
STARTCHAR 00BB
ENCODING 187
SWIDTH 468 0
DWIDTH 13 0
BBX 9 10 3 2
BITMAP
8400
C600
C700
6300
7380
7380
6300
C600
C600
8400
ENDCHAR
STARTCHAR 00BC
ENCODING 188
SWIDTH 468 0
DWIDTH 13 0
BBX 12 17 1 0
BITMAP
7030
F060
B060
30C0
3180
3180
3300
0300
0600
0C00
0C60
18A0
31A0
3120
63F0
63F0
C020
ENDCHAR
STARTCHAR 00BD
ENCODING 189
SWIDTH 468 0
DWIDTH 13 0
BBX 12 17 1 0
BITMAP
7030
F060
B0C0
30C0
3180
3300
3300
0600
0600
0C00
19E0
1930
3030
3030
60E0
C180
C1F0
ENDCHAR
STARTCHAR 00BE
ENCODING 190
SWIDTH 468 0
DWIDTH 13 0
BBX 12 18 1 0
BITMAP
2000
F030
1860
7060
78C0
1980
F980
F300
0300
0600
0C00
0C60
18A0
19A0
3120
63F0
63F0
C020
ENDCHAR
STARTCHAR 00BF
ENCODING 191
SWIDTH 468 0
DWIDTH 13 0
BBX 8 18 3 -5
BITMAP
1C
1C
1C
0C
00
00
0C
0C
18
38
70
E0
C0
C0
C0
E3
7F
1C
ENDCHAR
STARTCHAR 00C0
ENCODING 192
SWIDTH 468 0
DWIDTH 13 0
BBX 14 23 0 0
BITMAP
0200
0600
0300
0180
0000
0000
0780
0780
0780
0CC0
0CC0
0CC0
18E0
1860
1860
3070
3030
3FF0
7FF0
6038
6018
6018
E01C
ENDCHAR
STARTCHAR 00C1
ENCODING 193
SWIDTH 468 0
DWIDTH 13 0
BBX 14 23 0 0
BITMAP
0100
0180
0300
0600
0400
0000
0780
0780
0780
0CC0
0CC0
0CC0
18E0
1860
1860
3070
3030
3FF0
7FF0
6038
6018
6018
E01C
ENDCHAR
STARTCHAR 00C2
ENCODING 194
SWIDTH 468 0
DWIDTH 13 0
BBX 14 22 0 1
BITMAP
0300
0780
0CC0
0840
0000
0780
0780
0780
0CC0
0CC0
0CC0
18E0
1860
1860
3070
3030
3FF0
7FF0
6038
6018
6018
E01C
ENDCHAR
STARTCHAR 00C3
ENCODING 195
SWIDTH 468 0
DWIDTH 13 0
BBX 14 22 0 0
BITMAP
0E60
1FC0
0980
0000
0000
0780
0780
0780
0CC0
0CC0
0CC0
18E0
1860
1860
3070
3030
3FF0
7FF0
6038
6018
6018
E01C
ENDCHAR
STARTCHAR 00C4
ENCODING 196
SWIDTH 468 0
DWIDTH 13 0
BBX 14 22 0 0
BITMAP
1CC0
1CE0
08C0
0000
0000
0780
0780
0780
0CC0
0CC0
0CC0
18E0
1860
1860
3070
3030
3FF0
7FF0
6038
6018
6018
E01C
ENDCHAR
STARTCHAR 00C5
ENCODING 197
SWIDTH 468 0
DWIDTH 13 0
BBX 14 21 0 0
BITMAP
0300
0780
0CC0
0480
0780
0780
0780
0CC0
0CC0
0CC0
18E0
1860
1860
3070
3030
3FF0
7FF0
6038
6018
6018
E01C
ENDCHAR
STARTCHAR 00C6
ENCODING 198
SWIDTH 468 0
DWIDTH 13 0
BBX 12 17 1 0
BITMAP
07F0
0FF0
0F00
0F00
1B00
1B00
1B00
33E0
33E0
3300
3300
7F00
7F00
6300
E300
C3F0
C3F0
ENDCHAR
STARTCHAR 00C7
ENCODING 199
SWIDTH 468 0
DWIDTH 13 0
BBX 12 23 1 -5
BITMAP
0380
0FE0
1EE0
3800
7000
6000
6000
E000
E000
E000
E000
E000
6000
6000
7000
3800
1FF0
0FE0
0300
0380
0180
0780
0700
ENDCHAR
STARTCHAR 00C8
ENCODING 200
SWIDTH 468 0
DWIDTH 13 0
BBX 10 23 3 0
BITMAP
1000
3800
1C00
0C00
0400
0000
FF80
FF80
C000
C000
C000
C000
C000
FF00
FF00
C000
C000
C000
C000
C000
C000
FFC0
FFC0
ENDCHAR
STARTCHAR 00C9
ENCODING 201
SWIDTH 468 0
DWIDTH 13 0
BBX 10 23 3 0
BITMAP
0400
0E00
1C00
1800
1000
0000
FF80
FF80
C000
C000
C000
C000
C000
FF00
FF00
C000
C000
C000
C000
C000
C000
FFC0
FFC0
ENDCHAR
STARTCHAR 00CA
ENCODING 202
SWIDTH 468 0
DWIDTH 13 0
BBX 10 23 3 0
BITMAP
0800
1C00
3E00
6700
0000
0000
FF80
FF80
C000
C000
C000
C000
C000
FF00
FF00
C000
C000
C000
C000
C000
C000
FFC0
FFC0
ENDCHAR
STARTCHAR 00CB
ENCODING 203
SWIDTH 468 0
DWIDTH 13 0
BBX 10 22 3 0
BITMAP
6300
7700
6300
0000
0000
FF80
FF80
C000
C000
C000
C000
C000
FF00
FF00
C000
C000
C000
C000
C000
C000
FFC0
FFC0
ENDCHAR
STARTCHAR 00CC
ENCODING 204
SWIDTH 468 0
DWIDTH 13 0
BBX 9 23 2 0
BITMAP
0800
1800
0C00
0600
0000
0000
FF80
FF80
0C00
0C00
0C00
0C00
0C00
0C00
0C00
0C00
0C00
0C00
0C00
0C00
0C00
FF80
FF80
ENDCHAR
STARTCHAR 00CD
ENCODING 205
SWIDTH 468 0
DWIDTH 13 0
BBX 9 23 2 0
BITMAP
0200
0700
0E00
1C00
0000
0000
FF80
FF80
0C00
0C00
0C00
0C00
0C00
0C00
0C00
0C00
0C00
0C00
0C00
0C00
0C00
FF80
FF80
ENDCHAR
STARTCHAR 00CE
ENCODING 206
SWIDTH 468 0
DWIDTH 13 0
BBX 9 22 2 1
BITMAP
0C00
1E00
3300
2100
0000
FF80
FF80
0C00
0C00
0C00
0C00
0C00
0C00
0C00
0C00
0C00
0C00
0C00
0C00
0C00
FF80
FF80
ENDCHAR
STARTCHAR 00CF
ENCODING 207
SWIDTH 468 0
DWIDTH 13 0
BBX 9 22 2 0
BITMAP
7300
7380
2300
0000
0000
FF80
FF80
0C00
0C00
0C00
0C00
0C00
0C00
0C00
0C00
0C00
0C00
0C00
0C00
0C00
FF80
FF80
ENDCHAR
STARTCHAR 00D0
ENCODING 208
SWIDTH 468 0
DWIDTH 13 0
BBX 13 17 0 0
BITMAP
3F80
3FE0
30E0
3070
3030
3030
3038
FE38
FE38
3038
3038
3030
3030
3070
30E0
3FC0
3F80
ENDCHAR
STARTCHAR 00D1
ENCODING 209
SWIDTH 468 0
DWIDTH 13 0
BBX 10 22 2 0
BITMAP
3980
7F00
2600
0000
0000
C0C0
E0C0
E0C0
F0C0
F0C0
D8C0
D8C0
CCC0
CCC0
C6C0
C6C0
C3C0
C3C0
C1C0
C1C0
C1C0
C0C0
ENDCHAR
STARTCHAR 00D2
ENCODING 210
SWIDTH 468 0
DWIDTH 13 0
BBX 12 23 1 0
BITMAP
0400
0C00
0600
0300
0000
0600
1F80
3FC0
70E0
6060
E070
C030
C030
C030
C030
C030
C030
C070
E070
6060
70E0
3FC0
1F80
ENDCHAR
STARTCHAR 00D3
ENCODING 211
SWIDTH 468 0
DWIDTH 13 0
BBX 12 23 1 0
BITMAP
0100
0380
0700
0C00
0000
0600
1F80
3FC0
70E0
6060
E070
C030
C030
C030
C030
C030
C030
C070
E070
6060
70E0
3FC0
1F80
ENDCHAR
STARTCHAR 00D4
ENCODING 212
SWIDTH 468 0
DWIDTH 13 0
BBX 12 22 1 1
BITMAP
0600
0F00
1980
1080
0600
1F80
3FC0
70E0
6060
E070
C030
C030
C030
C030
C030
C030
C070
E070
6060
70E0
3FC0
1F80
ENDCHAR
STARTCHAR 00D5
ENCODING 213
SWIDTH 468 0
DWIDTH 13 0
BBX 12 22 1 0
BITMAP
1CC0
3F80
1300
0000
0600
1F80
3FC0
70E0
6060
E070
C030
C030
C030
C030
C030
C030
C070
E070
6060
70E0
3FC0
1F80
ENDCHAR
STARTCHAR 00D6
ENCODING 214
SWIDTH 468 0
DWIDTH 13 0
BBX 12 22 1 0
BITMAP
3980
39C0
1180
0000
0600
1F80
3FC0
70E0
6060
E070
C030
C030
C030
C030
C030
C030
C070
E070
6060
70E0
3FC0
1F80
ENDCHAR
STARTCHAR 00D7
ENCODING 215
SWIDTH 468 0
DWIDTH 13 0
BBX 10 10 2 2
BITMAP
4080
E1C0
7380
3F00
1E00
1E00
3F00
7380
E1C0
4080
ENDCHAR
STARTCHAR 00D8
ENCODING 216
SWIDTH 468 0
DWIDTH 13 0
BBX 12 19 1 -1
BITMAP
0660
1FE0
3DC0
70E0
61E0
E1F0
C330
C330
C630
C630
CC30
CC30
D870
D870
7060
70E0
7FC0
7F80
6000
ENDCHAR
STARTCHAR 00D9
ENCODING 217
SWIDTH 468 0
DWIDTH 13 0
BBX 12 23 1 0
BITMAP
0800
0C00
0600
0300
0000
0000
E070
E070
E070
E070
E070
E070
E070
E070
E070
E070
E070
E070
E060
6060
70E0
7FC0
1F80
ENDCHAR
STARTCHAR 00DA
ENCODING 218
SWIDTH 468 0
DWIDTH 13 0
BBX 12 23 1 0
BITMAP
0100
0380
0700
0C00
0000
0000
E070
E070
E070
E070
E070
E070
E070
E070
E070
E070
E070
E070
E060
6060
70E0
7FC0
1F80
ENDCHAR
STARTCHAR 00DB
ENCODING 219
SWIDTH 468 0
DWIDTH 13 0
BBX 12 22 1 1
BITMAP
0600
0F00
1980
1080
0000
E070
E070
E070
E070
E070
E070
E070
E070
E070
E070
E070
E070
E060
6060
70E0
7FC0
1F80
ENDCHAR
STARTCHAR 00DC
ENCODING 220
SWIDTH 468 0
DWIDTH 13 0
BBX 12 22 1 0
BITMAP
3980
39C0
1180
0000
0000
E070
E070
E070
E070
E070
E070
E070
E070
E070
E070
E070
E070
E060
6060
70E0
7FC0
1F80
ENDCHAR
STARTCHAR 00DD
ENCODING 221
SWIDTH 468 0
DWIDTH 13 0
BBX 12 23 1 0
BITMAP
0100
0380
0700
0C00
0000
0000
C030
E070
E060
6060
70C0
30C0
3980
1980
0F00
0F00
0600
0600
0600
0600
0600
0600
0600
ENDCHAR
STARTCHAR 00DE
ENCODING 222
SWIDTH 468 0
DWIDTH 13 0
BBX 11 17 2 0
BITMAP
C000
C000
C000
FF00
FFC0
C1C0
C0E0
C0E0
C0E0
C0C0
C1C0
CF80
FF00
C000
C000
C000
C000
ENDCHAR
STARTCHAR 00DF
ENCODING 223
SWIDTH 468 0
DWIDTH 13 0
BBX 11 19 2 0
BITMAP
3F00
7F80
E380
E180
C180
C380
C700
CE00
CC00
CC00
CE00
C780
C1C0
C0E0
C060
C060
C060
CFE0
CFC0
ENDCHAR
STARTCHAR 00E0
ENCODING 224
SWIDTH 468 0
DWIDTH 13 0
BBX 10 19 2 0
BITMAP
1800
1800
0C00
0600
0000
0000
7F00
7F80
01C0
00C0
00C0
1FC0
7FC0
E0C0
C0C0
C0C0
C0C0
FFC0
7FC0
ENDCHAR
STARTCHAR 00E1
ENCODING 225
SWIDTH 468 0
DWIDTH 13 0
BBX 10 19 2 0
BITMAP
0200
0700
0E00
1C00
0800
0000
7F00
7F80
01C0
00C0
00C0
1FC0
7FC0
E0C0
C0C0
C0C0
C0C0
FFC0
7FC0
ENDCHAR
STARTCHAR 00E2
ENCODING 226
SWIDTH 468 0
DWIDTH 13 0
BBX 10 19 2 0
BITMAP
0400
0E00
1F00
3380
0000
0000
7F00
7F80
01C0
00C0
00C0
1FC0
7FC0
E0C0
C0C0
C0C0
C0C0
FFC0
7FC0
ENDCHAR
STARTCHAR 00E3
ENCODING 227
SWIDTH 468 0
DWIDTH 13 0
BBX 10 18 2 0
BITMAP
3980
7F00
0200
0000
0000
7F00
7F80
01C0
00C0
00C0
1FC0
7FC0
E0C0
C0C0
C0C0
C0C0
FFC0
7FC0
ENDCHAR
STARTCHAR 00E4
ENCODING 228
SWIDTH 468 0
DWIDTH 13 0
BBX 10 18 2 0
BITMAP
7380
7380
2100
0000
0000
7F00
7F80
01C0
00C0
00C0
1FC0
7FC0
E0C0
C0C0
C0C0
C0C0
FFC0
7FC0
ENDCHAR
STARTCHAR 00E5
ENCODING 229
SWIDTH 468 0
DWIDTH 13 0
BBX 10 19 2 0
BITMAP
1E00
3200
3200
1E00
0C00
0000
7F00
7F80
01C0
00C0
00C0
1FC0
7FC0
E0C0
C0C0
C0C0
C0C0
FFC0
7FC0
ENDCHAR
STARTCHAR 00E6
ENCODING 230
SWIDTH 468 0
DWIDTH 13 0
BBX 12 13 1 0
BITMAP
79E0
7FE0
0F30
0630
0630
3FF0
7FF0
E600
C600
C600
C300
FFF0
7DF0
ENDCHAR
STARTCHAR 00E7
ENCODING 231
SWIDTH 468 0
DWIDTH 13 0
BBX 12 18 1 -5
BITMAP
0FE0
3FE0
7800
7000
6000
E000
E000
E000
6000
7000
7800
3FE0
0FF0
0200
0700
0380
0F00
0E00
ENDCHAR
STARTCHAR 00E8
ENCODING 232
SWIDTH 468 0
DWIDTH 13 0
BBX 12 19 1 0
BITMAP
0C00
0C00
0600
0300
0000
0000
1F80
3FC0
70E0
6060
E060
FFF0
FFF0
C000
E000
6000
7000
3FE0
1FE0
ENDCHAR
STARTCHAR 00E9
ENCODING 233
SWIDTH 468 0
DWIDTH 13 0
BBX 12 19 1 0
BITMAP
0100
0380
0700
0E00
0400
0000
1F80
3FC0
70E0
6060
E060
FFF0
FFF0
C000
E000
6000
7000
3FE0
1FE0
ENDCHAR
STARTCHAR 00EA
ENCODING 234
SWIDTH 468 0
DWIDTH 13 0
BBX 12 19 1 0
BITMAP
0200
0700
0F80
18C0
0000
0000
1F80
3FC0
70E0
6060
E060
FFF0
FFF0
C000
E000
6000
7000
3FE0
1FE0
ENDCHAR
STARTCHAR 00EB
ENCODING 235
SWIDTH 468 0
DWIDTH 13 0
BBX 12 18 1 0
BITMAP
19C0
19C0
1080
0000
0000
1F80
3FC0
70E0
6060
E060
FFF0
FFF0
C000
E000
6000
7000
3FE0
1FE0
ENDCHAR
STARTCHAR 00EC
ENCODING 236
SWIDTH 468 0
DWIDTH 13 0
BBX 11 19 1 0
BITMAP
1800
1800
0C00
0600
0000
0000
FE00
FE00
0E00
0E00
0E00
0E00
0E00
0E00
0E00
0E00
0E00
07E0
03E0
ENDCHAR
STARTCHAR 00ED
ENCODING 237
SWIDTH 468 0
DWIDTH 13 0
BBX 11 19 1 0
BITMAP
0200
0600
0C00
1800
0000
0000
FE00
FE00
0E00
0E00
0E00
0E00
0E00
0E00
0E00
0E00
0E00
07E0
03E0
ENDCHAR
STARTCHAR 00EE
ENCODING 238
SWIDTH 468 0
DWIDTH 13 0
BBX 11 19 1 0
BITMAP
0C00
1C00
1E00
3300
0000
0000
FE00
FE00
0E00
0E00
0E00
0E00
0E00
0E00
0E00
0E00
0E00
07E0
03E0
ENDCHAR
STARTCHAR 00EF
ENCODING 239
SWIDTH 468 0
DWIDTH 13 0
BBX 11 18 1 0
BITMAP
7380
7380
2100
0000
0000
FE00
FE00
0E00
0E00
0E00
0E00
0E00
0E00
0E00
0E00
0E00
07E0
03E0
ENDCHAR
STARTCHAR 00F0
ENCODING 240
SWIDTH 468 0
DWIDTH 13 0
BBX 11 19 2 0
BITMAP
0800
0E40
07E0
1F00
1F80
0180
0180
3FC0
7FC0
E1C0
C0C0
C0C0
C0C0
C0C0
C1C0
C180
E380
7F00
3E00
ENDCHAR
STARTCHAR 00F1
ENCODING 241
SWIDTH 468 0
DWIDTH 13 0
BBX 10 18 2 0
BITMAP
3980
7F00
0200
0000
0000
FF00
FF80
C1C0
C1C0
C0C0
C0C0
C0C0
C0C0
C0C0
C0C0
C0C0
C0C0
C0C0
ENDCHAR
STARTCHAR 00F2
ENCODING 242
SWIDTH 468 0
DWIDTH 13 0
BBX 12 19 1 0
BITMAP
0C00
0E00
0700
0300
0000
0000
1F80
3FC0
70E0
6060
E070
E070
C070
E070
E070
6060
70E0
3FC0
1F80
ENDCHAR
STARTCHAR 00F3
ENCODING 243
SWIDTH 468 0
DWIDTH 13 0
BBX 12 19 1 0
BITMAP
0100
0300
0600
0C00
0000
0000
1F80
3FC0
70E0
6060
E070
E070
C070
E070
E070
6060
70E0
3FC0
1F80
ENDCHAR
STARTCHAR 00F4
ENCODING 244
SWIDTH 468 0
DWIDTH 13 0
BBX 12 19 1 0
BITMAP
0400
0E00
1F00
1980
1000
0000
1F80
3FC0
70E0
6060
E070
E070
C070
E070
E070
6060
70E0
3FC0
1F80
ENDCHAR
STARTCHAR 00F5
ENCODING 245
SWIDTH 468 0
DWIDTH 13 0
BBX 12 18 1 0
BITMAP
1CC0
3F80
0100
0000
0000
1F80
3FC0
70E0
6060
E070
E070
C070
E070
E070
6060
70E0
3FC0
1F80
ENDCHAR
STARTCHAR 00F6
ENCODING 246
SWIDTH 468 0
DWIDTH 13 0
BBX 12 18 1 0
BITMAP
39C0
39C0
1080
0000
0000
1F80
3FC0
70E0
6060
E070
E070
C070
E070
E070
6060
70E0
3FC0
1F80
ENDCHAR
STARTCHAR 00F7
ENCODING 247
SWIDTH 468 0
DWIDTH 13 0
BBX 12 13 1 1
BITMAP
0400
0E00
0F00
0600
0000
0000
FFF0
FFF0
0000
0000
0E00
0F00
0600
ENDCHAR
STARTCHAR 00F8
ENCODING 248
SWIDTH 468 0
DWIDTH 13 0
BBX 12 15 1 -1
BITMAP
0020
1FE0
3FE0
70E0
61E0
E370
E370
C670
CC70
FC70
7860
70E0
7FC0
7F80
4000
ENDCHAR
STARTCHAR 00F9
ENCODING 249
SWIDTH 468 0
DWIDTH 13 0
BBX 10 19 2 0
BITMAP
1800
1800
0C00
0600
0000
0000
C0C0
C0C0
C0C0
C0C0
C0C0
C0C0
C0C0
C0C0
C0C0
E0C0
E0C0
7FC0
3FC0
ENDCHAR
STARTCHAR 00FA
ENCODING 250
SWIDTH 468 0
DWIDTH 13 0
BBX 10 19 2 0
BITMAP
0200
0600
0C00
1800
0000
0000
C0C0
C0C0
C0C0
C0C0
C0C0
C0C0
C0C0
C0C0
C0C0
E0C0
E0C0
7FC0
3FC0
ENDCHAR
STARTCHAR 00FB
ENCODING 251
SWIDTH 468 0
DWIDTH 13 0
BBX 10 19 2 0
BITMAP
0800
1C00
3E00
3300
2000
0000
C0C0
C0C0
C0C0
C0C0
C0C0
C0C0
C0C0
C0C0
C0C0
E0C0
E0C0
7FC0
3FC0
ENDCHAR
STARTCHAR 00FC
ENCODING 252
SWIDTH 468 0
DWIDTH 13 0
BBX 10 18 2 0
BITMAP
7380
7380
2100
0000
0000
C0C0
C0C0
C0C0
C0C0
C0C0
C0C0
C0C0
C0C0
C0C0
E0C0
E0C0
7FC0
3FC0
ENDCHAR
STARTCHAR 00FD
ENCODING 253
SWIDTH 468 0
DWIDTH 13 0
BBX 12 24 1 -5
BITMAP
0100
0380
0600
0C00
0000
0000
E070
6060
6060
7060
30E0
30C0
38C0
19C0
1D80
0D80
0F80
0700
0700
0600
0600
9C00
F800
7000
ENDCHAR
STARTCHAR 00FE
ENCODING 254
SWIDTH 468 0
DWIDTH 13 0
BBX 11 24 2 -5
BITMAP
C000
C000
C000
C000
C000
C000
FF00
FF80
E1C0
C0C0
C0E0
C0E0
C0E0
C0E0
C0E0
C0C0
E1C0
FF80
FF00
C000
C000
C000
C000
C000
ENDCHAR
STARTCHAR 00FF
ENCODING 255
SWIDTH 468 0
DWIDTH 13 0
BBX 12 23 1 -5
BITMAP
19C0
19C0
1880
0000
0000
E070
6060
6060
7060
30E0
30C0
38C0
19C0
1D80
0D80
0F80
0700
0700
0600
0600
9C00
F800
7000
ENDCHAR
STARTCHAR 0100
ENCODING 256
SWIDTH 468 0
DWIDTH 13 0
BBX 14 22 0 0
BITMAP
1FC0
1FC0
0000
0000
0000
0780
0780
0780
0CC0
0CC0
0CC0
18E0
1860
1860
3070
3030
3FF0
7FF0
6038
6018
6018
E01C
ENDCHAR
STARTCHAR 0101
ENCODING 257
SWIDTH 468 0
DWIDTH 13 0
BBX 10 18 2 0
BITMAP
3F80
3F80
0000
0000
0000
7F00
7F80
01C0
00C0
00C0
1FC0
7FC0
E0C0
C0C0
C0C0
C0C0
FFC0
7FC0
ENDCHAR
STARTCHAR 0102
ENCODING 258
SWIDTH 468 0
DWIDTH 13 0
BBX 14 22 0 0
BITMAP
08C0
0FC0
0780
0000
0000
0780
0780
0780
0CC0
0CC0
0CC0
18E0
1860
1860
3070
3030
3FF0
7FF0
6038
6018
6018
E01C
ENDCHAR
STARTCHAR 0103
ENCODING 259
SWIDTH 468 0
DWIDTH 13 0
BBX 10 19 2 0
BITMAP
2100
2300
3F00
1E00
0000
0000
7F00
7F80
01C0
00C0
00C0
1FC0
7FC0
E0C0
C0C0
C0C0
C0C0
FFC0
7FC0
ENDCHAR
STARTCHAR 0104
ENCODING 260
SWIDTH 468 0
DWIDTH 13 0
BBX 14 22 0 -5
BITMAP
0780
0780
0780
0CC0
0CC0
0CC0
18E0
1860
1860
3070
3030
3FF0
7FF0
6038
6018
6018
E018
0018
0030
0030
003C
0008
ENDCHAR
STARTCHAR 0105
ENCODING 261
SWIDTH 468 0
DWIDTH 13 0
BBX 10 18 2 -5
BITMAP
7F00
7F80
01C0
00C0
00C0
1FC0
7FC0
E0C0
C0C0
C0C0
C0C0
FFC0
7FC0
0180
0300
0300
03C0
0180
ENDCHAR
STARTCHAR 0106
ENCODING 262
SWIDTH 468 0
DWIDTH 13 0
BBX 12 23 1 0
BITMAP
0080
01C0
0380
0700
0200
0380
0FE0
1EE0
3800
7000
6000
6000
E000
E000
E000
E000
E000
6000
6000
7000
3800
1FF0
0FE0
ENDCHAR
STARTCHAR 0107
ENCODING 263
SWIDTH 468 0
DWIDTH 13 0
BBX 12 19 1 0
BITMAP
0080
0180
0300
0600
0000
0000
0FE0
3FE0
7800
7000
6000
E000
E000
E000
6000
7000
7800
3FE0
0FF0
ENDCHAR
STARTCHAR 0108
ENCODING 264
SWIDTH 468 0
DWIDTH 13 0
BBX 12 23 1 0
BITMAP
0100
0380
07C0
0CE0
0000
0380
0FE0
1EE0
3800
7000
6000
6000
E000
E000
E000
E000
E000
6000
6000
7000
3800
1FF0
0FE0
ENDCHAR
STARTCHAR 0109
ENCODING 265
SWIDTH 468 0
DWIDTH 13 0
BBX 12 19 1 0
BITMAP
0100
0380
07C0
0C60
0000
0000
0FE0
3FE0
7800
7000
6000
E000
E000
E000
6000
7000
7800
3FE0
0FF0
ENDCHAR
STARTCHAR 010A
ENCODING 266
SWIDTH 468 0
DWIDTH 13 0
BBX 12 22 1 0
BITMAP
0380
0380
0380
0000
0380
0FE0
1EE0
3800
7000
6000
6000
E000
E000
E000
E000
E000
6000
6000
7000
3800
1FF0
0FE0
ENDCHAR
STARTCHAR 010B
ENCODING 267
SWIDTH 468 0
DWIDTH 13 0
BBX 12 18 1 0
BITMAP
0380
0380
0380
0000
0000
0FE0
3FE0
7800
7000
6000
E000
E000
E000
6000
7000
7800
3FE0
0FF0
ENDCHAR
STARTCHAR 010C
ENCODING 268
SWIDTH 468 0
DWIDTH 13 0
BBX 12 23 1 0
BITMAP
0440
0EC0
0780
0380
0100
0380
0FE0
1EE0
3800
7000
6000
6000
E000
E000
E000
E000
E000
6000
6000
7000
3800
1FF0
0FE0
ENDCHAR
STARTCHAR 010D
ENCODING 269
SWIDTH 468 0
DWIDTH 13 0
BBX 12 19 1 0
BITMAP
0C40
06C0
0780
0300
0000
0000
0FE0
3FE0
7800
7000
6000
E000
E000
E000
6000
7000
7800
3FE0
0FF0
ENDCHAR
STARTCHAR 010E
ENCODING 270
SWIDTH 468 0
DWIDTH 13 0
BBX 12 23 1 0
BITMAP
2100
3300
1E00
0C00
0000
0000
FF00
FF80
E1C0
E0E0
E060
E060
E070
E070
E070
E070
E070
E060
E060
E0E0
E1C0
FF80
FF00
ENDCHAR
STARTCHAR 010F
ENCODING 271
SWIDTH 468 0
DWIDTH 13 0
BBX 13 19 1 0
BITMAP
0198
0198
0198
0190
0190
0180
3F80
7F80
E380
C180
C180
C180
C180
C180
C180
C180
E180
7F80
3F80
ENDCHAR
STARTCHAR 0110
ENCODING 272
SWIDTH 468 0
DWIDTH 13 0
BBX 13 17 0 0
BITMAP
3F80
3FE0
30E0
3070
3030
3030
3038
FE38
FE38
3038
3038
3030
3030
3070
30E0
3FC0
3F80
ENDCHAR
STARTCHAR 0111
ENCODING 273
SWIDTH 468 0
DWIDTH 13 0
BBX 12 19 1 0
BITMAP
00E0
00E0
1FF0
1FF0
00E0
00E0
1FE0
3FE0
70E0
60E0
E0E0
E0E0
C0E0
E0E0
E0E0
60E0
70E0
3FE0
1FE0
ENDCHAR
STARTCHAR 0112
ENCODING 274
SWIDTH 468 0
DWIDTH 13 0
BBX 10 22 3 0
BITMAP
7F00
7F00
0000
0000
0000
FF80
FF80
C000
C000
C000
C000
C000
FF00
FF00
C000
C000
C000
C000
C000
C000
FFC0
FFC0
ENDCHAR
STARTCHAR 0113
ENCODING 275
SWIDTH 468 0
DWIDTH 13 0
BBX 12 18 1 0
BITMAP
1FC0
1FC0
0000
0000
0000
1F80
3FC0
70E0
6060
E060
FFF0
FFF0
C000
E000
6000
7000
3FE0
1FE0
ENDCHAR
STARTCHAR 0114
ENCODING 276
SWIDTH 468 0
DWIDTH 13 0
BBX 10 22 3 0
BITMAP
6300
3E00
1C00
0000
0000
FF80
FF80
C000
C000
C000
C000
C000
FF00
FF00
C000
C000
C000
C000
C000
C000
FFC0
FFC0
ENDCHAR
STARTCHAR 0115
ENCODING 277
SWIDTH 468 0
DWIDTH 13 0
BBX 12 19 1 0
BITMAP
10C0
1880
1F80
0700
0000
0000
1F80
3FC0
70E0
6060
E060
FFF0
FFF0
C000
E000
6000
7000
3FE0
1FE0
ENDCHAR
STARTCHAR 0116
ENCODING 278
SWIDTH 468 0
DWIDTH 13 0
BBX 10 22 3 0
BITMAP
1C00
1C00
1C00
0000
0000
FF80
FF80
C000
C000
C000
C000
C000
FF00
FF00
C000
C000
C000
C000
C000
C000
FFC0
FFC0
ENDCHAR
STARTCHAR 0117
ENCODING 279
SWIDTH 468 0
DWIDTH 13 0
BBX 12 18 1 0
BITMAP
0700
0700
0600
0000
0000
1F80
3FC0
70E0
6060
E060
FFF0
FFF0
C000
E000
6000
7000
3FE0
1FE0
ENDCHAR
STARTCHAR 0118
ENCODING 280
SWIDTH 468 0
DWIDTH 13 0
BBX 10 22 3 -5
BITMAP
FF80
FF80
C000
C000
C000
C000
C000
FF00
FF00
C000
C000
C000
C000
C000
C000
FFC0
FFC0
0180
0300
0300
03C0
0080
ENDCHAR
STARTCHAR 0119
ENCODING 281
SWIDTH 468 0
DWIDTH 13 0
BBX 12 18 1 -5
BITMAP
1F80
3FC0
70E0
6060
E060
FFF0
FFF0
C000
E000
6000
7000
3FE0
1FE0
01C0
0180
0300
03C0
00C0
ENDCHAR
STARTCHAR 011A
ENCODING 282
SWIDTH 468 0
DWIDTH 13 0
BBX 10 23 3 0
BITMAP
2100
3700
1E00
0C00
0000
0000
FF80
FF80
C000
C000
C000
C000
C000
FF00
FF00
C000
C000
C000
C000
C000
C000
FFC0
FFC0
ENDCHAR
STARTCHAR 011B
ENCODING 283
SWIDTH 468 0
DWIDTH 13 0
BBX 12 19 1 0
BITMAP
1880
1D80
0F00
0600
0000
0000
1F80
3FC0
70E0
6060
E060
FFF0
FFF0
C000
E000
6000
7000
3FE0
1FE0
ENDCHAR
STARTCHAR 011C
ENCODING 284
SWIDTH 468 0
DWIDTH 13 0
BBX 12 23 1 0
BITMAP
0100
0380
07C0
0CC0
0040
0180
0FE0
1EE0
3800
7000
6000
6000
E000
E000
E000
E070
E070
6070
6070
7070
3870
1FF0
0FF0
ENDCHAR
STARTCHAR 011D
ENCODING 285
SWIDTH 468 0
DWIDTH 13 0
BBX 11 24 1 -5
BITMAP
0400
0E00
1F00
1980
1000
0000
1FE0
3FE0
7060
6060
E060
E060
C060
E060
E060
6060
7FE0
3FE0
0460
00E0
00E0
63C0
7F80
1C00
ENDCHAR
STARTCHAR 011E
ENCODING 286
SWIDTH 468 0
DWIDTH 13 0
BBX 12 22 1 0
BITMAP
0C60
07C0
0380
0000
0180
0FE0
1EE0
3800
7000
6000
6000
E000
E000
E000
E070
E070
6070
6070
7070
3870
1FF0
0FF0
ENDCHAR
STARTCHAR 011F
ENCODING 287
SWIDTH 468 0
DWIDTH 13 0
BBX 11 24 1 -5
BITMAP
1080
1180
1F80
0F00
0000
0000
1FE0
3FE0
7060
6060
E060
E060
C060
E060
E060
6060
7FE0
3FE0
0460
00E0
00E0
63C0
7F80
1C00
ENDCHAR
STARTCHAR 0120
ENCODING 288
SWIDTH 468 0
DWIDTH 13 0
BBX 12 22 1 0
BITMAP
0380
0380
0300
0000
0180
0FE0
1EE0
3800
7000
6000
6000
E000
E000
E000
E070
E070
6070
6070
7070
3870
1FF0
0FF0
ENDCHAR
STARTCHAR 0121
ENCODING 289
SWIDTH 468 0
DWIDTH 13 0
BBX 11 23 1 -5
BITMAP
0E00
0F00
0600
0000
0000
1FE0
3FE0
7060
6060
E060
E060
C060
E060
E060
6060
7FE0
3FE0
0460
00E0
00E0
63C0
7F80
1C00
ENDCHAR
STARTCHAR 0122
ENCODING 290
SWIDTH 468 0
DWIDTH 13 0
BBX 12 23 1 -5
BITMAP
0180
0FE0
1EE0
3800
7000
6000
6000
E000
E000
E000
E070
E070
6070
6070
7070
3870
1FF0
0FF0
0000
0300
0300
0F00
0E00
ENDCHAR
STARTCHAR 0123
ENCODING 291
SWIDTH 468 0
DWIDTH 13 0
BBX 11 24 1 -5
BITMAP
0300
0700
0600
0600
0000
0000
1FE0
3FE0
7060
6060
E060
E060
C060
E060
E060
6060
7FE0
3FE0
0460
00E0
00E0
63C0
7F80
1C00
ENDCHAR
STARTCHAR 0124
ENCODING 292
SWIDTH 468 0
DWIDTH 13 0
BBX 12 22 1 1
BITMAP
0600
0F00
1980
1080
0000
E070
E070
E070
E070
E070
E070
E070
FFF0
FFF0
E070
E070
E070
E070
E070
E070
E070
E070
ENDCHAR
STARTCHAR 0125
ENCODING 293
SWIDTH 468 0
DWIDTH 13 0
BBX 11 23 1 0
BITMAP
1000
7800
CC00
0000
6000
6000
6000
6000
6000
6000
7F80
7FC0
60C0
60E0
6060
6060
6060
6060
6060
6060
6060
6060
6060
ENDCHAR
STARTCHAR 0126
ENCODING 294
SWIDTH 468 0
DWIDTH 13 0
BBX 13 17 0 0
BITMAP
3030
3030
FFF8
FFF8
3030
3030
3030
3FF0
3FF0
3030
3030
3030
3030
3030
3030
3030
3030
ENDCHAR
STARTCHAR 0127
ENCODING 295
SWIDTH 468 0
DWIDTH 13 0
BBX 11 19 1 0
BITMAP
7000
7000
FF00
FF00
7000
7000
7F80
7FC0
70C0
70E0
7060
7060
7060
7060
7060
7060
7060
7060
7060
ENDCHAR
STARTCHAR 0128
ENCODING 296
SWIDTH 468 0
DWIDTH 13 0
BBX 9 22 2 0
BITMAP
3980
7F00
2600
0000
0000
FF80
FF80
0C00
0C00
0C00
0C00
0C00
0C00
0C00
0C00
0C00
0C00
0C00
0C00
0C00
FF80
FF80
ENDCHAR
STARTCHAR 0129
ENCODING 297
SWIDTH 468 0
DWIDTH 13 0
BBX 11 18 1 0
BITMAP
3980
7F00
0200
0000
0000
FE00
FE00
0E00
0E00
0E00
0E00
0E00
0E00
0E00
0E00
0E00
07E0
03E0
ENDCHAR
STARTCHAR 012A
ENCODING 298
SWIDTH 468 0
DWIDTH 13 0
BBX 9 22 2 0
BITMAP
7F00
7F00
0000
0000
0000
FF80
FF80
0C00
0C00
0C00
0C00
0C00
0C00
0C00
0C00
0C00
0C00
0C00
0C00
0C00
FF80
FF80
ENDCHAR
STARTCHAR 012B
ENCODING 299
SWIDTH 468 0
DWIDTH 13 0
BBX 11 18 1 0
BITMAP
7F80
7F80
0000
0000
0000
FE00
FE00
0E00
0E00
0E00
0E00
0E00
0E00
0E00
0E00
0E00
07E0
03E0
ENDCHAR
STARTCHAR 012C
ENCODING 300
SWIDTH 468 0
DWIDTH 13 0
BBX 9 22 2 0
BITMAP
2300
3F00
1E00
0000
0000
FF80
FF80
0C00
0C00
0C00
0C00
0C00
0C00
0C00
0C00
0C00
0C00
0C00
0C00
0C00
FF80
FF80
ENDCHAR
STARTCHAR 012D
ENCODING 301
SWIDTH 468 0
DWIDTH 13 0
BBX 11 19 1 0
BITMAP
2100
3300
3F00
1E00
0000
0000
FE00
FE00
0E00
0E00
0E00
0E00
0E00
0E00
0E00
0E00
0E00
07E0
03E0
ENDCHAR
STARTCHAR 012E
ENCODING 302
SWIDTH 468 0
DWIDTH 13 0
BBX 9 22 2 -5
BITMAP
FF80
FF80
0C00
0C00
0C00
0C00
0C00
0C00
0C00
0C00
0C00
0C00
0C00
0C00
0C00
FF80
FF80
1C00
3800
3000
3C00
1C00
ENDCHAR
STARTCHAR 012F
ENCODING 303
SWIDTH 468 0
DWIDTH 13 0
BBX 11 24 1 -5
BITMAP
0800
1C00
1E00
1C00
0000
0000
FE00
FE00
0E00
0E00
0E00
0E00
0E00
0E00
0E00
0E00
0E00
07E0
03E0
00C0
0180
0180
01E0
00C0
ENDCHAR
STARTCHAR 0130
ENCODING 304
SWIDTH 468 0
DWIDTH 13 0
BBX 9 22 2 0
BITMAP
1C00
1E00
0C00
0000
0000
FF80
FF80
0C00
0C00
0C00
0C00
0C00
0C00
0C00
0C00
0C00
0C00
0C00
0C00
0C00
FF80
FF80
ENDCHAR
STARTCHAR 0131
ENCODING 305
SWIDTH 468 0
DWIDTH 13 0
BBX 11 13 1 0
BITMAP
FE00
FE00
0E00
0E00
0E00
0E00
0E00
0E00
0E00
0E00
0E00
07E0
03E0
ENDCHAR
STARTCHAR 0132
ENCODING 306
SWIDTH 468 0
DWIDTH 13 0
BBX 12 17 1 0
BITMAP
C030
C030
C030
C030
C030
C030
C030
C030
C030
C030
C030
C030
C030
C030
C070
CFE0
C7E0
ENDCHAR
STARTCHAR 0133
ENCODING 307
SWIDTH 468 0
DWIDTH 13 0
BBX 9 23 2 -5
BITMAP
7380
F380
6180
0000
0000
6180
6180
6180
6180
6180
6180
6180
6180
6180
6180
6180
6180
6180
0180
0380
0700
1F00
1800
ENDCHAR
STARTCHAR 0134
ENCODING 308
SWIDTH 468 0
DWIDTH 13 0
BBX 10 23 2 0
BITMAP
0200
0700
0F80
19C0
0000
0000
3FC0
3FC0
01C0
01C0
01C0
01C0
01C0
01C0
01C0
01C0
01C0
01C0
01C0
0180
8380
FF80
FF00
ENDCHAR
STARTCHAR 0135
ENCODING 309
SWIDTH 468 0
DWIDTH 13 0
BBX 9 24 2 -5
BITMAP
0400
0E00
1B00
3180
0000
0000
7F80
7F80
0380
0380
0380
0380
0380
0380
0380
0380
0380
0380
0380
0380
0300
E700
FE00
3C00
ENDCHAR
STARTCHAR 0136
ENCODING 310
SWIDTH 468 0
DWIDTH 13 0
BBX 11 22 2 -5
BITMAP
C0E0
C1C0
C380
C300
C700
CE00
DC00
F800
F800
DC00
CE00
C700
C380
C1C0
C0C0
C0E0
C060
0000
0C00
0C00
3C00
3800
ENDCHAR
STARTCHAR 0137
ENCODING 311
SWIDTH 468 0
DWIDTH 13 0
BBX 11 24 2 -5
BITMAP
C000
C000
C000
C000
C000
C000
C0C0
C1C0
C300
C600
DC00
F800
F800
DC00
CF00
C380
C180
C1C0
C0E0
0000
0C00
0C00
3C00
3800
ENDCHAR
STARTCHAR 0138
ENCODING 312
SWIDTH 468 0
DWIDTH 13 0
BBX 11 13 2 0
BITMAP
C0C0
C1C0
C300
C600
DC00
F800
F800
DC00
CF00
C380
C180
C1C0
C0E0
ENDCHAR
STARTCHAR 0139
ENCODING 313
SWIDTH 468 0
DWIDTH 13 0
BBX 10 23 3 0
BITMAP
1000
3800
7000
E000
0000
0000
C000
C000
C000
C000
C000
C000
C000
C000
C000
C000
C000
C000
C000
C000
C000
FFC0
FFC0
ENDCHAR
STARTCHAR 013A
ENCODING 314
SWIDTH 468 0
DWIDTH 13 0
BBX 11 23 1 0
BITMAP
0300
0F00
0C00
0000
FE00
FE00
0E00
0E00
0E00
0E00
0E00
0E00
0E00
0E00
0E00
0E00
0E00
0E00
0E00
0E00
0E00
07E0
03E0
ENDCHAR
STARTCHAR 013B
ENCODING 315
SWIDTH 468 0
DWIDTH 13 0
BBX 10 22 3 -5
BITMAP
C000
C000
C000
C000
C000
C000
C000
C000
C000
C000
C000
C000
C000
C000
C000
FFC0
FFC0
0000
0C00
1C00
3C00
3000
ENDCHAR
STARTCHAR 013C
ENCODING 316
SWIDTH 468 0
DWIDTH 13 0
BBX 11 24 1 -5
BITMAP
FE00
FE00
0E00
0E00
0E00
0E00
0E00
0E00
0E00
0E00
0E00
0E00
0E00
0E00
0E00
0E00
0E00
07E0
03E0
0000
0180
0180
0780
0700
ENDCHAR
STARTCHAR 013D
ENCODING 317
SWIDTH 468 0
DWIDTH 13 0
BBX 10 17 3 0
BITMAP
CC00
CC00
CC00
CC00
CC00
C000
C000
C000
C000
C000
C000
C000
C000
C000
C000
FFC0
FFC0
ENDCHAR
STARTCHAR 013E
ENCODING 318
SWIDTH 468 0
DWIDTH 13 0
BBX 11 19 1 0
BITMAP
FEE0
FEC0
0EC0
0EC0
0EC0
0E00
0E00
0E00
0E00
0E00
0E00
0E00
0E00
0E00
0E00
0E00
0E00
07E0
03E0
ENDCHAR
STARTCHAR 013F
ENCODING 319
SWIDTH 468 0
DWIDTH 13 0
BBX 10 17 3 0
BITMAP
C000
C000
C000
C000
C000
C000
C100
C780
C780
C100
C000
C000
C000
C000
C000
FFC0
FFC0
ENDCHAR
STARTCHAR 0140
ENCODING 320
SWIDTH 468 0
DWIDTH 13 0
BBX 14 19 1 0
BITMAP
FE00
FE00
0E00
0E00
0E00
0E00
0E00
0E00
0E18
0E1C
0E1C
0E08
0E00
0E00
0E00
0E00
0E00
07E0
03E0
ENDCHAR
STARTCHAR 0141
ENCODING 321
SWIDTH 468 0
DWIDTH 13 0
BBX 12 17 1 0
BITMAP
3000
3000
3000
3000
3000
3100
3700
3E00
7800
F000
B000
3000
3000
3000
3000
3FF0
3FF0
ENDCHAR
STARTCHAR 0142
ENCODING 322
SWIDTH 468 0
DWIDTH 13 0
BBX 11 19 1 0
BITMAP
FE00
FE00
0E00
0E00
0E00
0E00
0E80
0F80
0F00
3E00
3E00
0E00
0E00
0E00
0E00
0E00
0E00
07E0
03E0
ENDCHAR
STARTCHAR 0143
ENCODING 323
SWIDTH 468 0
DWIDTH 13 0
BBX 10 23 2 0
BITMAP
0200
0700
0E00
1800
0000
0000
C0C0
E0C0
E0C0
F0C0
F0C0
D8C0
D8C0
CCC0
CCC0
C6C0
C6C0
C3C0
C3C0
C1C0
C1C0
C1C0
C0C0
ENDCHAR
STARTCHAR 0144
ENCODING 324
SWIDTH 468 0
DWIDTH 13 0
BBX 10 19 2 0
BITMAP
0200
0600
0C00
1800
0000
0000
FF00
FF80
C1C0
C1C0
C0C0
C0C0
C0C0
C0C0
C0C0
C0C0
C0C0
C0C0
C0C0
ENDCHAR
STARTCHAR 0145
ENCODING 325
SWIDTH 468 0
DWIDTH 13 0
BBX 10 22 2 -5
BITMAP
C0C0
E0C0
E0C0
F0C0
F0C0
D8C0
D8C0
CCC0
CCC0
C6C0
C6C0
C3C0
C3C0
C1C0
C1C0
C1C0
C0C0
0000
0E00
0E00
1C00
1800
ENDCHAR
STARTCHAR 0146
ENCODING 326
SWIDTH 468 0
DWIDTH 13 0
BBX 10 18 2 -5
BITMAP
FF00
FF80
C1C0
C1C0
C0C0
C0C0
C0C0
C0C0
C0C0
C0C0
C0C0
C0C0
C0C0
0000
0C00
0C00
3C00
3800
ENDCHAR
STARTCHAR 0147
ENCODING 327
SWIDTH 468 0
DWIDTH 13 0
BBX 10 23 2 0
BITMAP
2100
3300
1E00
0C00
0000
0000
C0C0
E0C0
E0C0
F0C0
F0C0
D8C0
D8C0
CCC0
CCC0
C6C0
C6C0
C3C0
C3C0
C1C0
C1C0
C1C0
C0C0
ENDCHAR
STARTCHAR 0148
ENCODING 328
SWIDTH 468 0
DWIDTH 13 0
BBX 10 19 2 0
BITMAP
2100
3700
1E00
0C00
0000
0000
FF00
FF80
C1C0
C1C0
C0C0
C0C0
C0C0
C0C0
C0C0
C0C0
C0C0
C0C0
C0C0
ENDCHAR
STARTCHAR 0149
ENCODING 329
SWIDTH 468 0
DWIDTH 13 0
BBX 11 19 1 0
BITMAP
C000
C000
C000
C000
8000
0000
7F80
7FC0
60E0
60E0
6060
6060
6060
6060
6060
6060
6060
6060
6060
ENDCHAR
STARTCHAR 014A
ENCODING 330
SWIDTH 468 0
DWIDTH 13 0
BBX 10 22 2 -5
BITMAP
C0C0
E0C0
E0C0
F0C0
F0C0
D8C0
D8C0
CCC0
CCC0
C6C0
C6C0
C3C0
C3C0
C1C0
C1C0
C0C0
C0C0
00C0
00C0
00C0
03C0
0300
ENDCHAR
STARTCHAR 014B
ENCODING 331
SWIDTH 468 0
DWIDTH 13 0
BBX 10 18 2 -5
BITMAP
FF00
FF80
C1C0
C1C0
C0C0
C0C0
C0C0
C0C0
C0C0
C0C0
C0C0
C0C0
C0C0
00C0
00C0
01C0
0780
0600
ENDCHAR
STARTCHAR 014C
ENCODING 332
SWIDTH 468 0
DWIDTH 13 0
BBX 12 22 1 0
BITMAP
3F80
3F80
0000
0000
0600
1F80
3FC0
70E0
6060
E070
C030
C030
C030
C030
C030
C030
C070
E070
6060
70E0
3FC0
1F80
ENDCHAR
STARTCHAR 014D
ENCODING 333
SWIDTH 468 0
DWIDTH 13 0
BBX 12 18 1 0
BITMAP
3F80
3F80
0000
0000
0000
1F80
3FC0
70E0
6060
E070
E070
C070
E070
E070
6060
70E0
3FC0
1F80
ENDCHAR
STARTCHAR 014E
ENCODING 334
SWIDTH 468 0
DWIDTH 13 0
BBX 12 22 1 0
BITMAP
1180
1F80
0F00
0000
0600
1F80
3FC0
70E0
6060
E070
C030
C030
C030
C030
C030
C030
C070
E070
6060
70E0
3FC0
1F80
ENDCHAR
STARTCHAR 014F
ENCODING 335
SWIDTH 468 0
DWIDTH 13 0
BBX 12 19 1 0
BITMAP
1080
1180
1F80
0F00
0000
0000
1F80
3FC0
70E0
6060
E070
E070
C070
E070
E070
6060
70E0
3FC0
1F80
ENDCHAR
STARTCHAR 0150
ENCODING 336
SWIDTH 468 0
DWIDTH 13 0
BBX 12 23 1 0
BITMAP
0440
0660
0CC0
1980
0000
0600
1F80
3FC0
70E0
6060
E070
C030
C030
C030
C030
C030
C030
C070
E070
6060
70E0
3FC0
1F80
ENDCHAR
STARTCHAR 0151
ENCODING 337
SWIDTH 468 0
DWIDTH 13 0
BBX 12 19 1 0
BITMAP
0440
0EE0
0CC0
1980
0000
0000
1F80
3FC0
70E0
6060
E070
E070
C070
E070
E070
6060
70E0
3FC0
1F80
ENDCHAR
STARTCHAR 0152
ENCODING 338
SWIDTH 468 0
DWIDTH 13 0
BBX 12 17 1 0
BITMAP
3FF0
7FF0
6300
E300
C300
C300
C300
C3E0
C3E0
C300
C300
C300
C300
E300
6300
7FF0
1FF0
ENDCHAR
STARTCHAR 0153
ENCODING 339
SWIDTH 468 0
DWIDTH 13 0
BBX 12 13 1 0
BITMAP
39E0
7DE0
EF30
C730
C630
C7F0
C7F0
C600
C600
C700
E700
7DF0
39F0
ENDCHAR
STARTCHAR 0154
ENCODING 340
SWIDTH 468 0
DWIDTH 13 0
BBX 11 23 2 0
BITMAP
0400
0600
0C00
1800
0000
0000
FF00
FF80
C180
C1C0
C0C0
C0C0
C1C0
C180
FF80
FE00
C600
C300
C380
C180
C1C0
C0C0
C0E0
ENDCHAR
STARTCHAR 0155
ENCODING 341
SWIDTH 468 0
DWIDTH 13 0
BBX 9 19 3 0
BITMAP
0200
0600
0C00
1800
0000
0000
7F80
FF80
C000
C000
C000
C000
C000
C000
C000
C000
C000
C000
C000
ENDCHAR
STARTCHAR 0156
ENCODING 342
SWIDTH 468 0
DWIDTH 13 0
BBX 11 22 2 -5
BITMAP
FF00
FF80
C180
C1C0
C0C0
C0C0
C1C0
C180
FF80
FE00
C600
C300
C380
C180
C1C0
C0C0
C0E0
0000
0C00
1C00
3C00
3000
ENDCHAR
STARTCHAR 0157
ENCODING 343
SWIDTH 468 0
DWIDTH 13 0
BBX 11 18 1 -5
BITMAP
1FE0
3FE0
3000
3000
3000
3000
3000
3000
3000
3000
3000
3000
3000
0000
3000
3000
F000
E000
ENDCHAR
STARTCHAR 0158
ENCODING 344
SWIDTH 468 0
DWIDTH 13 0
BBX 11 23 2 0
BITMAP
4200
7600
3C00
1800
0000
0000
FF00
FF80
C180
C1C0
C0C0
C0C0
C1C0
C180
FF80
FE00
C600
C300
C380
C180
C1C0
C0C0
C0E0
ENDCHAR
STARTCHAR 0159
ENCODING 345
SWIDTH 468 0
DWIDTH 13 0
BBX 9 19 3 0
BITMAP
2100
3700
1E00
0C00
0000
0000
7F80
FF80
C000
C000
C000
C000
C000
C000
C000
C000
C000
C000
C000
ENDCHAR
STARTCHAR 015A
ENCODING 346
SWIDTH 468 0
DWIDTH 13 0
BBX 10 23 2 0
BITMAP
0200
0700
0E00
1C00
0800
0600
3FC0
7B80
E000
C000
C000
E000
7000
7C00
1F00
0780
01C0
00C0
00C0
00C0
81C0
FFC0
FF00
ENDCHAR
STARTCHAR 015B
ENCODING 347
SWIDTH 468 0
DWIDTH 13 0
BBX 10 19 2 0
BITMAP
0200
0600
0C00
1800
0000
0000
3F80
7F80
E000
C000
E000
7800
3F00
0780
01C0
00C0
80C0
FFC0
FF00
ENDCHAR
STARTCHAR 015C
ENCODING 348
SWIDTH 468 0
DWIDTH 13 0
BBX 10 23 2 0
BITMAP
0400
0E00
1F00
3300
0100
0600
3FC0
7B80
E000
C000
C000
E000
7000
7C00
1F00
0780
01C0
00C0
00C0
00C0
81C0
FFC0
FF00
ENDCHAR
STARTCHAR 015D
ENCODING 349
SWIDTH 468 0
DWIDTH 13 0
BBX 10 19 2 0
BITMAP
0400
0E00
1F00
3380
0000
0000
3F80
7F80
E000
C000
E000
7800
3F00
0780
01C0
00C0
80C0
FFC0
FF00
ENDCHAR
STARTCHAR 015E
ENCODING 350
SWIDTH 468 0
DWIDTH 13 0
BBX 10 23 2 -5
BITMAP
0600
3FC0
7B80
E000
C000
C000
E000
7000
7C00
1F00
0780
01C0
00C0
00C0
00C0
81C0
FFC0
FF00
0C00
1C00
0600
3E00
1800
ENDCHAR
STARTCHAR 015F
ENCODING 351
SWIDTH 468 0
DWIDTH 13 0
BBX 10 18 2 -5
BITMAP
3F80
7F80
E000
C000
E000
7800
3F00
0780
01C0
00C0
80C0
FFC0
FF00
0C00
1C00
0600
3E00
1800
ENDCHAR
STARTCHAR 0160
ENCODING 352
SWIDTH 468 0
DWIDTH 13 0
BBX 10 23 2 0
BITMAP
1100
3B00
1E00
0E00
0400
0600
3FC0
7B80
E000
C000
C000
E000
7000
7C00
1F00
0780
01C0
00C0
00C0
00C0
81C0
FFC0
FF00
ENDCHAR
STARTCHAR 0161
ENCODING 353
SWIDTH 468 0
DWIDTH 13 0
BBX 10 19 2 0
BITMAP
3100
3B00
1E00
0C00
0000
0000
3F80
7F80
E000
C000
E000
7800
3F00
0780
01C0
00C0
80C0
FFC0
FF00
ENDCHAR
STARTCHAR 0162
ENCODING 354
SWIDTH 468 0
DWIDTH 13 0
BBX 12 22 1 -5
BITMAP
FFF0
FFF0
0600
0600
0600
0600
0600
0600
0600
0600
0600
0600
0600
0600
0600
0600
0600
0600
0E00
0300
1F00
0C00
ENDCHAR
STARTCHAR 0163
ENCODING 355
SWIDTH 468 0
DWIDTH 13 0
BBX 10 22 2 -5
BITMAP
3800
3800
3800
3800
FFC0
FFC0
3800
3800
3800
3800
3800
3800
3800
1800
1800
1FC0
0FC0
0200
0700
0300
0F00
0E00
ENDCHAR
STARTCHAR 0164
ENCODING 356
SWIDTH 468 0
DWIDTH 13 0
BBX 12 23 1 0
BITMAP
1080
1980
0F00
0600
0000
0000
FFF0
FFF0
0600
0600
0600
0600
0600
0600
0600
0600
0600
0600
0600
0600
0600
0600
0600
ENDCHAR
STARTCHAR 0165
ENCODING 357
SWIDTH 468 0
DWIDTH 13 0
BBX 10 19 2 0
BITMAP
0180
0180
3980
3900
3900
3800
FFC0
FFC0
3800
3800
3800
3800
3800
3800
3800
1800
1800
1FC0
0FC0
ENDCHAR
STARTCHAR 0166
ENCODING 358
SWIDTH 468 0
DWIDTH 13 0
BBX 12 17 1 0
BITMAP
FFF0
FFF0
0600
0600
0600
0600
0600
7FC0
7FC0
0600
0600
0600
0600
0600
0600
0600
0600
ENDCHAR
STARTCHAR 0167
ENCODING 359
SWIDTH 468 0
DWIDTH 13 0
BBX 10 17 2 0
BITMAP
3800
3800
3800
3800
FFC0
FFC0
3800
3800
3800
FFC0
FFC0
3800
3800
1800
1800
1FC0
0FC0
ENDCHAR
STARTCHAR 0168
ENCODING 360
SWIDTH 468 0
DWIDTH 13 0
BBX 12 22 1 0
BITMAP
1CC0
3F80
1300
0000
0000
E070
E070
E070
E070
E070
E070
E070
E070
E070
E070
E070
E070
E060
6060
70E0
7FC0
1F80
ENDCHAR
STARTCHAR 0169
ENCODING 361
SWIDTH 468 0
DWIDTH 13 0
BBX 10 18 2 0
BITMAP
3980
7F00
0200
0000
0000
C0C0
C0C0
C0C0
C0C0
C0C0
C0C0
C0C0
C0C0
C0C0
E0C0
E0C0
7FC0
3FC0
ENDCHAR
STARTCHAR 016A
ENCODING 362
SWIDTH 468 0
DWIDTH 13 0
BBX 12 22 1 0
BITMAP
3F80
3F80
0000
0000
0000
E070
E070
E070
E070
E070
E070
E070
E070
E070
E070
E070
E070
E060
6060
70E0
7FC0
1F80
ENDCHAR
STARTCHAR 016B
ENCODING 363
SWIDTH 468 0
DWIDTH 13 0
BBX 10 18 2 0
BITMAP
7F00
7F00
0000
0000
0000
C0C0
C0C0
C0C0
C0C0
C0C0
C0C0
C0C0
C0C0
C0C0
E0C0
E0C0
7FC0
3FC0
ENDCHAR
STARTCHAR 016C
ENCODING 364
SWIDTH 468 0
DWIDTH 13 0
BBX 12 22 1 0
BITMAP
1180
1F80
0F00
0000
0000
E070
E070
E070
E070
E070
E070
E070
E070
E070
E070
E070
E070
E060
6060
70E0
7FC0
1F80
ENDCHAR
STARTCHAR 016D
ENCODING 365
SWIDTH 468 0
DWIDTH 13 0
BBX 10 19 2 0
BITMAP
2100
2300
3F00
1E00
0000
0000
C0C0
C0C0
C0C0
C0C0
C0C0
C0C0
C0C0
C0C0
C0C0
E0C0
E0C0
7FC0
3FC0
ENDCHAR
STARTCHAR 016E
ENCODING 366
SWIDTH 468 0
DWIDTH 13 0
BBX 12 23 1 0
BITMAP
0F00
0900
1980
0900
0F00
0000
E070
E070
E070
E070
E070
E070
E070
E070
E070
E070
E070
E070
E060
6060
70E0
7FC0
1F80
ENDCHAR
STARTCHAR 016F
ENCODING 367
SWIDTH 468 0
DWIDTH 13 0
BBX 10 19 2 0
BITMAP
1E00
3200
3200
1E00
0C00
0000
C0C0
C0C0
C0C0
C0C0
C0C0
C0C0
C0C0
C0C0
C0C0
E0C0
E0C0
7FC0
3FC0
ENDCHAR
STARTCHAR 0170
ENCODING 368
SWIDTH 468 0
DWIDTH 13 0
BBX 12 23 1 0
BITMAP
0440
0EE0
0CC0
1980
1100
0000
E070
E070
E070
E070
E070
E070
E070
E070
E070
E070
E070
E070
E060
6060
70E0
7FC0
1F80
ENDCHAR
STARTCHAR 0171
ENCODING 369
SWIDTH 468 0
DWIDTH 13 0
BBX 10 19 2 0
BITMAP
0880
19C0
3B80
3300
0000
0000
C0C0
C0C0
C0C0
C0C0
C0C0
C0C0
C0C0
C0C0
C0C0
E0C0
E0C0
7FC0
3FC0
ENDCHAR
STARTCHAR 0172
ENCODING 370
SWIDTH 468 0
DWIDTH 13 0
BBX 12 22 1 -5
BITMAP
E070
E070
E070
E070
E070
E070
E070
E070
E070
E070
E070
E070
E060
6060
70E0
7FC0
3F80
0700
0600
0600
0780
0300
ENDCHAR
STARTCHAR 0173
ENCODING 371
SWIDTH 468 0
DWIDTH 13 0
BBX 10 18 2 -5
BITMAP
C0C0
C0C0
C0C0
C0C0
C0C0
C0C0
C0C0
C0C0
C0C0
E0C0
E0C0
7FC0
3FC0
0180
0300
0300
03C0
01C0
ENDCHAR
STARTCHAR 0174
ENCODING 372
SWIDTH 468 0
DWIDTH 13 0
BBX 12 22 1 1
BITMAP
0600
0F00
1980
1080
0000
C030
C030
C030
C030
C030
C030
C630
C630
CF30
CF20
C920
59A0
59E0
50E0
70E0
70E0
60E0
ENDCHAR
STARTCHAR 0175
ENCODING 373
SWIDTH 468 0
DWIDTH 13 0
BBX 12 19 1 0
BITMAP
0400
0E00
1F00
1980
1000
0000
C030
C030
C030
C630
C630
CF30
CF30
EB60
79E0
79E0
71E0
70E0
70C0
ENDCHAR
STARTCHAR 0176
ENCODING 374
SWIDTH 468 0
DWIDTH 13 0
BBX 12 22 1 1
BITMAP
0600
0F00
1980
1080
0000
C030
E070
E060
6060
70C0
30C0
3980
1980
0F00
0F00
0600
0600
0600
0600
0600
0600
0600
ENDCHAR
STARTCHAR 0177
ENCODING 375
SWIDTH 468 0
DWIDTH 13 0
BBX 12 24 1 -5
BITMAP
0400
0E00
1F00
1980
1000
0000
E070
6060
6060
7060
30E0
30C0
38C0
19C0
1D80
0D80
0F80
0700
0700
0600
0600
9C00
F800
7000
ENDCHAR
STARTCHAR 0178
ENCODING 376
SWIDTH 468 0
DWIDTH 13 0
BBX 12 22 1 0
BITMAP
1980
39C0
1980
0000
0000
C030
E070
E060
6060
70C0
30C0
3980
1980
0F00
0F00
0600
0600
0600
0600
0600
0600
0600
ENDCHAR
STARTCHAR 0179
ENCODING 377
SWIDTH 468 0
DWIDTH 13 0
BBX 12 23 1 0
BITMAP
0100
0380
0700
0C00
0000
0000
7FE0
7FE0
00E0
00C0
0180
0380
0300
0700
0E00
0C00
1C00
1800
3800
7000
6000
FFF0
FFF0
ENDCHAR
STARTCHAR 017A
ENCODING 378
SWIDTH 468 0
DWIDTH 13 0
BBX 10 19 2 0
BITMAP
0200
0600
0C00
1800
0000
0000
FFC0
FFC0
0380
0300
0600
0E00
1C00
1800
3000
7000
6000
FFC0
FFC0
ENDCHAR
STARTCHAR 017B
ENCODING 379
SWIDTH 468 0
DWIDTH 13 0
BBX 12 22 1 0
BITMAP
0E00
0F00
0600
0000
0000
7FE0
7FE0
00E0
00C0
0180
0380
0300
0700
0E00
0C00
1C00
1800
3800
7000
6000
FFF0
FFF0
ENDCHAR
STARTCHAR 017C
ENCODING 380
SWIDTH 468 0
DWIDTH 13 0
BBX 10 18 2 0
BITMAP
1C00
1E00
0C00
0000
0000
FFC0
FFC0
0380
0300
0600
0E00
1C00
1800
3000
7000
6000
FFC0
FFC0
ENDCHAR
STARTCHAR 017D
ENCODING 381
SWIDTH 468 0
DWIDTH 13 0
BBX 12 23 1 0
BITMAP
1080
1980
0F00
0600
0000
0000
7FE0
7FE0
00E0
00C0
0180
0380
0300
0700
0E00
0C00
1C00
1800
3800
7000
6000
FFF0
FFF0
ENDCHAR
STARTCHAR 017E
ENCODING 382
SWIDTH 468 0
DWIDTH 13 0
BBX 10 19 2 0
BITMAP
2100
3700
1E00
0C00
0000
0000
FFC0
FFC0
0380
0300
0600
0E00
1C00
1800
3000
7000
6000
FFC0
FFC0
ENDCHAR
STARTCHAR 017F
ENCODING 383
SWIDTH 468 0
DWIDTH 13 0
BBX 9 19 4 0
BITMAP
3F80
7F80
7000
6000
E000
E000
E000
E000
E000
E000
E000
E000
E000
E000
E000
E000
E000
E000
E000
ENDCHAR
STARTCHAR 0180
ENCODING 384
SWIDTH 468 0
DWIDTH 13 0
BBX 12 19 1 0
BITMAP
7000
7000
FF00
FF00
7000
7000
7F80
7FC0
70E0
7060
7070
7070
7070
7070
7070
7060
70E0
7FC0
7F80
ENDCHAR
STARTCHAR 0181
ENCODING 385
SWIDTH 468 0
DWIDTH 13 0
BBX 13 17 0 0
BITMAP
3FE0
7FF0
6E30
CE38
6E38
0E30
0E70
0FE0
0FF0
0E38
0E18
0E18
0E18
0E18
0E38
0FF0
0FE0
ENDCHAR
STARTCHAR 0182
ENCODING 386
SWIDTH 468 0
DWIDTH 13 0
BBX 12 17 1 0
BITMAP
FFC0
FFC0
E000
E000
E000
E000
FC00
FFC0
E1E0
E060
E060
E070
E060
E060
E0E0
FFC0
FF00
ENDCHAR
STARTCHAR 0183
ENCODING 387
SWIDTH 468 0
DWIDTH 13 0
BBX 11 19 2 0
BITMAP
FF80
FF80
C000
C000
C000
C000
FF00
FF80
E1C0
C0C0
C0E0
C0E0
C0E0
C0E0
C0E0
C0C0
C1C0
FF80
FF00
ENDCHAR
STARTCHAR 0184
ENCODING 388
SWIDTH 468 0
DWIDTH 13 0
BBX 13 19 0 0
BITMAP
3000
F000
7000
3000
3000
3000
3FC0
3FE0
3870
3030
3038
3038
3038
3038
3038
3030
3070
3FE0
3FC0
ENDCHAR
STARTCHAR 0185
ENCODING 389
SWIDTH 468 0
DWIDTH 13 0
BBX 13 17 0 0
BITMAP
3000
F000
7000
3000
3000
3000
3F80
3FE0
3070
3030
3030
3038
3030
3030
3070
3FE0
3FC0
ENDCHAR
STARTCHAR 0186
ENCODING 390
SWIDTH 468 0
DWIDTH 13 0
BBX 12 18 1 0
BITMAP
0C00
FF00
77C0
01C0
00E0
0060
0060
0060
0070
0070
0070
0060
0060
0060
00E0
01C0
FF80
7F00
ENDCHAR
STARTCHAR 0187
ENCODING 391
SWIDTH 468 0
DWIDTH 13 0
BBX 13 20 1 0
BITMAP
0010
0078
0260
0FC0
3FC0
3800
7000
6000
6000
E000
E000
E000
E000
E000
6000
6000
7000
3800
3FE0
0FC0
ENDCHAR
STARTCHAR 0188
ENCODING 392
SWIDTH 468 0
DWIDTH 13 0
BBX 12 16 1 0
BITMAP
0030
0070
00E0
0FC0
3FC0
7000
6000
6000
E000
E000
E000
6000
6000
7000
3FC0
1FC0
ENDCHAR
STARTCHAR 0189
ENCODING 393
SWIDTH 468 0
DWIDTH 13 0
BBX 13 17 0 0
BITMAP
3F80
3FE0
30E0
3070
3030
3030
3038
FE38
FE38
3038
3038
3030
3030
3070
30E0
3FC0
3F80
ENDCHAR
STARTCHAR 018A
ENCODING 394
SWIDTH 468 0
DWIDTH 13 0
BBX 13 17 0 0
BITMAP
3FC0
7FF0
6E30
CE38
6E18
0E18
0E18
0E18
0E18
0E18
0E18
0E18
0E18
0E38
0E70
0FE0
0FC0
ENDCHAR
STARTCHAR 018B
ENCODING 395
SWIDTH 468 0
DWIDTH 13 0
BBX 11 17 1 0
BITMAP
3FE0
3FE0
0060
0060
0060
0060
03E0
3FE0
7860
6060
E060
E060
E060
6060
7060
3FE0
1FE0
ENDCHAR
STARTCHAR 018C
ENCODING 396
SWIDTH 468 0
DWIDTH 13 0
BBX 11 19 1 0
BITMAP
3FE0
3FE0
0060
0060
0060
0060
1F60
3FE0
70E0
6060
E060
E060
C060
E060
E060
6060
7060
3FE0
1FE0
ENDCHAR
STARTCHAR 018D
ENCODING 397
SWIDTH 468 0
DWIDTH 13 0
BBX 12 18 1 -5
BITMAP
1F80
3FC0
70E0
E060
E070
C070
E070
E070
6060
70E0
3FC0
0F00
0780
0180
01C0
61C0
7F80
1E00
ENDCHAR
STARTCHAR 018E
ENCODING 398
SWIDTH 468 0
DWIDTH 13 0
BBX 10 17 1 0
BITMAP
7FC0
7FC0
00C0
00C0
00C0
00C0
00C0
3FC0
3FC0
00C0
00C0
00C0
00C0
00C0
00C0
FFC0
FFC0
ENDCHAR
STARTCHAR 018F
ENCODING 399
SWIDTH 468 0
DWIDTH 13 0
BBX 12 18 1 0
BITMAP
0C00
7F80
77C0
00E0
0060
0070
0070
0030
0030
FFF0
FFF0
C030
C070
C070
E060
60E0
7FC0
1F80
ENDCHAR
STARTCHAR 0190
ENCODING 400
SWIDTH 468 0
DWIDTH 13 0
BBX 12 17 1 1
BITMAP
1FE0
3DE0
7000
6000
6000
7000
3800
1F80
3F80
7000
E000
C000
C000
E000
6000
7FF0
3FE0
ENDCHAR
STARTCHAR 0191
ENCODING 401
SWIDTH 468 0
DWIDTH 13 0
BBX 13 22 0 -5
BITMAP
1FF8
1FF8
1800
1800
1800
1800
1800
1FF0
1FF0
1800
1800
1800
1800
1800
1800
1800
1800
1800
1800
3800
F000
C000
ENDCHAR
STARTCHAR 0192
ENCODING 402
SWIDTH 468 0
DWIDTH 13 0
BBX 13 24 0 -5
BITMAP
03F8
07F8
0700
0600
0E00
0E00
3FF0
3FF0
0E00
0E00
0E00
0E00
0E00
0E00
0E00
0E00
0E00
0E00
0E00
0E00
0E00
1C00
FC00
F000
ENDCHAR
STARTCHAR 0193
ENCODING 403
SWIDTH 468 0
DWIDTH 13 0
BBX 13 20 1 0
BITMAP
0010
0078
0360
0FC0
3EC0
3800
7000
6000
6000
E000
E000
E000
E070
E070
6070
6070
7070
3870
3FF0
0FF0
ENDCHAR
STARTCHAR 0194
ENCODING 404
SWIDTH 468 0
DWIDTH 13 0
BBX 12 21 1 -5
BITMAP
C030
C030
E060
6060
60E0
30C0
30C0
3980
1980
1B80
0F00
0F00
0600
0F00
0F00
1B80
1980
3980
3980
1F80
1F80
ENDCHAR
STARTCHAR 0195
ENCODING 405
SWIDTH 468 0
DWIDTH 13 0
BBX 12 19 1 0
BITMAP
C000
C000
C000
C000
C000
C000
FC30
FC30
CE30
C630
C630
C630
C630
C630
C630
C630
C670
C7E0
C3E0
ENDCHAR
STARTCHAR 0196
ENCODING 406
SWIDTH 468 0
DWIDTH 13 0
BBX 11 17 2 0
BITMAP
FF80
FF80
1C00
1C00
1C00
1C00
1C00
1C00
1C00
1C00
1C00
1C00
1C00
1C00
1C00
0FC0
0FE0
ENDCHAR
STARTCHAR 0197
ENCODING 407
SWIDTH 468 0
DWIDTH 13 0
BBX 9 17 2 0
BITMAP
FF80
FF80
0C00
0C00
0C00
0C00
0C00
7F80
7F80
0C00
0C00
0C00
0C00
0C00
0C00
FF80
FF80
ENDCHAR
STARTCHAR 0198
ENCODING 408
SWIDTH 468 0
DWIDTH 13 0
BBX 12 18 2 0
BITMAP
0040
C1F0
C3F0
C300
C700
CE00
CC00
D800
F800
F800
DC00
CE00
C700
C380
C1C0
C0C0
C0E0
C060
ENDCHAR
STARTCHAR 0199
ENCODING 409
SWIDTH 468 0
DWIDTH 13 0
BBX 11 19 2 0
BITMAP
7800
F800
E000
C000
C000
C000
C0C0
C1C0
C300
C600
DC00
F800
F800
DC00
CF00
C380
C180
C1C0
C0E0
ENDCHAR
STARTCHAR 019A
ENCODING 410
SWIDTH 468 0
DWIDTH 13 0
BBX 11 19 1 0
BITMAP
FE00
FE00
0E00
0E00
0E00
0E00
0E00
0E00
FFC0
FFC0
0E00
0E00
0E00
0E00
0E00
0E00
0E00
07E0
03E0
ENDCHAR
STARTCHAR 019B
ENCODING 411
SWIDTH 468 0
DWIDTH 13 0
BBX 12 19 1 0
BITMAP
7800
7800
0FC0
1F00
3E00
0600
0700
0F00
0F00
1D80
1980
39C0
30C0
30C0
60E0
60E0
6060
E070
C070
ENDCHAR
STARTCHAR 019C
ENCODING 412
SWIDTH 468 0
DWIDTH 13 0
BBX 12 17 1 0
BITMAP
C030
C030
C030
C030
C030
C030
C630
C630
C630
C630
C630
C630
C630
C630
E630
7FF0
3FF0
ENDCHAR
STARTCHAR 019D
ENCODING 413
SWIDTH 468 0
DWIDTH 13 0
BBX 13 22 -1 -5
BITMAP
1818
1C18
1C18
1E18
1E18
1B18
1B98
1998
19D8
18D8
18D8
1878
1878
1838
1838
1818
1818
1800
3800
3000
F000
C000
ENDCHAR
STARTCHAR 019E
ENCODING 414
SWIDTH 468 0
DWIDTH 13 0
BBX 10 18 2 -5
BITMAP
FF00
FF80
C1C0
C1C0
C0C0
C0C0
C0C0
C0C0
C0C0
C0C0
C0C0
C0C0
C0C0
00C0
00C0
00C0
00C0
00C0
ENDCHAR
STARTCHAR 019F
ENCODING 415
SWIDTH 468 0
DWIDTH 13 0
BBX 12 18 1 0
BITMAP
0600
1F80
3BC0
70E0
6060
E070
C030
C030
FFF0
FFF0
C030
C030
C070
E070
6060
70E0
3FC0
1F80
ENDCHAR
STARTCHAR 01A0
ENCODING 416
SWIDTH 468 0
DWIDTH 13 0
BBX 13 20 1 0
BITMAP
0038
0038
0438
1FB0
3FE0
70E0
6060
E070
C030
C030
C030
C030
C030
C030
C070
E070
6060
70E0
3FC0
1F80
ENDCHAR
STARTCHAR 01A1
ENCODING 417
SWIDTH 468 0
DWIDTH 13 0
BBX 12 16 1 0
BITMAP
0030
0030
0030
1FB0
3FE0
70E0
6060
E070
E070
C070
E070
E070
6060
70E0
3FC0
1F80
ENDCHAR
STARTCHAR 01A2
ENCODING 418
SWIDTH 468 0
DWIDTH 13 0
BBX 12 18 1 0
BITMAP
0840
3FE0
7770
6730
6330
E330
E330
C330
C330
C330
C330
C330
E330
6330
6330
6730
7E30
3C30
ENDCHAR
STARTCHAR 01A3
ENCODING 419
SWIDTH 468 0
DWIDTH 13 0
BBX 11 18 1 -5
BITMAP
3FC0
7FE0
E660
C660
C660
C660
C660
C660
C660
C660
C660
7E60
7C60
0060
0060
0060
0060
0060
ENDCHAR
STARTCHAR 01A4
ENCODING 420
SWIDTH 468 0
DWIDTH 13 0
BBX 13 17 0 0
BITMAP
3FE0
7FF0
6E38
CE18
6E18
0E18
0E18
0E38
0E70
0FE0
0F00
0E00
0E00
0E00
0E00
0E00
0E00
ENDCHAR
STARTCHAR 01A5
ENCODING 421
SWIDTH 468 0
DWIDTH 13 0
BBX 11 24 2 -5
BITMAP
7800
F800
E000
C000
C000
C000
FF00
FF80
C1C0
C0C0
C0E0
C0E0
C0E0
C0E0
C0E0
C0C0
E1C0
FF80
FF00
C000
C000
C000
C000
C000
ENDCHAR
STARTCHAR 01A6
ENCODING 422
SWIDTH 468 0
DWIDTH 13 0
BBX 12 22 2 -3
BITMAP
C000
C000
FF00
FF80
C180
C1C0
C0C0
C0C0
C1C0
C180
FF80
FE00
C600
C700
C300
C380
C180
C1C0
C0C0
00E0
0060
0070
ENDCHAR
STARTCHAR 01A7
ENCODING 423
SWIDTH 468 0
DWIDTH 13 0
BBX 10 18 2 0
BITMAP
1800
FF00
7780
01C0
00C0
00C0
01C0
0380
0F00
3E00
7800
E000
C000
C000
C000
C040
FFC0
3FC0
ENDCHAR
STARTCHAR 01A8
ENCODING 424
SWIDTH 468 0
DWIDTH 13 0
BBX 10 13 2 0
BITMAP
FF00
7F80
01C0
01C0
01C0
0F80
3F00
7800
E000
C000
C040
FFC0
7FC0
ENDCHAR
STARTCHAR 01A9
ENCODING 425
SWIDTH 468 0
DWIDTH 13 0
BBX 11 17 1 0
BITMAP
FFE0
7FE0
7000
3800
1800
0C00
0E00
0700
0700
0E00
0C00
1800
3000
7000
6000
FFE0
FFE0
ENDCHAR
STARTCHAR 01AA
ENCODING 426
SWIDTH 468 0
DWIDTH 13 0
BBX 11 24 1 -5
BITMAP
7C00
7E00
C600
C700
E700
7F00
0700
0700
0700
0700
0700
0700
0700
0700
0700
0700
0700
0700
0700
0700
0300
03C0
01E0
0020
ENDCHAR
STARTCHAR 01AB
ENCODING 427
SWIDTH 468 0
DWIDTH 13 0
BBX 11 22 2 -5
BITMAP
3800
3800
3800
3800
FFC0
FFC0
3800
3800
3800
3800
3800
3800
3800
1800
1800
1FE0
0FE0
0060
00E0
00C0
03C0
0380
ENDCHAR
STARTCHAR 01AC
ENCODING 428
SWIDTH 468 0
DWIDTH 13 0
BBX 13 17 0 0
BITMAP
3FF8
7FF8
6380
C380
6380
0380
0380
0380
0380
0380
0380
0380
0380
0380
0380
0380
0380
ENDCHAR
STARTCHAR 01AD
ENCODING 429
SWIDTH 468 0
DWIDTH 13 0
BBX 11 19 2 0
BITMAP
0FE0
1FE0
1800
1800
3800
3800
FFC0
FFC0
3800
3800
3800
3800
3800
3800
3800
1800
1800
1FC0
0FC0
ENDCHAR
STARTCHAR 01AE
ENCODING 430
SWIDTH 468 0
DWIDTH 13 0
BBX 12 22 1 -5
BITMAP
FFF0
FFF0
0600
0600
0600
0600
0600
0600
0600
0600
0600
0600
0600
0600
0600
0600
0600
0600
0600
0700
03C0
00C0
ENDCHAR
STARTCHAR 01AF
ENCODING 431
SWIDTH 468 0
DWIDTH 13 0
BBX 13 20 1 0
BITMAP
0038
0038
0030
E0F0
E0C0
E0C0
E0C0
E0C0
E0C0
E0C0
E0C0
E0C0
E0C0
E0C0
E0C0
E0C0
E0C0
61C0
7F80
3F00
ENDCHAR
STARTCHAR 01B0
ENCODING 432
SWIDTH 468 0
DWIDTH 13 0
BBX 11 16 2 0
BITMAP
0060
0060
0060
C3E0
C3C0
C380
C380
C380
C380
C380
C380
C380
C380
E380
7F80
3F80
ENDCHAR
STARTCHAR 01B1
ENCODING 433
SWIDTH 468 0
DWIDTH 13 0
BBX 13 17 0 0
BITMAP
FCF8
FCF8
1860
3860
3030
3030
7038
6038
6018
6018
6018
6038
7038
3030
3870
1FE0
0FC0
ENDCHAR
STARTCHAR 01B2
ENCODING 434
SWIDTH 468 0
DWIDTH 13 0
BBX 12 17 1 0
BITMAP
E780
E7C0
E0E0
E060
E060
E070
E070
E070
E070
E070
E070
E060
E060
E060
60C0
7FC0
3F80
ENDCHAR
STARTCHAR 01B3
ENCODING 435
SWIDTH 468 0
DWIDTH 13 0
BBX 14 17 1 0
BITMAP
C07C
C078
E0C0
60C0
71C0
3180
3980
1B00
0F00
0F00
0600
0600
0600
0600
0600
0600
0600
ENDCHAR
STARTCHAR 01B4
ENCODING 436
SWIDTH 468 0
DWIDTH 13 0
BBX 12 18 1 -5
BITMAP
C070
E0F0
E0C0
60C0
7180
7180
3180
3980
1B00
1B00
1F00
0E00
0E00
0600
0C00
1C00
F800
E000
ENDCHAR
STARTCHAR 01B5
ENCODING 437
SWIDTH 468 0
DWIDTH 13 0
BBX 12 17 1 0
BITMAP
7FE0
7FE0
00E0
00C0
0180
0380
0300
7FE0
7FE0
0C00
1C00
1800
3800
3000
6000
FFF0
FFF0
ENDCHAR
STARTCHAR 01B6
ENCODING 438
SWIDTH 468 0
DWIDTH 13 0
BBX 10 13 2 0
BITMAP
FFC0
FFC0
0380
0300
0600
7F80
7F80
1800
3000
7000
6000
FFC0
FFC0
ENDCHAR
STARTCHAR 01B7
ENCODING 439
SWIDTH 468 0
DWIDTH 13 0
BBX 12 17 1 0
BITMAP
FFE0
FFE0
00C0
01C0
0380
0700
0E00
0F00
0FC0
00E0
0070
0030
0030
0070
80E0
FFE0
FF80
ENDCHAR
STARTCHAR 01B8
ENCODING 440
SWIDTH 468 0
DWIDTH 13 0
BBX 11 17 2 0
BITMAP
FFC0
FFC0
7000
3000
1800
1C00
0E00
1E00
7E00
7000
E000
C000
C000
C000
E000
7FE0
3FE0
ENDCHAR
STARTCHAR 01B9
ENCODING 441
SWIDTH 468 0
DWIDTH 13 0
BBX 10 18 2 -5
BITMAP
FFC0
FFC0
6000
3000
3800
1C00
0E00
0E00
3E00
7000
C000
C000
C000
C000
E000
78C0
3FC0
0200
ENDCHAR
STARTCHAR 01BA
ENCODING 442
SWIDTH 468 0
DWIDTH 13 0
BBX 11 18 1 -5
BITMAP
7FC0
7FC0
01C0
0380
0700
0E00
0F00
0FC0
00C0
00E0
00E0
00E0
07C0
3F00
7800
E000
C000
4000
ENDCHAR
STARTCHAR 01BB
ENCODING 443
SWIDTH 468 0
DWIDTH 13 0
BBX 10 18 2 0
BITMAP
1800
7F00
F780
8180
01C0
01C0
01C0
0180
0380
7FC0
7FC0
1C00
3800
7000
6000
E000
FFC0
FFC0
ENDCHAR
STARTCHAR 01BC
ENCODING 444
SWIDTH 468 0
DWIDTH 13 0
BBX 11 17 1 0
BITMAP
FFE0
FFE0
3000
3000
3000
3000
3800
3F80
0FC0
00E0
0060
0060
0060
0060
00E0
7FC0
7F80
ENDCHAR
STARTCHAR 01BD
ENCODING 445
SWIDTH 468 0
DWIDTH 13 0
BBX 10 13 2 0
BITMAP
FFC0
FFC0
3000
3000
6000
7E00
7F80
01C0
00C0
00C0
01C0
FF80
FF00
ENDCHAR
STARTCHAR 01BE
ENCODING 446
SWIDTH 468 0
DWIDTH 13 0
BBX 11 17 2 0
BITMAP
3800
3800
3800
3800
FFC0
FFC0
3800
3800
1800
1E00
0F80
03C0
00E0
0060
00E0
7FC0
7F80
ENDCHAR
STARTCHAR 01BF
ENCODING 447
SWIDTH 468 0
DWIDTH 13 0
BBX 11 18 2 -5
BITMAP
7F00
FF80
C1C0
C0E0
C0E0
C0E0
C0E0
C0E0
C0C0
C1C0
C380
CF00
FE00
F800
C000
C000
C000
C000
ENDCHAR
STARTCHAR 01C0
ENCODING 448
SWIDTH 468 0
DWIDTH 13 0
BBX 2 24 6 -5
BITMAP
C0
C0
C0
C0
C0
C0
C0
C0
C0
C0
C0
C0
C0
C0
C0
C0
C0
C0
C0
C0
C0
C0
C0
C0
ENDCHAR
STARTCHAR 01C1
ENCODING 449
SWIDTH 468 0
DWIDTH 13 0
BBX 8 24 3 -5
BITMAP
E7
E7
E7
E7
E7
E7
E7
E7
E7
E7
E7
E7
E7
E7
E7
E7
E7
E7
E7
E7
E7
E7
E7
E7
ENDCHAR
STARTCHAR 01C2
ENCODING 450
SWIDTH 468 0
DWIDTH 13 0
BBX 12 24 1 -5
BITMAP
0600
0600
0600
0600
0600
0600
0600
0600
FFF0
FFF0
0600
0600
0600
FFF0
FFF0
0600
0600
0600
0600
0600
0600
0600
0600
0600
ENDCHAR
STARTCHAR 01C3
ENCODING 451
SWIDTH 468 0
DWIDTH 13 0
BBX 4 17 5 0
BITMAP
60
60
60
60
60
60
60
60
60
60
60
00
00
00
F0
F0
E0
ENDCHAR
STARTCHAR 01C4
ENCODING 452
SWIDTH 468 0
DWIDTH 13 0
BBX 13 23 1 0
BITMAP
0100
0198
00F0
0060
0000
0000
F0F0
F8F0
CC30
CC30
CC70
CC60
CC60
C660
C640
CEC0
CCC0
CCC0
CC80
CD80
DD80
F9F0
F1F0
ENDCHAR
STARTCHAR 01C5
ENCODING 453
SWIDTH 468 0
DWIDTH 13 0
BBX 13 18 1 0
BITMAP
0088
F0F8
F860
CC00
CC00
CCF0
CCF0
CC30
C630
C620
CE60
CC60
CC40
CCC0
CCC0
DCC0
F8F0
F0F0
ENDCHAR
STARTCHAR 01C6
ENCODING 454
SWIDTH 468 0
DWIDTH 13 0
BBX 14 19 0 0
BITMAP
0600
0644
067C
0630
0600
0600
3E7C
7E7C
6608
C618
C618
C610
C630
C630
C620
C660
6660
767C
3E7C
ENDCHAR
STARTCHAR 01C7
ENCODING 455
SWIDTH 468 0
DWIDTH 13 0
BBX 12 17 1 0
BITMAP
C030
C030
C030
C030
C030
C030
C030
C030
C030
C030
C030
C030
C030
C030
C070
FDE0
FDC0
ENDCHAR
STARTCHAR 01C8
ENCODING 456
SWIDTH 468 0
DWIDTH 13 0
BBX 12 23 1 -5
BITMAP
0070
E070
E070
E000
E000
E070
E070
E070
E070
E070
E070
E070
E070
E070
E070
E070
FE70
FE70
0070
0060
00E0
03C0
0300
ENDCHAR
STARTCHAR 01C9
ENCODING 457
SWIDTH 468 0
DWIDTH 13 0
BBX 9 24 3 -5
BITMAP
C000
C300
C780
C300
C000
C000
C300
C300
C300
C300
C300
C300
C300
C300
C300
C300
C300
E300
6300
0300
0300
2700
3E00
1800
ENDCHAR
STARTCHAR 01CA
ENCODING 458
SWIDTH 468 0
DWIDTH 13 0
BBX 12 17 1 0
BITMAP
C630
C630
E630
E630
E630
E630
F630
F630
F630
D630
DE30
DE30
CE30
CE30
CE30
CEE0
C6C0
ENDCHAR
STARTCHAR 01CB
ENCODING 459
SWIDTH 468 0
DWIDTH 13 0
BBX 12 23 1 -5
BITMAP
0070
C670
C630
E600
E600
E630
E630
F630
F630
F630
D630
DE30
DE30
CE30
CE30
CE30
CE30
C630
0030
0060
00E0
03E0
0300
ENDCHAR
STARTCHAR 01CC
ENCODING 460
SWIDTH 468 0
DWIDTH 13 0
BBX 12 23 1 -5
BITMAP
0070
0070
0070
0000
0000
FC30
FE30
CE30
C630
C630
C630
C630
C630
C630
C630
C630
C630
C630
0070
0060
00E0
03C0
0300
ENDCHAR
STARTCHAR 01CD
ENCODING 461
SWIDTH 468 0
DWIDTH 13 0
BBX 14 23 0 0
BITMAP
0840
0CC0
0780
0300
0000
0000
0780
0780
0780
0CC0
0CC0
0CC0
18E0
1860
1860
3070
3030
3FF0
7FF0
6038
6018
6018
E01C
ENDCHAR
STARTCHAR 01CE
ENCODING 462
SWIDTH 468 0
DWIDTH 13 0
BBX 10 19 2 0
BITMAP
2100
3700
1E00
0C00
0000
0000
7F00
7F80
01C0
00C0
00C0
1FC0
7FC0
E0C0
C0C0
C0C0
C0C0
FFC0
7FC0
ENDCHAR
STARTCHAR 01CF
ENCODING 463
SWIDTH 468 0
DWIDTH 13 0
BBX 9 23 2 0
BITMAP
2100
3300
1E00
0C00
0000
0000
FF80
FF80
0C00
0C00
0C00
0C00
0C00
0C00
0C00
0C00
0C00
0C00
0C00
0C00
0C00
FF80
FF80
ENDCHAR
STARTCHAR 01D0
ENCODING 464
SWIDTH 468 0
DWIDTH 13 0
BBX 11 19 1 0
BITMAP
2100
3300
1E00
0C00
0000
0000
FE00
FE00
0E00
0E00
0E00
0E00
0E00
0E00
0E00
0E00
0E00
07E0
03E0
ENDCHAR
STARTCHAR 01D1
ENCODING 465
SWIDTH 468 0
DWIDTH 13 0
BBX 12 23 1 0
BITMAP
1080
1980
0F00
0600
0000
0600
1F80
3FC0
70E0
6060
E070
C030
C030
C030
C030
C030
C030
C070
E070
6060
70E0
3FC0
1F80
ENDCHAR
STARTCHAR 01D2
ENCODING 466
SWIDTH 468 0
DWIDTH 13 0
BBX 12 19 1 0
BITMAP
1080
1B80
0F00
0600
0000
0000
1F80
3FC0
70E0
6060
E070
E070
C070
E070
E070
6060
70E0
3FC0
1F80
ENDCHAR
STARTCHAR 01D3
ENCODING 467
SWIDTH 468 0
DWIDTH 13 0
BBX 12 23 1 0
BITMAP
1080
1980
0F00
0600
0000
0000
E070
E070
E070
E070
E070
E070
E070
E070
E070
E070
E070
E070
E060
6060
70E0
7FC0
1F80
ENDCHAR
STARTCHAR 01D4
ENCODING 468
SWIDTH 468 0
DWIDTH 13 0
BBX 10 19 2 0
BITMAP
2100
3700
1E00
0C00
0000
0000
C0C0
C0C0
C0C0
C0C0
C0C0
C0C0
C0C0
C0C0
C0C0
E0C0
E0C0
7FC0
3FC0
ENDCHAR
STARTCHAR 01D5
ENCODING 469
SWIDTH 468 0
DWIDTH 13 0
BBX 12 23 1 0
BITMAP
1F80
1F80
1080
39C0
39C0
0000
E070
E070
E070
E070
E070
E070
E070
E070
E070
E070
E070
E070
E060
6060
70E0
7FC0
1F80
ENDCHAR
STARTCHAR 01D6
ENCODING 470
SWIDTH 468 0
DWIDTH 13 0
BBX 10 20 2 0
BITMAP
3F00
3F00
0000
7380
7380
0000
0000
C0C0
C0C0
C0C0
C0C0
C0C0
C0C0
C0C0
C0C0
C0C0
E0C0
E0C0
7FC0
3FC0
ENDCHAR
STARTCHAR 01D7
ENCODING 471
SWIDTH 468 0
DWIDTH 13 0
BBX 12 23 1 0
BITMAP
0200
0300
36C0
74E0
2040
0000
E070
E070
E070
E070
E070
E070
E070
E070
E070
E070
E070
E070
E060
6060
70E0
7FC0
1F80
ENDCHAR
STARTCHAR 01D8
ENCODING 472
SWIDTH 468 0
DWIDTH 13 0
BBX 10 21 2 0
BITMAP
0200
0600
0E00
0C00
7380
7380
0000
0000
C0C0
C0C0
C0C0
C0C0
C0C0
C0C0
C0C0
C0C0
C0C0
E0C0
E0C0
7FC0
3FC0
ENDCHAR
STARTCHAR 01D9
ENCODING 473
SWIDTH 468 0
DWIDTH 13 0
BBX 12 23 1 0
BITMAP
0900
0F00
34C0
70E0
2040
0000
E070
E070
E070
E070
E070
E070
E070
E070
E070
E070
E070
E070
E060
6060
70E0
7FC0
1F80
ENDCHAR
STARTCHAR 01DA
ENCODING 474
SWIDTH 468 0
DWIDTH 13 0
BBX 10 21 2 0
BITMAP
2000
3300
1E00
0800
7380
7380
0000
0000
C0C0
C0C0
C0C0
C0C0
C0C0
C0C0
C0C0
C0C0
C0C0
E0C0
E0C0
7FC0
3FC0
ENDCHAR
STARTCHAR 01DB
ENCODING 475
SWIDTH 468 0
DWIDTH 13 0
BBX 12 23 1 0
BITMAP
0400
0C00
36C0
72E0
2040
0000
E070
E070
E070
E070
E070
E070
E070
E070
E070
E070
E070
E070
E060
6060
70E0
7FC0
1F80
ENDCHAR
STARTCHAR 01DC
ENCODING 476
SWIDTH 468 0
DWIDTH 13 0
BBX 10 21 2 0
BITMAP
1000
3800
1800
0C00
7380
7380
0000
0000
C0C0
C0C0
C0C0
C0C0
C0C0
C0C0
C0C0
C0C0
C0C0
E0C0
E0C0
7FC0
3FC0
ENDCHAR
STARTCHAR 01DD
ENCODING 477
SWIDTH 468 0
DWIDTH 13 0
BBX 12 13 1 0
BITMAP
7F00
7FC0
00E0
0060
0070
0070
FFF0
FFF0
E070
6060
70E0
3FC0
1F80
ENDCHAR
STARTCHAR 01DE
ENCODING 478
SWIDTH 468 0
DWIDTH 13 0
BBX 14 23 0 0
BITMAP
0FC0
0FC0
0840
1CE0
1CE0
0000
0300
0780
0780
0FC0
0CC0
0CC0
18E0
1860
1860
3870
3070
3FF0
7FF0
6038
6018
6018
E01C
ENDCHAR
STARTCHAR 01DF
ENCODING 479
SWIDTH 468 0
DWIDTH 13 0
BBX 10 20 2 0
BITMAP
3F00
3F00
0000
7380
7380
0000
0000
7F00
7F80
01C0
00C0
00C0
1FC0
7FC0
E0C0
C0C0
C0C0
C0C0
FFC0
7FC0
ENDCHAR
STARTCHAR 01E0
ENCODING 480
SWIDTH 468 0
DWIDTH 13 0
BBX 14 23 0 0
BITMAP
0FC0
0FC0
0300
0300
0300
0000
0300
0780
0780
0FC0
0CC0
0CC0
18E0
1860
1860
3870
3070
3FF0
7FF0
6038
6018
6018
E01C
ENDCHAR
STARTCHAR 01E1
ENCODING 481
SWIDTH 468 0
DWIDTH 13 0
BBX 10 20 2 0
BITMAP
3F00
3F00
0000
0C00
0C00
0000
0000
7F00
7F80
01C0
00C0
00C0
1FC0
7FC0
E0C0
C0C0
C0C0
C0C0
FFC0
7FC0
ENDCHAR
STARTCHAR 01E2
ENCODING 482
SWIDTH 468 0
DWIDTH 13 0
BBX 12 22 1 0
BITMAP
07F0
07F0
0000
0000
0000
07F0
0FF0
0F00
0F00
1B00
1B00
1B00
33E0
33E0
3300
3300
7F00
7F00
6300
E300
C3F0
C3F0
ENDCHAR
STARTCHAR 01E3
ENCODING 483
SWIDTH 468 0
DWIDTH 13 0
BBX 12 18 1 0
BITMAP
1FC0
1FC0
0000
0000
0000
79E0
7FE0
0F30
0630
0630
3FF0
7FF0
E600
C600
C600
C300
FFF0
7DF0
ENDCHAR
STARTCHAR 01E4
ENCODING 484
SWIDTH 468 0
DWIDTH 13 0
BBX 12 18 1 0
BITMAP
0300
0FE0
3CC0
3000
7000
6000
6000
E000
E000
E060
E060
E1F0
61F0
6060
7060
3860
3FE0
0FE0
ENDCHAR
STARTCHAR 01E5
ENCODING 485
SWIDTH 468 0
DWIDTH 13 0
BBX 12 18 1 -5
BITMAP
1FC0
3FC0
70C0
60C0
E0C0
E3F0
C3F0
E0C0
E0C0
60C0
7FC0
3FC0
04C0
00C0
00C0
63C0
7F80
3C00
ENDCHAR
STARTCHAR 01E6
ENCODING 486
SWIDTH 468 0
DWIDTH 13 0
BBX 12 23 1 0
BITMAP
0440
0EC0
0780
0380
0100
0180
0FE0
1EE0
3800
7000
6000
6000
E000
E000
E000
E070
E070
6070
6070
7070
3870
1FF0
0FF0
ENDCHAR
STARTCHAR 01E7
ENCODING 487
SWIDTH 468 0
DWIDTH 13 0
BBX 11 24 1 -5
BITMAP
1880
0D80
0700
0200
0000
0000
1FE0
3FE0
7060
6060
E060
E060
C060
E060
E060
6060
7FE0
3FE0
0460
00E0
00E0
63C0
7F80
1C00
ENDCHAR
STARTCHAR 01E8
ENCODING 488
SWIDTH 468 0
DWIDTH 13 0
BBX 11 23 2 0
BITMAP
2100
3300
1E00
0C00
0000
0000
C0E0
C1C0
C380
C300
C700
CE00
DC00
F800
F800
DC00
CE00
C700
C380
C1C0
C0C0
C0E0
C060
ENDCHAR
STARTCHAR 01E9
ENCODING 489
SWIDTH 468 0
DWIDTH 13 0
BBX 11 23 2 0
BITMAP
8800
F800
6000
0000
0000
C000
C000
C000
C000
C000
C0C0
C1C0
C300
C600
DC00
F800
F800
DC00
CF00
C380
C180
C1C0
C0E0
ENDCHAR
STARTCHAR 01EA
ENCODING 490
SWIDTH 468 0
DWIDTH 13 0
BBX 12 23 1 -5
BITMAP
0600
1F80
3FC0
70E0
6060
E070
C030
C030
C030
C030
C030
C030
C070
E070
6060
70E0
3FC0
1F80
0300
0600
0E00
0780
0300
ENDCHAR
STARTCHAR 01EB
ENCODING 491
SWIDTH 468 0
DWIDTH 13 0
BBX 12 18 1 -5
BITMAP
1F80
3FC0
70E0
6060
E070
E070
C070
E070
E070
6060
70E0
3FC0
1F80
0600
0C00
0C00
0F00
0700
ENDCHAR
STARTCHAR 01EC
ENCODING 492
SWIDTH 468 0
DWIDTH 13 0
BBX 12 27 1 -5
BITMAP
3F80
3F80
0000
0000
0600
1F80
3FC0
70E0
6060
E070
C030
C030
C030
C030
C030
C030
C070
E070
6060
70E0
3FC0
1F80
0300
0600
0E00
0780
0300
ENDCHAR
STARTCHAR 01ED
ENCODING 493
SWIDTH 468 0
DWIDTH 13 0
BBX 12 23 1 -5
BITMAP
3F80
3F80
0000
0000
0000
1F80
3FC0
70E0
6060
E070
E070
C070
E070
E070
6060
70E0
3FC0
1F80
0600
0C00
0C00
0F00
0700
ENDCHAR
STARTCHAR 01EE
ENCODING 494
SWIDTH 468 0
DWIDTH 13 0
BBX 12 23 1 0
BITMAP
1080
1980
0F00
0600
0000
0000
FFE0
FFE0
00C0
01C0
0380
0700
0E00
0F00
0FC0
00E0
0070
0030
0030
0070
80E0
FFE0
FF80
ENDCHAR
STARTCHAR 01EF
ENCODING 495
SWIDTH 468 0
DWIDTH 13 0
BBX 11 24 1 -5
BITMAP
1080
1B80
0F00
0600
0000
0000
7FC0
7FC0
01C0
0380
0300
0700
0E00
1C00
1F80
01C0
00E0
0060
0060
00E0
00E0
67C0
FF80
0800
ENDCHAR
STARTCHAR 01F0
ENCODING 496
SWIDTH 468 0
DWIDTH 13 0
BBX 9 24 2 -5
BITMAP
1080
1B80
0F00
0600
0000
0000
7F80
7F80
0380
0380
0380
0380
0380
0380
0380
0380
0380
0380
0380
0380
0300
E700
FE00
3C00
ENDCHAR
STARTCHAR 01F1
ENCODING 497
SWIDTH 468 0
DWIDTH 13 0
BBX 12 17 1 0
BITMAP
F0F0
F8F0
CC30
CC30
CC70
CC60
CC60
C660
C640
CEC0
CCC0
CCC0
CC80
CD80
DD80
F9F0
F1F0
ENDCHAR
STARTCHAR 01F2
ENCODING 498
SWIDTH 468 0
DWIDTH 13 0
BBX 12 17 1 0
BITMAP
F000
F800
CC00
CC00
CCF0
CCF0
CC30
C630
C620
CE60
CC60
CC40
CCC0
CCC0
DCC0
F8F0
F0F0
ENDCHAR
STARTCHAR 01F3
ENCODING 499
SWIDTH 468 0
DWIDTH 13 0
BBX 14 19 0 0
BITMAP
0600
0600
0600
0600
0600
0600
3E7C
7E7C
6608
C618
C618
C610
C630
C630
C620
C660
6660
767C
3E7C
ENDCHAR
STARTCHAR 01F4
ENCODING 500
SWIDTH 468 0
DWIDTH 13 0
BBX 12 23 1 0
BITMAP
0080
01C0
0380
0700
0200
0180
0FE0
1EE0
3800
7000
6000
6000
E000
E000
E000
E070
E070
6070
6070
7070
3870
1FF0
0FF0
ENDCHAR
STARTCHAR 01F5
ENCODING 501
SWIDTH 468 0
DWIDTH 13 0
BBX 11 24 1 -5
BITMAP
0180
0180
0300
0600
0000
0000
1FE0
3FE0
7060
6060
E060
E060
C060
E060
E060
6060
7FE0
3FE0
0460
00E0
00E0
63C0
7F80
1C00
ENDCHAR
STARTCHAR 01F6
ENCODING 502
SWIDTH 468 0
DWIDTH 13 0
BBX 12 17 1 0
BITMAP
C600
C600
C600
C600
C630
C630
C630
FE30
FE30
C630
C630
C630
C630
C630
C670
C3E0
C3E0
ENDCHAR
STARTCHAR 01F7
ENCODING 503
SWIDTH 468 0
DWIDTH 13 0
BBX 11 22 2 -5
BITMAP
7F00
FF80
C1C0
C0C0
C0E0
C0E0
C0E0
C0E0
C0E0
C0C0
C1C0
C180
C380
CF00
DE00
F800
E000
C000
C000
C000
C000
C000
ENDCHAR
STARTCHAR 01F8
ENCODING 504
SWIDTH 468 0
DWIDTH 13 0
BBX 10 23 2 0
BITMAP
1000
1800
0C00
0600
0000
0000
C0C0
E0C0
E0C0
F0C0
F0C0
D8C0
D8C0
CCC0
CCC0
C6C0
C6C0
C3C0
C3C0
C1C0
C1C0
C1C0
C0C0
ENDCHAR
STARTCHAR 01F9
ENCODING 505
SWIDTH 468 0
DWIDTH 13 0
BBX 10 19 2 0
BITMAP
1000
3800
1C00
0E00
0000
0000
FF00
FF80
C1C0
C1C0
C0C0
C0C0
C0C0
C0C0
C0C0
C0C0
C0C0
C0C0
C0C0
ENDCHAR
STARTCHAR 01FA
ENCODING 506
SWIDTH 468 0
DWIDTH 13 0
BBX 14 23 0 0
BITMAP
0180
0780
0600
0100
0780
0480
0480
0780
0780
0D80
0CC0
0CC0
18E0
1860
1860
3060
3030
3FF0
7FF0
6038
6018
6018
E01C
ENDCHAR
STARTCHAR 01FB
ENCODING 507
SWIDTH 468 0
DWIDTH 13 0
BBX 10 23 2 0
BITMAP
0200
0E00
1E00
1000
0C00
1200
1200
1600
0C00
0000
7F00
7F80
01C0
00C0
00C0
1FC0
7FC0
E0C0
C0C0
C0C0
C0C0
FFC0
7FC0
ENDCHAR
STARTCHAR 01FC
ENCODING 508
SWIDTH 468 0
DWIDTH 13 0
BBX 12 23 1 0
BITMAP
0040
00E0
00C0
0180
0100
0000
07F0
0FF0
0F00
0F00
1B00
1B00
1B00
33E0
33E0
3300
3300
7F00
7F00
6300
E300
C3F0
C3F0
ENDCHAR
STARTCHAR 01FD
ENCODING 509
SWIDTH 468 0
DWIDTH 13 0
BBX 12 19 1 0
BITMAP
0180
0380
0300
0600
0000
0000
79E0
7FE0
0F30
0630
0630
3FF0
7FF0
E600
C600
C600
C300
FFF0
7DF0
ENDCHAR
STARTCHAR 01FE
ENCODING 510
SWIDTH 468 0
DWIDTH 13 0
BBX 12 24 1 -1
BITMAP
0100
0380
0700
0600
0400
0660
1FE0
3DC0
70E0
61E0
E1F0
C330
C330
C630
C630
CC30
CC30
D870
D870
7060
70E0
7FC0
7F80
6000
ENDCHAR
STARTCHAR 01FF
ENCODING 511
SWIDTH 468 0
DWIDTH 13 0
BBX 12 20 1 -1
BITMAP
0100
0380
0700
0E00
0400
0020
1FE0
3FE0
70E0
61E0
E370
E370
C670
CC70
FC70
7860
70E0
7FC0
7F80
4000
ENDCHAR
STARTCHAR 0200
ENCODING 512
SWIDTH 468 0
DWIDTH 13 0
BBX 14 23 0 0
BITMAP
0880
1980
0CC0
0660
0000
0000
0780
0780
0780
0CC0
0CC0
0CC0
18E0
1860
1860
3070
3030
3FF0
7FF0
6038
6018
6018
E01C
ENDCHAR
STARTCHAR 0201
ENCODING 513
SWIDTH 468 0
DWIDTH 13 0
BBX 10 19 2 0
BITMAP
6600
6700
3300
1980
0000
0000
7F00
7F80
01C0
00C0
00C0
1FC0
7FC0
E0C0
C0C0
C0C0
C0C0
FFC0
7FC0
ENDCHAR
STARTCHAR 0202
ENCODING 514
SWIDTH 468 0
DWIDTH 13 0
BBX 14 22 0 0
BITMAP
0780
0CC0
0840
0000
0000
0780
0780
0780
0CC0
0CC0
0CC0
18E0
1860
1860
3070
3030
3FF0
7FF0
6038
6018
6018
E01C
ENDCHAR
STARTCHAR 0203
ENCODING 515
SWIDTH 468 0
DWIDTH 13 0
BBX 10 19 2 0
BITMAP
0800
3E00
3300
2100
0000
0000
7F00
7F80
01C0
00C0
00C0
1FC0
7FC0
E0C0
C0C0
C0C0
C0C0
FFC0
7FC0
ENDCHAR
STARTCHAR 0204
ENCODING 516
SWIDTH 468 0
DWIDTH 13 0
BBX 10 23 3 0
BITMAP
4400
CC00
6600
3300
0000
0000
FF80
FF80
C000
C000
C000
C000
C000
FF00
FF00
C000
C000
C000
C000
C000
C000
FFC0
FFC0
ENDCHAR
STARTCHAR 0205
ENCODING 517
SWIDTH 468 0
DWIDTH 13 0
BBX 12 19 1 0
BITMAP
3300
3380
1980
0CC0
0000
0000
1F80
3FC0
70E0
6060
E060
FFF0
FFF0
C000
E000
6000
7000
3FE0
1FE0
ENDCHAR
STARTCHAR 0206
ENCODING 518
SWIDTH 468 0
DWIDTH 13 0
BBX 10 22 3 0
BITMAP
3E00
3300
6300
0000
0000
FF80
FF80
C000
C000
C000
C000
C000
FF00
FF00
C000
C000
C000
C000
C000
C000
FFC0
FFC0
ENDCHAR
STARTCHAR 0207
ENCODING 519
SWIDTH 468 0
DWIDTH 13 0
BBX 12 19 1 0
BITMAP
0200
0F80
18C0
18C0
0000
0000
1F80
3FC0
70E0
6060
E060
FFF0
FFF0
C000
E000
6000
7000
3FE0
1FE0
ENDCHAR
STARTCHAR 0208
ENCODING 520
SWIDTH 468 0
DWIDTH 13 0
BBX 9 23 2 0
BITMAP
4400
E600
7700
3300
1100
0000
FF80
FF80
0C00
0C00
0C00
0C00
0C00
0C00
0C00
0C00
0C00
0C00
0C00
0C00
0C00
FF80
FF80
ENDCHAR
STARTCHAR 0209
ENCODING 521
SWIDTH 468 0
DWIDTH 13 0
BBX 11 19 1 0
BITMAP
4400
6600
7300
3300
1100
0000
FE00
FE00
0E00
0E00
0E00
0E00
0E00
0E00
0E00
0E00
0E00
07E0
03E0
ENDCHAR
STARTCHAR 020A
ENCODING 522
SWIDTH 468 0
DWIDTH 13 0
BBX 9 22 2 0
BITMAP
1E00
3300
2100
0000
0000
FF80
FF80
0C00
0C00
0C00
0C00
0C00
0C00
0C00
0C00
0C00
0C00
0C00
0C00
0C00
FF80
FF80
ENDCHAR
STARTCHAR 020B
ENCODING 523
SWIDTH 468 0
DWIDTH 13 0
BBX 11 18 1 1
BITMAP
3E00
3300
2100
0000
0000
FE00
FE00
0E00
0E00
0E00
0E00
0E00
0E00
0E00
0E00
0E00
07E0
03E0
ENDCHAR
STARTCHAR 020C
ENCODING 524
SWIDTH 468 0
DWIDTH 13 0
BBX 12 23 1 0
BITMAP
2200
7300
3B80
1980
0880
0600
1F80
3FC0
70E0
6060
E070
C030
C030
C030
C030
C030
C030
C070
E070
6060
70E0
3FC0
1F80
ENDCHAR
STARTCHAR 020D
ENCODING 525
SWIDTH 468 0
DWIDTH 13 0
BBX 12 19 1 0
BITMAP
2200
3300
3980
1980
0880
0000
1F80
3FC0
70E0
6060
E070
E070
C070
E070
E070
6060
70E0
3FC0
1F80
ENDCHAR
STARTCHAR 020E
ENCODING 526
SWIDTH 468 0
DWIDTH 13 0
BBX 12 22 1 0
BITMAP
0F00
1980
1080
0000
0600
1F80
3FC0
70E0
6060
E070
C030
C030
C030
C030
C030
C030
C070
E070
6060
70E0
3FC0
1F80
ENDCHAR
STARTCHAR 020F
ENCODING 527
SWIDTH 468 0
DWIDTH 13 0
BBX 12 19 1 0
BITMAP
0400
1F00
1980
1080
0000
0000
1F80
3FC0
70E0
6060
E070
E070
C070
E070
E070
6060
70E0
3FC0
1F80
ENDCHAR
STARTCHAR 0210
ENCODING 528
SWIDTH 468 0
DWIDTH 13 0
BBX 11 23 2 0
BITMAP
4400
EE00
6600
3300
1100
0000
FF00
FF80
C180
C1C0
C0C0
C0C0
C1C0
C180
FF80
FE00
C600
C300
C380
C180
C1C0
C0C0
C0E0
ENDCHAR
STARTCHAR 0211
ENCODING 529
SWIDTH 468 0
DWIDTH 13 0
BBX 9 19 3 0
BITMAP
8800
CC00
E600
6600
2200
0000
7F80
FF80
C000
C000
C000
C000
C000
C000
C000
C000
C000
C000
C000
ENDCHAR
STARTCHAR 0212
ENCODING 530
SWIDTH 468 0
DWIDTH 13 0
BBX 11 22 2 0
BITMAP
3E00
6600
6300
0000
0000
FF00
FF80
C180
C1C0
C0C0
C0C0
C1C0
C180
FF80
FE00
C600
C300
C380
C180
C1C0
C0C0
C0E0
ENDCHAR
STARTCHAR 0213
ENCODING 531
SWIDTH 468 0
DWIDTH 13 0
BBX 9 19 3 0
BITMAP
0800
3E00
3300
6300
0000
0000
7F80
FF80
C000
C000
C000
C000
C000
C000
C000
C000
C000
C000
C000
ENDCHAR
STARTCHAR 0214
ENCODING 532
SWIDTH 468 0
DWIDTH 13 0
BBX 12 23 1 0
BITMAP
2200
3300
1980
1CC0
0880
0000
E070
E070
E070
E070
E070
E070
E070
E070
E070
E070
E070
E070
E060
6060
70E0
7FC0
1F80
ENDCHAR
STARTCHAR 0215
ENCODING 533
SWIDTH 468 0
DWIDTH 13 0
BBX 10 19 2 0
BITMAP
4400
6600
7300
3300
1100
0000
C0C0
C0C0
C0C0
C0C0
C0C0
C0C0
C0C0
C0C0
C0C0
E0C0
E0C0
7FC0
3FC0
ENDCHAR
STARTCHAR 0216
ENCODING 534
SWIDTH 468 0
DWIDTH 13 0
BBX 12 22 1 0
BITMAP
0F00
1980
1080
0000
0000
E070
E070
E070
E070
E070
E070
E070
E070
E070
E070
E070
E070
E060
6060
70E0
7FC0
1F80
ENDCHAR
STARTCHAR 0217
ENCODING 535
SWIDTH 468 0
DWIDTH 13 0
BBX 10 19 2 0
BITMAP
0800
3E00
3300
2100
0000
0000
C0C0
C0C0
C0C0
C0C0
C0C0
C0C0
C0C0
C0C0
C0C0
E0C0
E0C0
7FC0
3FC0
ENDCHAR
STARTCHAR 0218
ENCODING 536
SWIDTH 468 0
DWIDTH 13 0
BBX 10 23 2 -5
BITMAP
0600
3FC0
7B80
E000
C000
C000
E000
7000
7C00
1F00
0780
01C0
00C0
00C0
00C0
81C0
FFC0
FF00
0000
0C00
1C00
3C00
3000
ENDCHAR
STARTCHAR 0219
ENCODING 537
SWIDTH 468 0
DWIDTH 13 0
BBX 10 18 2 -5
BITMAP
3F80
7F80
E000
C000
E000
7800
3F00
0780
01C0
00C0
80C0
FFC0
FF00
0000
0C00
1C00
3C00
3000
ENDCHAR
STARTCHAR 021A
ENCODING 538
SWIDTH 468 0
DWIDTH 13 0
BBX 12 22 1 -5
BITMAP
FFF0
FFF0
0600
0600
0600
0600
0600
0600
0600
0600
0600
0600
0600
0600
0600
0600
0600
0000
0600
0600
1E00
1C00
ENDCHAR
STARTCHAR 021B
ENCODING 539
SWIDTH 468 0
DWIDTH 13 0
BBX 10 22 2 -5
BITMAP
3800
3800
3800
3800
FFC0
FFC0
3800
3800
3800
3800
3800
3800
3800
1800
1800
1FC0
0FC0
0000
0300
0700
0F00
0C00
ENDCHAR
STARTCHAR 021C
ENCODING 540
SWIDTH 468 0
DWIDTH 13 0
BBX 12 23 1 -5
BITMAP
0800
FF80
F7C0
00E0
0060
0060
0060
0060
00C0
07C0
3F00
3FC0
00E0
0070
0070
0030
0030
0070
0060
01E0
FFC0
FF00
D000
ENDCHAR
STARTCHAR 021D
ENCODING 541
SWIDTH 468 0
DWIDTH 13 0
BBX 10 18 2 -5
BITMAP
FE00
FF80
0380
0180
0180
0180
0780
3E00
3F00
0380
01C0
00C0
00C0
01C0
0380
3F00
FC00
8000
ENDCHAR
STARTCHAR 021E
ENCODING 542
SWIDTH 468 0
DWIDTH 13 0
BBX 12 23 1 0
BITMAP
1080
1980
0F00
0600
0000
0000
E070
E070
E070
E070
E070
E070
E070
FFF0
FFF0
E070
E070
E070
E070
E070
E070
E070
E070
ENDCHAR
STARTCHAR 021F
ENCODING 543
SWIDTH 468 0
DWIDTH 13 0
BBX 10 23 2 0
BITMAP
8800
F800
6000
0000
0000
C000
C000
C000
C000
C000
FF00
FF80
C180
C1C0
C0C0
C0C0
C0C0
C0C0
C0C0
C0C0
C0C0
C0C0
C0C0
ENDCHAR
STARTCHAR 0220
ENCODING 544
SWIDTH 468 0
DWIDTH 13 0
BBX 12 23 1 -5
BITMAP
0E00
FFC0
FBC0
E0E0
E060
E070
E070
E070
E070
E070
E070
E070
E070
E070
E070
E070
E070
E070
0070
0070
0070
0070
0070
ENDCHAR
STARTCHAR 0221
ENCODING 545
SWIDTH 468 0
DWIDTH 13 0
BBX 13 24 1 -5
BITMAP
0300
0300
0300
0300
0300
0300
3B00
7F00
E700
C300
C300
C300
C300
C300
C300
C300
E300
7FF0
3FB8
0318
0718
0FB8
19F0
0040
ENDCHAR
STARTCHAR 0222
ENCODING 546
SWIDTH 468 0
DWIDTH 13 0
BBX 12 17 1 0
BITMAP
70C0
70E0
60E0
60E0
70E0
70C0
39C0
1F80
7FC0
6060
E070
C030
C030
E070
60E0
7FE0
1F80
ENDCHAR
STARTCHAR 0223
ENCODING 547
SWIDTH 468 0
DWIDTH 13 0
BBX 12 19 1 0
BITMAP
6060
6060
6060
6060
6060
60E0
70C0
3FC0
3FC0
70E0
E060
C070
C030
C030
C030
E070
70E0
7FC0
1F80
ENDCHAR
STARTCHAR 0224
ENCODING 548
SWIDTH 468 0
DWIDTH 13 0
BBX 12 22 1 -5
BITMAP
7FE0
7FE0
00E0
00C0
0180
0380
0300
0700
0E00
0C00
1C00
1800
3800
7000
6000
FFF0
FFF0
0070
0070
0060
01E0
0180
ENDCHAR
STARTCHAR 0225
ENCODING 549
SWIDTH 468 0
DWIDTH 13 0
BBX 10 18 2 -5
BITMAP
FFC0
FFC0
0380
0300
0600
0E00
1C00
1800
3000
7000
6000
FFC0
FFC0
00C0
00C0
01C0
0780
0600
ENDCHAR
STARTCHAR 0226
ENCODING 550
SWIDTH 468 0
DWIDTH 13 0
BBX 14 23 0 0
BITMAP
0300
0780
0780
0000
0000
0000
0780
0780
0780
0CC0
0CC0
0CC0
18E0
1860
1860
3070
3030
3FF0
7FF0
6038
6018
6018
E01C
ENDCHAR
STARTCHAR 0227
ENCODING 551
SWIDTH 468 0
DWIDTH 13 0
BBX 10 18 2 0
BITMAP
1C00
1E00
0C00
0000
0000
7F00
7F80
01C0
00C0
00C0
1FC0
7FC0
E0C0
C0C0
C0C0
C0C0
FFC0
7FC0
ENDCHAR
STARTCHAR 0228
ENCODING 552
SWIDTH 468 0
DWIDTH 13 0
BBX 10 22 3 -5
BITMAP
FF80
FF80
C000
C000
C000
C000
C000
FF00
FF00
C000
C000
C000
C000
C000
C000
FFC0
FFC0
0800
1C00
0E00
3C00
3800
ENDCHAR
STARTCHAR 0229
ENCODING 553
SWIDTH 468 0
DWIDTH 13 0
BBX 12 18 1 -5
BITMAP
1F80
3FC0
70E0
6060
E060
FFF0
FFF0
C000
E000
6000
7000
3FE0
1FE0
0600
0700
0300
0F00
0E00
ENDCHAR
STARTCHAR 022A
ENCODING 554
SWIDTH 468 0
DWIDTH 13 0
BBX 12 23 1 0
BITMAP
1F80
1F80
1080
39C0
39C0
0000
1F80
3FC0
70E0
6060
E070
C030
C030
C030
C030
C030
C030
C030
E070
6060
70E0
3FC0
1F80
ENDCHAR
STARTCHAR 022B
ENCODING 555
SWIDTH 468 0
DWIDTH 13 0
BBX 12 20 1 0
BITMAP
1F80
1F80
0000
39C0
39C0
0000
0000
1F80
3FC0
70E0
6060
E070
E070
C070
E070
E070
6060
70E0
3FC0
1F80
ENDCHAR
STARTCHAR 022C
ENCODING 556
SWIDTH 468 0
DWIDTH 13 0
BBX 12 23 1 0
BITMAP
1F80
1F80
0800
1F80
3380
0000
1F80
3FC0
70E0
6060
E070
C030
C030
C030
C030
C030
C030
C030
E070
6060
70E0
3FC0
1F80
ENDCHAR
STARTCHAR 022D
ENCODING 557
SWIDTH 468 0
DWIDTH 13 0
BBX 12 20 1 0
BITMAP
1F80
1F80
0000
1CC0
3780
0000
0000
1F80
3FC0
70E0
6060
E070
E070
C070
E070
E070
6060
70E0
3FC0
1F80
ENDCHAR
STARTCHAR 022E
ENCODING 558
SWIDTH 468 0
DWIDTH 13 0
BBX 12 22 1 0
BITMAP
0E00
0F00
0600
0000
0600
1F80
3FC0
70E0
6060
E070
C030
C030
C030
C030
C030
C030
C070
E070
6060
70E0
3FC0
1F80
ENDCHAR
STARTCHAR 022F
ENCODING 559
SWIDTH 468 0
DWIDTH 13 0
BBX 12 18 1 0
BITMAP
0E00
0F00
0600
0000
0000
1F80
3FC0
70E0
6060
E070
E070
C070
E070
E070
6060
70E0
3FC0
1F80
ENDCHAR
STARTCHAR 0230
ENCODING 560
SWIDTH 468 0
DWIDTH 13 0
BBX 12 23 1 0
BITMAP
1F80
1F80
0600
0600
0600
0000
1F80
3FC0
70E0
6060
E070
C030
C030
C030
C030
C030
C030
C030
E070
6060
70E0
3FC0
1F80
ENDCHAR
STARTCHAR 0231
ENCODING 561
SWIDTH 468 0
DWIDTH 13 0
BBX 12 20 1 0
BITMAP
1F80
1F80
0000
0600
0600
0000
0000
1F80
3FC0
70E0
6060
E070
E070
C070
E070
E070
6060
70E0
3FC0
1F80
ENDCHAR
STARTCHAR 0232
ENCODING 562
SWIDTH 468 0
DWIDTH 13 0
BBX 12 22 1 0
BITMAP
3F80
3F80
0000
0000
0000
C030
E070
E060
6060
70C0
30C0
3980
1980
0F00
0F00
0600
0600
0600
0600
0600
0600
0600
ENDCHAR
STARTCHAR 0233
ENCODING 563
SWIDTH 468 0
DWIDTH 13 0
BBX 12 23 1 -5
BITMAP
3F80
3F80
0000
0000
0000
E070
6060
6060
7060
30E0
30C0
38C0
19C0
1D80
0D80
0F80
0700
0700
0600
0600
9C00
F800
7000
ENDCHAR
STARTCHAR 0234
ENCODING 564
SWIDTH 468 0
DWIDTH 13 0
BBX 11 24 1 -5
BITMAP
FC00
FC00
1C00
1C00
1C00
1C00
1C00
1C00
1C00
1C00
1C00
1C00
1C00
1C00
1C00
1C00
1C00
1FC0
1CE0
1C60
3C60
3CE0
6FC0
0100
ENDCHAR
STARTCHAR 0235
ENCODING 565
SWIDTH 468 0
DWIDTH 13 0
BBX 13 18 1 -5
BITMAP
FC00
FE00
C700
C700
C300
C300
C300
C300
C300
C300
C300
C3F0
C3B8
0318
0718
0FB8
19F0
0040
ENDCHAR
STARTCHAR 0236
ENCODING 566
SWIDTH 468 0
DWIDTH 13 0
BBX 10 22 2 -5
BITMAP
3800
3800
3800
3800
FFC0
FFC0
3800
3800
3800
3800
3800
3800
3800
3800
3800
3F80
39C0
38C0
38C0
79C0
CF80
0200
ENDCHAR
STARTCHAR 0237
ENCODING 567
SWIDTH 468 0
DWIDTH 13 0
BBX 9 18 2 -5
BITMAP
7F80
7F80
0380
0380
0380
0380
0380
0380
0380
0380
0380
0380
0380
0380
0300
E700
FE00
3C00
ENDCHAR
STARTCHAR 0238
ENCODING 568
SWIDTH 468 0
DWIDTH 13 0
BBX 12 19 1 0
BITMAP
0600
0600
0600
0600
0600
0600
7FC0
7FE0
C670
C630
C630
C630
C630
C630
C630
C630
E670
7FE0
3FC0
ENDCHAR
STARTCHAR 0239
ENCODING 569
SWIDTH 468 0
DWIDTH 13 0
BBX 12 18 1 -5
BITMAP
3FC0
7FE0
E670
C630
C630
C630
C630
C630
C630
C630
C670
7FE0
7FE0
0600
0600
0600
0600
0600
ENDCHAR
STARTCHAR 023A
ENCODING 570
SWIDTH 468 0
DWIDTH 13 0
BBX 14 21 0 -3
BITMAP
0030
0020
07E0
07E0
07E0
0CC0
0CC0
0CC0
18E0
19E0
19E0
31F0
3330
3FF0
7FF0
6238
6618
6618
E61C
0C00
0C00
ENDCHAR
STARTCHAR 023B
ENCODING 571
SWIDTH 468 0
DWIDTH 13 0
BBX 12 21 1 -3
BITMAP
0060
01C0
0FF0
1FF0
38C0
7180
6180
6180
E180
E300
E300
E300
E200
6600
6600
7600
3C00
1FF0
0FE0
0800
1800
ENDCHAR
STARTCHAR 023C
ENCODING 572
SWIDTH 468 0
DWIDTH 13 0
BBX 12 17 1 -2
BITMAP
00C0
00C0
0FE0
3FE0
7980
6180
E100
E300
C300
C200
E600
6600
7400
3FE0
1FF0
0800
1800
ENDCHAR
STARTCHAR 023D
ENCODING 573
SWIDTH 468 0
DWIDTH 13 0
BBX 12 17 1 0
BITMAP
3000
3000
3000
3000
3000
3000
3000
FF00
FF00
3000
3000
3000
3000
3000
3000
3FF0
3FF0
ENDCHAR
STARTCHAR 023E
ENCODING 574
SWIDTH 468 0
DWIDTH 13 0
BBX 13 20 1 -1
BITMAP
0010
0018
FFF0
FFE0
0E60
0EC0
0FC0
0F80
0F00
0F00
0E00
0E00
0E00
1E00
3E00
3E00
6E00
EE00
CE00
8000
ENDCHAR
STARTCHAR 023F
ENCODING 575
SWIDTH 468 0
DWIDTH 13 0
BBX 10 18 2 -5
BITMAP
3F80
7F80
E000
C000
E000
7800
3F00
0780
01C0
00C0
81C0
FF80
FF00
7000
3800
1F00
07C0
01C0
ENDCHAR
STARTCHAR 0240
ENCODING 576
SWIDTH 468 0
DWIDTH 13 0
BBX 11 18 2 -5
BITMAP
FFC0
FFC0
0380
0300
0600
0E00
1C00
1800
3000
7000
6000
E000
F800
1C00
0E00
0780
03E0
0040
ENDCHAR
STARTCHAR 0241
ENCODING 577
SWIDTH 468 0
DWIDTH 13 0
BBX 10 18 2 0
BITMAP
0800
FF80
F3C0
00C0
00C0
00C0
00C0
03C0
0780
0E00
1C00
1800
1800
1800
1800
1800
1800
1800
ENDCHAR
STARTCHAR 0242
ENCODING 578
SWIDTH 468 0
DWIDTH 13 0
BBX 9 13 3 0
BITMAP
FE00
FF00
8380
0180
0380
0700
1E00
3C00
3800
3000
3000
3000
3000
ENDCHAR
STARTCHAR 0243
ENCODING 579
SWIDTH 468 0
DWIDTH 13 0
BBX 13 17 0 0
BITMAP
3FC0
3FE0
3060
3070
3070
3060
30E0
3FC0
3FE0
3070
3030
FE38
FE38
3030
3070
3FE0
3FC0
ENDCHAR
STARTCHAR 0244
ENCODING 580
SWIDTH 468 0
DWIDTH 13 0
BBX 13 17 0 0
BITMAP
3030
3030
3030
3030
3030
3030
3030
FFF8
FFF8
3030
3030
3030
3030
3870
3860
1FE0
0FC0
ENDCHAR
STARTCHAR 0245
ENCODING 581
SWIDTH 468 0
DWIDTH 13 0
BBX 14 17 0 0
BITMAP
0780
0780
0780
0DC0
0CC0
0CC0
18E0
1860
1860
3070
3030
3030
7030
6038
6018
6018
E01C
ENDCHAR
STARTCHAR 0246
ENCODING 582
SWIDTH 468 0
DWIDTH 13 0
BBX 10 22 3 -3
BITMAP
00C0
00C0
FF80
FF80
C180
C300
C300
C300
C600
FF80
FF80
CC00
CC00
CC00
D800
D800
D800
FFC0
FFC0
3000
6000
6000
ENDCHAR
STARTCHAR 0247
ENCODING 583
SWIDTH 468 0
DWIDTH 13 0
BBX 12 17 1 -2
BITMAP
0180
0180
1F80
3FC0
73E0
6360
E270
FFF0
FFF0
C400
EC00
6C00
7800
3FE0
1FE0
1000
3000
ENDCHAR
STARTCHAR 0248
ENCODING 584
SWIDTH 468 0
DWIDTH 13 0
BBX 11 17 2 0
BITMAP
3F80
3F80
0180
0180
0180
0180
0180
0FE0
0FE0
0180
0180
0180
0180
0180
8380
FF00
FE00
ENDCHAR
STARTCHAR 0249
ENCODING 585
SWIDTH 468 0
DWIDTH 13 0
BBX 11 24 2 -5
BITMAP
0200
0700
0700
0700
0000
0000
7F80
7F80
0380
0380
0380
7FE0
7FE0
0380
0380
0380
0380
0380
0380
0380
0300
E700
FE00
3C00
ENDCHAR
STARTCHAR 024A
ENCODING 586
SWIDTH 468 0
DWIDTH 13 0
BBX 13 23 1 -5
BITMAP
0400
3F80
7B80
60C0
E0C0
E0E0
C060
C060
C060
C060
C060
C060
C060
E0E0
60E0
61E0
3FE0
1F60
0060
0060
0070
0078
0018
ENDCHAR
STARTCHAR 024B
ENCODING 587
SWIDTH 468 0
DWIDTH 13 0
BBX 13 18 1 -5
BITMAP
1FC0
3FC0
70C0
60C0
E0C0
E0C0
C0C0
C0C0
E0C0
60C0
70C0
3FC0
1FC0
00C0
00E0
00E0
0078
0018
ENDCHAR
STARTCHAR 024C
ENCODING 588
SWIDTH 468 0
DWIDTH 13 0
BBX 13 17 0 0
BITMAP
3FC0
3FE0
3870
3830
3830
3830
3830
3870
FFE0
FFC0
39C0
38C0
38E0
3860
3870
3830
3838
ENDCHAR
STARTCHAR 024D
ENCODING 589
SWIDTH 468 0
DWIDTH 13 0
BBX 11 13 1 0
BITMAP
1FE0
3FE0
3000
3000
3000
3000
FF80
FF80
3000
3000
3000
3000
3000
ENDCHAR
STARTCHAR 024E
ENCODING 590
SWIDTH 468 0
DWIDTH 13 0
BBX 12 17 1 0
BITMAP
C030
E070
6060
70E0
FFF0
30C0
3980
1980
0F00
0F00
0600
0600
0600
0600
0600
0600
0600
ENDCHAR
STARTCHAR 024F
ENCODING 591
SWIDTH 468 0
DWIDTH 13 0
BBX 12 18 1 -5
BITMAP
6030
6070
7060
3060
3060
FFF0
FFF0
18C0
1DC0
0D80
0F80
0700
0700
0700
0600
0E00
FC00
6000
ENDCHAR
STARTCHAR 0292
ENCODING 658
SWIDTH 468 0
DWIDTH 13 0
BBX 11 18 1 -5
BITMAP
7FC0
7FC0
01C0
0380
0300
0700
0E00
1C00
1F80
01C0
00E0
0060
0060
00E0
00E0
67C0
FF80
0800
ENDCHAR
STARTCHAR 02BC
ENCODING 700
SWIDTH 468 0
DWIDTH 13 0
BBX 3 5 6 14
BITMAP
E0
C0
C0
C0
80
ENDCHAR
STARTCHAR 02C6
ENCODING 710
SWIDTH 468 0
DWIDTH 13 0
BBX 6 5 4 14
BITMAP
20
70
F8
CC
80
ENDCHAR
STARTCHAR 02C7
ENCODING 711
SWIDTH 468 0
DWIDTH 13 0
BBX 6 4 4 15
BITMAP
84
DC
78
30
ENDCHAR
STARTCHAR 02C9
ENCODING 713
SWIDTH 468 0
DWIDTH 13 0
BBX 7 2 3 16
BITMAP
FE
FE
ENDCHAR
STARTCHAR 02D8
ENCODING 728
SWIDTH 468 0
DWIDTH 13 0
BBX 6 4 4 15
BITMAP
84
8C
FC
78
ENDCHAR
STARTCHAR 02D9
ENCODING 729
SWIDTH 468 0
DWIDTH 13 0
BBX 4 3 5 15
BITMAP
E0
F0
60
ENDCHAR
STARTCHAR 02DA
ENCODING 730
SWIDTH 468 0
DWIDTH 13 0
BBX 5 5 4 14
BITMAP
78
C8
C8
78
30
ENDCHAR
STARTCHAR 02DB
ENCODING 731
SWIDTH 468 0
DWIDTH 13 0
BBX 4 5 5 -5
BITMAP
60
C0
C0
F0
60
ENDCHAR
STARTCHAR 02DC
ENCODING 732
SWIDTH 468 0
DWIDTH 13 0
BBX 8 3 3 15
BITMAP
73
FE
04
ENDCHAR
STARTCHAR 02DD
ENCODING 733
SWIDTH 468 0
DWIDTH 13 0
BBX 8 4 3 14
BITMAP
22
77
66
CC
ENDCHAR
STARTCHAR 0311
ENCODING 785
SWIDTH 468 0
DWIDTH 13 0
BBX 6 4 4 15
BITMAP
20
F8
CC
84
ENDCHAR
STARTCHAR 0384
ENCODING 900
SWIDTH 468 0
DWIDTH 13 0
BBX 4 4 5 14
BITMAP
30
70
E0
C0
ENDCHAR
STARTCHAR 0385
ENCODING 901
SWIDTH 468 0
DWIDTH 13 0
BBX 10 4 2 14
BITMAP
0400
CD80
D9C0
1880
ENDCHAR
STARTCHAR 0386
ENCODING 902
SWIDTH 468 0
DWIDTH 13 0
BBX 14 18 0 0
BITMAP
4000
7780
6780
6780
4CC0
4CC0
0CC0
18E0
1860
1860
3070
3030
3FF0
7FF0
6038
6018
6018
E01C
ENDCHAR
STARTCHAR 0388
ENCODING 904
SWIDTH 468 0
DWIDTH 13 0
BBX 15 18 -2 0
BITMAP
4000
67FC
67FC
6600
C600
4600
0600
0600
07F8
07F8
0600
0600
0600
0600
0600
0600
07FE
07FE
ENDCHAR
STARTCHAR 0389
ENCODING 905
SWIDTH 468 0
DWIDTH 13 0
BBX 16 17 -3 1
BITMAP
6E07
EE07
CE07
CE07
8E07
0E07
0E07
0FFF
0FFF
0E07
0E07
0E07
0E07
0E07
0E07
0E07
0E07
ENDCHAR
STARTCHAR 038A
ENCODING 906
SWIDTH 468 0
DWIDTH 13 0
BBX 13 17 -2 1
BITMAP
6FF8
6FF8
C0C0
C0C0
C0C0
00C0
00C0
00C0
00C0
00C0
00C0
00C0
00C0
00C0
00C0
0FF8
0FF8
ENDCHAR
STARTCHAR 038C
ENCODING 908
SWIDTH 468 0
DWIDTH 13 0
BBX 15 18 -2 0
BITMAP
00C0
63F0
67F8
EE1C
CC0C
DC0E
1806
1806
1806
1806
1806
1806
180E
1C0E
0C0C
0E1C
07F8
03F0
ENDCHAR
STARTCHAR 038E
ENCODING 910
SWIDTH 468 0
DWIDTH 13 0
BBX 16 18 -3 0
BITMAP
8000
EC03
CE07
CE06
C606
870C
030C
0398
0198
00F0
00F0
0060
0060
0060
0060
0060
0060
0060
ENDCHAR
STARTCHAR 038F
ENCODING 911
SWIDTH 468 0
DWIDTH 13 0
BBX 15 18 -2 0
BITMAP
00C0
63F0
67F8
CE1C
CC0C
DC0E
1806
1806
1806
1806
180E
1C0E
0C0C
0C0C
0E18
0618
3F3E
3F3E
ENDCHAR
STARTCHAR 0390
ENCODING 912
SWIDTH 468 0
DWIDTH 13 0
BBX 11 19 1 0
BITMAP
0600
EDC0
EDC0
5880
0000
0000
FE00
FE00
0E00
0E00
0E00
0E00
0E00
0E00
0E00
0E00
0E00
07E0
07E0
ENDCHAR
STARTCHAR 0391
ENCODING 913
SWIDTH 468 0
DWIDTH 13 0
BBX 14 17 0 0
BITMAP
0780
0780
0780
0CC0
0CC0
0CC0
18E0
1860
1860
3070
3030
3FF0
7FF0
6038
6018
6018
E01C
ENDCHAR
STARTCHAR 0392
ENCODING 914
SWIDTH 468 0
DWIDTH 13 0
BBX 11 17 1 0
BITMAP
FF80
FFC0
E0C0
E0E0
E0E0
E0C0
E1C0
FF80
FFC0
E0E0
E060
E060
E060
E060
E0E0
FFC0
FF80
ENDCHAR
STARTCHAR 0393
ENCODING 915
SWIDTH 468 0
DWIDTH 13 0
BBX 12 17 1 0
BITMAP
1FF0
1FF0
1800
1800
1800
1800
1800
1800
1800
1800
1800
1800
1800
1800
1800
FF80
FF80
ENDCHAR
STARTCHAR 0394
ENCODING 916
SWIDTH 468 0
DWIDTH 13 0
BBX 14 17 0 0
BITMAP
0780
0780
0780
0CC0
0CC0
0CC0
1860
1860
1860
3870
3030
3030
7030
6038
6018
7FF8
FFFC
ENDCHAR
STARTCHAR 0395
ENCODING 917
SWIDTH 468 0
DWIDTH 13 0
BBX 10 17 3 0
BITMAP
FF80
FF80
C000
C000
C000
C000
C000
FF00
FF00
C000
C000
C000
C000
C000
C000
FFC0
FFC0
ENDCHAR
STARTCHAR 0396
ENCODING 918
SWIDTH 468 0
DWIDTH 13 0
BBX 12 17 1 0
BITMAP
7FE0
7FE0
00E0
00C0
0180
0380
0300
0700
0E00
0C00
1C00
1800
3800
7000
6000
FFF0
FFF0
ENDCHAR
STARTCHAR 0397
ENCODING 919
SWIDTH 468 0
DWIDTH 13 0
BBX 12 17 1 0
BITMAP
E070
E070
E070
E070
E070
E070
E070
FFF0
FFF0
E070
E070
E070
E070
E070
E070
E070
E070
ENDCHAR
STARTCHAR 0398
ENCODING 920
SWIDTH 468 0
DWIDTH 13 0
BBX 12 18 1 0
BITMAP
0600
1F80
3FC0
70E0
6060
E070
C030
C030
CF30
CF30
C030
C030
C070
E070
6060
70E0
3FC0
1F80
ENDCHAR
STARTCHAR 0399
ENCODING 921
SWIDTH 468 0
DWIDTH 13 0
BBX 9 17 2 0
BITMAP
FF80
FF80
0C00
0C00
0C00
0C00
0C00
0C00
0C00
0C00
0C00
0C00
0C00
0C00
0C00
FF80
FF80
ENDCHAR
STARTCHAR 039A
ENCODING 922
SWIDTH 468 0
DWIDTH 13 0
BBX 11 17 2 0
BITMAP
C1C0
C180
C380
C700
CE00
CC00
DC00
F800
F800
DC00
CE00
C700
C300
C380
C1C0
C0C0
C0E0
ENDCHAR
STARTCHAR 039B
ENCODING 923
SWIDTH 468 0
DWIDTH 13 0
BBX 14 17 0 0
BITMAP
0780
0780
0780
0DC0
0CC0
0CC0
18E0
1860
1860
3070
3030
3030
7030
6038
6018
6018
E01C
ENDCHAR
STARTCHAR 039C
ENCODING 924
SWIDTH 468 0
DWIDTH 13 0
BBX 12 17 1 0
BITMAP
70E0
70E0
70E0
59E0
D9E0
D9A0
CB20
CF30
CF30
C630
C030
C030
C030
C030
C030
C030
C030
ENDCHAR
STARTCHAR 039D
ENCODING 925
SWIDTH 468 0
DWIDTH 13 0
BBX 10 17 2 0
BITMAP
C0C0
E0C0
E0C0
F0C0
F0C0
D8C0
D8C0
CCC0
CCC0
C6C0
C6C0
C3C0
C3C0
C1C0
C1C0
C1C0
C0C0
ENDCHAR
STARTCHAR 039E
ENCODING 926
SWIDTH 468 0
DWIDTH 13 0
BBX 12 17 1 0
BITMAP
FFF0
FFF0
0000
0000
0000
0000
0000
7FE0
7FE0
0000
0000
0000
0000
0000
0000
FFF0
FFF0
ENDCHAR
STARTCHAR 039F
ENCODING 927
SWIDTH 468 0
DWIDTH 13 0
BBX 12 18 1 0
BITMAP
0600
1F80
3FC0
70E0
6060
E070
C030
C030
C030
C030
C030
C030
C070
E070
6060
70E0
3FC0
1F80
ENDCHAR
STARTCHAR 03A0
ENCODING 928
SWIDTH 468 0
DWIDTH 13 0
BBX 12 17 1 0
BITMAP
FFF0
FFF0
E070
E070
E070
E070
E070
E070
E070
E070
E070
E070
E070
E070
E070
E070
E070
ENDCHAR
STARTCHAR 03A1
ENCODING 929
SWIDTH 468 0
DWIDTH 13 0
BBX 11 17 2 0
BITMAP
FF00
FFC0
C1C0
C0C0
C0E0
C0E0
C0E0
C0C0
C3C0
FF80
F800
C000
C000
C000
C000
C000
C000
ENDCHAR
STARTCHAR 03A3
ENCODING 931
SWIDTH 468 0
DWIDTH 13 0
BBX 11 17 1 0
BITMAP
FFE0
7FE0
7000
3800
1800
0C00
0E00
0700
0700
0E00
0C00
1800
3000
7000
6000
FFE0
FFE0
ENDCHAR
STARTCHAR 03A4
ENCODING 932
SWIDTH 468 0
DWIDTH 13 0
BBX 12 17 1 0
BITMAP
FFF0
FFF0
0600
0600
0600
0600
0600
0600
0600
0600
0600
0600
0600
0600
0600
0600
0600
ENDCHAR
STARTCHAR 03A5
ENCODING 933
SWIDTH 468 0
DWIDTH 13 0
BBX 12 17 1 0
BITMAP
C030
E070
E060
6060
70C0
30C0
3980
1980
0F00
0F00
0600
0600
0600
0600
0600
0600
0600
ENDCHAR
STARTCHAR 03A6
ENCODING 934
SWIDTH 468 0
DWIDTH 13 0
BBX 12 18 1 0
BITMAP
0600
0600
1F80
3FC0
76E0
6670
E670
E630
C630
C630
E630
E670
6660
76E0
3FC0
0F00
0600
0600
ENDCHAR
STARTCHAR 03A7
ENCODING 935
SWIDTH 468 0
DWIDTH 13 0
BBX 12 17 1 0
BITMAP
E060
60E0
70C0
31C0
3980
1B80
0F00
0F00
0F00
1F00
1B80
3980
30C0
70C0
60E0
E060
C070
ENDCHAR
STARTCHAR 03A8
ENCODING 936
SWIDTH 468 0
DWIDTH 13 0
BBX 12 17 1 0
BITMAP
C070
C070
C070
C070
C670
C670
C670
E670
E660
6660
76E0
3FC0
0F00
0600
0600
0600
0600
ENDCHAR
STARTCHAR 03A9
ENCODING 937
SWIDTH 468 0
DWIDTH 13 0
BBX 13 18 0 0
BITMAP
0300
0FC0
1FE0
3870
3030
7038
6018
6018
6018
6018
6038
7038
3030
3030
3860
1860
FCF8
FCF8
ENDCHAR
STARTCHAR 03AA
ENCODING 938
SWIDTH 468 0
DWIDTH 13 0
BBX 9 22 2 0
BITMAP
7300
7380
2300
0000
0000
FF80
FF80
0C00
0C00
0C00
0C00
0C00
0C00
0C00
0C00
0C00
0C00
0C00
0C00
0C00
FF80
FF80
ENDCHAR
STARTCHAR 03AB
ENCODING 939
SWIDTH 468 0
DWIDTH 13 0
BBX 12 22 1 0
BITMAP
3980
39C0
1180
0000
0000
C030
E070
E060
6060
70C0
30C0
3980
1980
0F00
0F00
0600
0600
0600
0600
0600
0600
0600
ENDCHAR
STARTCHAR 03AC
ENCODING 940
SWIDTH 468 0
DWIDTH 13 0
BBX 12 19 1 0
BITMAP
0180
0300
0700
0600
0400
0000
0FE0
3FE0
7060
6060
6060
E060
E060
E060
6060
6060
70E0
3FF0
1FB0
ENDCHAR
STARTCHAR 03AD
ENCODING 941
SWIDTH 468 0
DWIDTH 13 0
BBX 11 19 2 0
BITMAP
0300
0700
0600
0C00
0000
0000
3FC0
7FC0
E000
E000
6000
7F00
3F00
7000
C000
C000
E000
7FE0
3FE0
ENDCHAR
STARTCHAR 03AE
ENCODING 942
SWIDTH 468 0
DWIDTH 13 0
BBX 10 24 2 -5
BITMAP
0600
0600
0C00
1C00
0800
0000
FF00
FF80
C1C0
C1C0
C0C0
C0C0
C0C0
C0C0
C0C0
C0C0
C0C0
C0C0
C0C0
00C0
00C0
00C0
00C0
00C0
ENDCHAR
STARTCHAR 03AF
ENCODING 943
SWIDTH 468 0
DWIDTH 13 0
BBX 11 19 1 0
BITMAP
0300
0700
0600
0C00
0000
0000
FE00
FE00
0E00
0E00
0E00
0E00
0E00
0E00
0E00
0E00
0E00
07E0
07E0
ENDCHAR
STARTCHAR 03B0
ENCODING 944
SWIDTH 468 0
DWIDTH 13 0
BBX 10 19 2 0
BITMAP
0600
EDC0
EDC0
5880
0000
0000
C0C0
C0C0
C0C0
C0C0
C0C0
C0C0
C0C0
C0C0
C1C0
E1C0
E180
7F80
3F00
ENDCHAR
STARTCHAR 03B1
ENCODING 945
SWIDTH 468 0
DWIDTH 13 0
BBX 12 13 1 0
BITMAP
0FE0
3FE0
7060
6060
6060
E060
E060
E060
6060
6060
70E0
3FF0
1FB0
ENDCHAR
STARTCHAR 03B2
ENCODING 946
SWIDTH 468 0
DWIDTH 13 0
BBX 11 24 2 -5
BITMAP
3F00
7F80
E180
E180
C1C0
C180
C180
C700
CF00
C780
C1C0
C0C0
C0E0
C0E0
C0E0
C0E0
E1C0
FF80
FF00
C000
C000
C000
C000
C000
ENDCHAR
STARTCHAR 03B3
ENCODING 947
SWIDTH 468 0
DWIDTH 13 0
BBX 12 18 1 -5
BITMAP
C030
E070
6060
7060
30E0
30C0
38C0
19C0
1980
1F80
0F00
0F00
0E00
0E00
0E00
0600
0600
0600
ENDCHAR
STARTCHAR 03B4
ENCODING 948
SWIDTH 468 0
DWIDTH 13 0
BBX 12 19 1 0
BITMAP
0FC0
1FC0
3800
3000
3800
1E00
0F00
1F80
71C0
60E0
E060
E070
C070
C070
E070
E060
70E0
3FC0
1F80
ENDCHAR
STARTCHAR 03B5
ENCODING 949
SWIDTH 468 0
DWIDTH 13 0
BBX 11 13 2 0
BITMAP
3FC0
7FC0
E000
E000
6000
7F00
3F00
7000
C000
C000
E000
7FE0
3FE0
ENDCHAR
STARTCHAR 03B6
ENCODING 950
SWIDTH 468 0
DWIDTH 13 0
BBX 10 23 2 -5
BITMAP
FFC0
FFC0
0380
0700
0E00
1C00
3800
3000
7000
6000
E000
C000
C000
C000
C000
E000
7800
7F80
0FC0
00C0
00C0
00C0
00C0
ENDCHAR
STARTCHAR 03B7
ENCODING 951
SWIDTH 468 0
DWIDTH 13 0
BBX 10 18 2 -5
BITMAP
FF00
FF80
C1C0
C1C0
C0C0
C0C0
C0C0
C0C0
C0C0
C0C0
C0C0
C0C0
C0C0
00C0
00C0
00C0
00C0
00C0
ENDCHAR
STARTCHAR 03B8
ENCODING 952
SWIDTH 468 0
DWIDTH 13 0
BBX 12 19 1 0
BITMAP
1F00
3FC0
30C0
70E0
6060
6060
6060
E060
FFF0
FFF0
E070
E060
6060
6060
6060
60E0
30C0
3FC0
1F80
ENDCHAR
STARTCHAR 03B9
ENCODING 953
SWIDTH 468 0
DWIDTH 13 0
BBX 11 13 1 0
BITMAP
FE00
FE00
0E00
0E00
0E00
0E00
0E00
0E00
0E00
0E00
0E00
07E0
07E0
ENDCHAR
STARTCHAR 03BA
ENCODING 954
SWIDTH 468 0
DWIDTH 13 0
BBX 11 13 2 0
BITMAP
C0C0
C1C0
C300
C600
DC00
F800
F800
DC00
CF00
C380
C180
C1C0
C0E0
ENDCHAR
STARTCHAR 03BB
ENCODING 955
SWIDTH 468 0
DWIDTH 13 0
BBX 12 19 1 0
BITMAP
7800
7800
1C00
0C00
0600
0600
0700
0F00
0F80
1D80
1980
39C0
30C0
30C0
60E0
60E0
6060
E070
C070
ENDCHAR
STARTCHAR 03BC
ENCODING 956
SWIDTH 468 0
DWIDTH 13 0
BBX 10 18 2 -5
BITMAP
C0C0
C0C0
C0C0
C0C0
C0C0
C0C0
C0C0
C0C0
C0C0
E0C0
E0C0
FFC0
FFC0
C000
C000
C000
C000
C000
ENDCHAR
STARTCHAR 03BD
ENCODING 957
SWIDTH 468 0
DWIDTH 13 0
BBX 12 13 1 0
BITMAP
C030
E070
6060
6060
70E0
30C0
31C0
3980
1980
1F80
0F00
0F00
0600
ENDCHAR
STARTCHAR 03BE
ENCODING 958
SWIDTH 468 0
DWIDTH 13 0
BBX 11 23 2 -5
BITMAP
1FC0
3FC0
7000
6000
6000
6000
7000
3800
1F80
3F80
7000
E000
C000
C000
C000
E000
7800
3F80
0FC0
00C0
00E0
00C0
00C0
ENDCHAR
STARTCHAR 03BF
ENCODING 959
SWIDTH 468 0
DWIDTH 13 0
BBX 12 13 1 0
BITMAP
1F80
3FC0
70E0
6060
E070
E070
C070
E070
E070
6060
70E0
3FC0
1F80
ENDCHAR
STARTCHAR 03C0
ENCODING 960
SWIDTH 468 0
DWIDTH 13 0
BBX 10 13 2 0
BITMAP
FFC0
FFC0
C0C0
C0C0
C0C0
C0C0
C0C0
C0C0
C0C0
C0C0
C0C0
C0C0
C0C0
ENDCHAR
STARTCHAR 03C1
ENCODING 961
SWIDTH 468 0
DWIDTH 13 0
BBX 11 18 2 -5
BITMAP
3F00
7F80
61C0
E0C0
C0E0
C0E0
C0E0
C0E0
C0E0
C0C0
E1C0
FF80
FF00
C000
C000
C000
C000
C000
ENDCHAR
STARTCHAR 03C2
ENCODING 962
SWIDTH 468 0
DWIDTH 13 0
BBX 10 17 2 -5
BITMAP
1FC0
3FC0
7000
E000
C000
C000
C000
C000
C000
E000
7800
3F80
0FC0
00C0
00C0
00C0
00C0
ENDCHAR
STARTCHAR 03C3
ENCODING 963
SWIDTH 468 0
DWIDTH 13 0
BBX 12 13 1 0
BITMAP
0FF0
3FF0
79C0
60C0
E060
E060
C060
C060
E060
E0E0
70E0
3FC0
1F80
ENDCHAR
STARTCHAR 03C4
ENCODING 964
SWIDTH 468 0
DWIDTH 13 0
BBX 10 13 2 0
BITMAP
FFC0
FFC0
3800
3800
3800
3800
3800
3800
3800
1800
1800
1FC0
0FC0
ENDCHAR
STARTCHAR 03C5
ENCODING 965
SWIDTH 468 0
DWIDTH 13 0
BBX 10 13 2 0
BITMAP
C0C0
C0C0
C0C0
C0C0
C0C0
C0C0
C0C0
C0C0
C1C0
E1C0
E180
7F80
3F00
ENDCHAR
STARTCHAR 03C6
ENCODING 966
SWIDTH 468 0
DWIDTH 13 0
BBX 12 18 1 -5
BITMAP
1F80
3FC0
76E0
E670
C630
C630
C630
C630
C630
E670
66E0
7FC0
1F80
0600
0600
0600
0600
0600
ENDCHAR
STARTCHAR 03C7
ENCODING 967
SWIDTH 468 0
DWIDTH 13 0
BBX 12 13 1 0
BITMAP
E060
70E0
30C0
1980
1F80
0F00
0F00
0F80
1980
39C0
70E0
6060
C070
ENDCHAR
STARTCHAR 03C8
ENCODING 968
SWIDTH 468 0
DWIDTH 13 0
BBX 12 18 1 -5
BITMAP
C030
C030
C030
C630
C630
C630
C630
C670
C670
E660
6660
7FE0
3F80
0600
0600
0600
0600
0600
ENDCHAR
STARTCHAR 03C9
ENCODING 969
SWIDTH 468 0
DWIDTH 13 0
BBX 12 13 1 0
BITMAP
30C0
70E0
60E0
6060
E070
E670
C630
C630
C630
C630
EE70
7FE0
79E0
ENDCHAR
STARTCHAR 03CA
ENCODING 970
SWIDTH 468 0
DWIDTH 13 0
BBX 11 18 1 0
BITMAP
7380
7380
2100
0000
0000
FE00
FE00
0E00
0E00
0E00
0E00
0E00
0E00
0E00
0E00
0E00
07E0
07E0
ENDCHAR
STARTCHAR 03CB
ENCODING 971
SWIDTH 468 0
DWIDTH 13 0
BBX 10 18 2 0
BITMAP
7380
7380
2100
0000
0000
C0C0
C0C0
C0C0
C0C0
C0C0
C0C0
C0C0
C0C0
C1C0
E1C0
E180
7F80
3F00
ENDCHAR
STARTCHAR 03CC
ENCODING 972
SWIDTH 468 0
DWIDTH 13 0
BBX 12 19 1 0
BITMAP
0300
0300
0600
0E00
0400
0000
1F80
3FC0
70E0
6060
E070
E070
C070
E070
E070
6060
70E0
3FC0
1F80
ENDCHAR
STARTCHAR 03CD
ENCODING 973
SWIDTH 468 0
DWIDTH 13 0
BBX 10 19 2 0
BITMAP
0600
0600
0C00
1C00
0800
0000
C0C0
C0C0
C0C0
C0C0
C0C0
C0C0
C0C0
C0C0
C1C0
E1C0
E180
7F80
3F00
ENDCHAR
STARTCHAR 03CE
ENCODING 974
SWIDTH 468 0
DWIDTH 13 0
BBX 12 19 1 0
BITMAP
0300
0300
0600
0E00
0400
0000
30C0
70E0
60E0
6060
E070
E670
C630
C630
C630
C630
EE70
7FE0
79E0
ENDCHAR
STARTCHAR 0400
ENCODING 1024
SWIDTH 468 0
DWIDTH 13 0
BBX 10 23 3 0
BITMAP
1000
3800
1C00
0C00
0400
0000
FF80
FF80
C000
C000
C000
C000
C000
FF00
FF00
C000
C000
C000
C000
C000
C000
FFC0
FFC0
ENDCHAR
STARTCHAR 0401
ENCODING 1025
SWIDTH 468 0
DWIDTH 13 0
BBX 10 22 3 0
BITMAP
6300
7700
6300
0000
0000
FF80
FF80
C000
C000
C000
C000
C000
FF00
FF00
C000
C000
C000
C000
C000
C000
FFC0
FFC0
ENDCHAR
STARTCHAR 0402
ENCODING 1026
SWIDTH 468 0
DWIDTH 13 0
BBX 13 17 0 0
BITMAP
FFC0
FFC0
1800
1800
1800
1800
1F80
1FE0
1870
1830
1838
1838
1838
1838
1870
19F0
19C0
ENDCHAR
STARTCHAR 0403
ENCODING 1027
SWIDTH 468 0
DWIDTH 13 0
BBX 12 23 1 0
BITMAP
0080
00C0
0180
0300
0000
0000
1FF0
1FF0
1800
1800
1800
1800
1800
1800
1800
1800
1800
1800
1800
1800
1800
FF80
FF80
ENDCHAR
STARTCHAR 0404
ENCODING 1028
SWIDTH 468 0
DWIDTH 13 0
BBX 12 18 1 0
BITMAP
0380
1FF0
3EE0
7000
6000
6000
E000
C000
FF80
FF80
C000
C000
E000
6000
7000
3800
3FF0
0FE0
ENDCHAR
STARTCHAR 0405
ENCODING 1029
SWIDTH 468 0
DWIDTH 13 0
BBX 10 18 2 0
BITMAP
0600
3FC0
7B80
E000
C000
C000
E000
7000
7C00
1F00
0780
01C0
00C0
00C0
00C0
81C0
FFC0
FF00
ENDCHAR
STARTCHAR 0406
ENCODING 1030
SWIDTH 468 0
DWIDTH 13 0
BBX 9 17 2 0
BITMAP
FF80
FF80
0C00
0C00
0C00
0C00
0C00
0C00
0C00
0C00
0C00
0C00
0C00
0C00
0C00
FF80
FF80
ENDCHAR
STARTCHAR 0407
ENCODING 1031
SWIDTH 468 0
DWIDTH 13 0
BBX 9 22 2 0
BITMAP
7300
7380
2300
0000
0000
FF80
FF80
0C00
0C00
0C00
0C00
0C00
0C00
0C00
0C00
0C00
0C00
0C00
0C00
0C00
FF80
FF80
ENDCHAR
STARTCHAR 0408
ENCODING 1032
SWIDTH 468 0
DWIDTH 13 0
BBX 10 17 2 0
BITMAP
3FC0
3FC0
01C0
01C0
01C0
01C0
01C0
01C0
01C0
01C0
01C0
01C0
01C0
0180
8380
FF80
FF00
ENDCHAR
STARTCHAR 0409
ENCODING 1033
SWIDTH 468 0
DWIDTH 13 0
BBX 13 17 0 0
BITMAP
3F00
3F00
3B00
3B00
3B00
3B00
33E0
33F0
3338
3318
3318
3318
3318
3318
7318
E3F0
C3E0
ENDCHAR
STARTCHAR 040A
ENCODING 1034
SWIDTH 468 0
DWIDTH 13 0
BBX 12 17 1 0
BITMAP
C600
C600
C600
C600
C600
C600
FFC0
FFE0
C670
C630
C630
C630
C630
C630
C630
C7E0
C7C0
ENDCHAR
STARTCHAR 040B
ENCODING 1035
SWIDTH 468 0
DWIDTH 13 0
BBX 12 17 0 0
BITMAP
FFC0
FFC0
1800
1800
1800
1800
1FC0
1FE0
1870
1830
1830
1830
1830
1830
1830
1830
1830
ENDCHAR
STARTCHAR 040C
ENCODING 1036
SWIDTH 468 0
DWIDTH 13 0
BBX 11 23 2 0
BITMAP
0400
0600
0C00
1800
0000
0000
C0E0
C1C0
C380
C300
C700
CE00
DC00
F800
F800
DC00
CE00
C700
C380
C1C0
C0C0
C0E0
C060
ENDCHAR
STARTCHAR 040D
ENCODING 1037
SWIDTH 468 0
DWIDTH 13 0
BBX 10 23 2 0
BITMAP
0800
1800
0C00
0600
0000
0000
C0C0
C1C0
C1C0
C3C0
C7C0
C6C0
CEC0
CCC0
CCC0
D8C0
D8C0
F0C0
F0C0
E0C0
E0C0
C0C0
C0C0
ENDCHAR
STARTCHAR 040E
ENCODING 1038
SWIDTH 468 0
DWIDTH 13 0
BBX 13 22 1 0
BITMAP
30C0
1F80
0F00
0000
0000
C038
C030
E070
6060
7060
30E0
38C0
18C0
1DC0
0D80
0780
0700
0300
0600
0E00
FC00
F800
ENDCHAR
STARTCHAR 040F
ENCODING 1039
SWIDTH 468 0
DWIDTH 13 0
BBX 12 22 1 -5
BITMAP
E070
E070
E070
E070
E070
E070
E070
E070
E070
E070
E070
E070
E070
E070
E070
FFF0
FFF0
0600
0600
0600
0600
0600
ENDCHAR
STARTCHAR 0410
ENCODING 1040
SWIDTH 468 0
DWIDTH 13 0
BBX 14 17 0 0
BITMAP
0780
0780
0780
0CC0
0CC0
0CC0
18E0
1860
1860
3070
3030
3FF0
7FF0
6038
6018
6018
E01C
ENDCHAR
STARTCHAR 0411
ENCODING 1041
SWIDTH 468 0
DWIDTH 13 0
BBX 12 17 1 0
BITMAP
FFC0
FFC0
E000
E000
E000
E000
FC00
FFC0
E1E0
E060
E060
E070
E060
E060
E0E0
FFC0
FF00
ENDCHAR
STARTCHAR 0412
ENCODING 1042
SWIDTH 468 0
DWIDTH 13 0
BBX 12 17 1 0
BITMAP
FF80
FFC0
E0C0
E0E0
E0E0
E0C0
E1C0
FF80
FFC0
E0E0
E060
E070
E070
E060
E0E0
FFC0
FF80
ENDCHAR
STARTCHAR 0413
ENCODING 1043
SWIDTH 468 0
DWIDTH 13 0
BBX 12 17 1 0
BITMAP
1FF0
1FF0
1800
1800
1800
1800
1800
1800
1800
1800
1800
1800
1800
1800
1800
FF80
FF80
ENDCHAR
STARTCHAR 0414
ENCODING 1044
SWIDTH 468 0
DWIDTH 13 0
BBX 13 22 0 -5
BITMAP
0FF0
0FF0
0C30
0C30
0C30
0C30
0C30
0C30
0C30
0C30
1C30
1C30
1830
3830
3030
FFF8
FFF8
E018
E018
E018
E018
E018
ENDCHAR
STARTCHAR 0415
ENCODING 1045
SWIDTH 468 0
DWIDTH 13 0
BBX 10 17 3 0
BITMAP
FF80
FF80
C000
C000
C000
C000
C000
FF00
FF00
C000
C000
C000
C000
C000
C000
FFC0
FFC0
ENDCHAR
STARTCHAR 0416
ENCODING 1046
SWIDTH 468 0
DWIDTH 13 0
BBX 14 17 0 0
BITMAP
6318
6318
3330
3330
1B60
1B60
0FC0
0FC0
0FC0
1B60
1B60
3330
3330
7338
6318
6318
E31C
ENDCHAR
STARTCHAR 0417
ENCODING 1047
SWIDTH 468 0
DWIDTH 13 0
BBX 12 17 1 1
BITMAP
7F80
7BC0
00E0
0060
0060
00E0
01C0
1F80
1FC0
00E0
0070
0030
0030
0070
0060
FFE0
7FC0
ENDCHAR
STARTCHAR 0418
ENCODING 1048
SWIDTH 468 0
DWIDTH 13 0
BBX 10 17 2 0
BITMAP
C0C0
C1C0
C1C0
C3C0
C7C0
C6C0
CEC0
CCC0
CCC0
D8C0
D8C0
F0C0
F0C0
E0C0
E0C0
C0C0
C0C0
ENDCHAR
STARTCHAR 0419
ENCODING 1049
SWIDTH 468 0
DWIDTH 13 0
BBX 10 22 2 0
BITMAP
6180
3F00
1E00
0000
0000
C0C0
C1C0
C1C0
C3C0
C7C0
C6C0
CEC0
CCC0
CCC0
D8C0
D8C0
F0C0
F0C0
E0C0
E0C0
C0C0
C0C0
ENDCHAR
STARTCHAR 041A
ENCODING 1050
SWIDTH 468 0
DWIDTH 13 0
BBX 11 17 2 0
BITMAP
C0E0
C1C0
C380
C300
C700
CE00
DC00
F800
F800
DC00
CE00
C700
C380
C1C0
C0C0
C0E0
C060
ENDCHAR
STARTCHAR 041B
ENCODING 1051
SWIDTH 468 0
DWIDTH 13 0
BBX 13 17 0 0
BITMAP
0FF8
0FF8
0E38
0E38
0E38
0C38
0C38
0C38
0C38
0C38
0C38
1C38
1838
1838
3838
F038
6038
ENDCHAR
STARTCHAR 041C
ENCODING 1052
SWIDTH 468 0
DWIDTH 13 0
BBX 12 17 1 0
BITMAP
70E0
70E0
70E0
51E0
59A0
59A0
C920
CF30
CF30
C630
C030
C030
C030
C030
C030
C030
C030
ENDCHAR
STARTCHAR 041D
ENCODING 1053
SWIDTH 468 0
DWIDTH 13 0
BBX 12 17 1 0
BITMAP
E070
E070
E070
E070
E070
E070
E070
FFF0
FFF0
E070
E070
E070
E070
E070
E070
E070
E070
ENDCHAR
STARTCHAR 041E
ENCODING 1054
SWIDTH 468 0
DWIDTH 13 0
BBX 12 18 1 0
BITMAP
0600
1F80
3FC0
70E0
6060
E070
C030
C030
C030
C030
C030
C030
C070
E070
6060
70E0
3FC0
1F80
ENDCHAR
STARTCHAR 041F
ENCODING 1055
SWIDTH 468 0
DWIDTH 13 0
BBX 12 17 1 0
BITMAP
FFF0
FFF0
E070
E070
E070
E070
E070
E070
E070
E070
E070
E070
E070
E070
E070
E070
E070
ENDCHAR
STARTCHAR 0420
ENCODING 1056
SWIDTH 468 0
DWIDTH 13 0
BBX 11 17 2 0
BITMAP
FF00
FF80
C1C0
C0C0
C0E0
C0E0
C0C0
C0C0
C7C0
FF80
F800
C000
C000
C000
C000
C000
C000
ENDCHAR
STARTCHAR 0421
ENCODING 1057
SWIDTH 468 0
DWIDTH 13 0
BBX 12 18 1 0
BITMAP
0380
0FE0
1EE0
3800
7000
6000
6000
E000
E000
E000
E000
E000
6000
6000
7000
3800
1FF0
0FE0
ENDCHAR
STARTCHAR 0422
ENCODING 1058
SWIDTH 468 0
DWIDTH 13 0
BBX 12 17 1 0
BITMAP
FFF0
FFF0
0600
0600
0600
0600
0600
0600
0600
0600
0600
0600
0600
0600
0600
0600
0600
ENDCHAR
STARTCHAR 0423
ENCODING 1059
SWIDTH 468 0
DWIDTH 13 0
BBX 13 17 1 0
BITMAP
C038
C030
E070
6060
7060
30E0
38C0
18C0
1DC0
0D80
0780
0700
0300
0600
0E00
FC00
F800
ENDCHAR
STARTCHAR 0424
ENCODING 1060
SWIDTH 468 0
DWIDTH 13 0
BBX 12 18 1 0
BITMAP
0600
0600
1F80
3FC0
76E0
6670
E670
E630
C630
C630
E630
E670
6660
76E0
3FC0
0F00
0600
0600
ENDCHAR
STARTCHAR 0425
ENCODING 1061
SWIDTH 468 0
DWIDTH 13 0
BBX 12 17 1 0
BITMAP
E070
6060
70C0
31C0
1980
1B80
0F00
0F00
0F00
1F00
1980
39C0
30C0
70E0
6060
E070
C070
ENDCHAR
STARTCHAR 0426
ENCODING 1062
SWIDTH 468 0
DWIDTH 13 0
BBX 12 22 1 -5
BITMAP
E060
E060
E060
E060
E060
E060
E060
E060
E060
E060
E060
E060
E060
E060
E060
FFF0
FFF0
0030
0030
0030
0030
0030
ENDCHAR
STARTCHAR 0427
ENCODING 1063
SWIDTH 468 0
DWIDTH 13 0
BBX 11 17 1 0
BITMAP
E060
E060
E060
E060
E060
6060
6060
6060
7060
3FE0
1FE0
0060
0060
0060
0060
0060
0060
ENDCHAR
STARTCHAR 0428
ENCODING 1064
SWIDTH 468 0
DWIDTH 13 0
BBX 12 17 1 0
BITMAP
C030
C030
C030
C030
C030
C030
C630
C630
C630
C630
C630
C630
C630
C630
C630
FFF0
FFF0
ENDCHAR
STARTCHAR 0429
ENCODING 1065
SWIDTH 468 0
DWIDTH 13 0
BBX 12 22 1 -5
BITMAP
C060
C060
C060
C060
C060
C060
C660
C660
C660
C660
C660
C660
C660
C660
C660
FFF0
FFF0
0030
0030
0030
0030
0030
ENDCHAR
STARTCHAR 042A
ENCODING 1066
SWIDTH 468 0
DWIDTH 13 0
BBX 13 17 0 0
BITMAP
F800
F800
1800
1800
1800
1800
1FC0
1FE0
1870
1830
1838
1838
1838
1838
1870
1FF0
1FC0
ENDCHAR
STARTCHAR 042B
ENCODING 1067
SWIDTH 468 0
DWIDTH 13 0
BBX 12 17 1 0
BITMAP
C030
C030
C030
C030
C030
C030
FC30
FE30
C730
C330
C330
C330
C330
C330
C730
FE30
FC30
ENDCHAR
STARTCHAR 042C
ENCODING 1068
SWIDTH 468 0
DWIDTH 13 0
BBX 12 17 1 0
BITMAP
E000
E000
E000
E000
E000
E000
FF00
FFC0
E0E0
E060
E070
E070
E070
E070
E0E0
FFC0
FF80
ENDCHAR
STARTCHAR 042D
ENCODING 1069
SWIDTH 468 0
DWIDTH 13 0
BBX 12 18 1 0
BITMAP
0C00
FF80
77C0
00E0
0060
0070
0070
0030
1FF0
1FF0
0030
0030
0070
0060
00E0
01C0
7FC0
7F00
ENDCHAR
STARTCHAR 042E
ENCODING 1070
SWIDTH 468 0
DWIDTH 13 0
BBX 12 18 1 0
BITMAP
0080
C3C0
C760
C660
CE30
CC30
CC30
CC30
FC30
FC30
CC30
CC30
CC30
CE30
C670
C660
C7E0
C3C0
ENDCHAR
STARTCHAR 042F
ENCODING 1071
SWIDTH 468 0
DWIDTH 13 0
BBX 11 17 2 0
BITMAP
1FE0
7FE0
70E0
E0E0
E0E0
E0E0
E0E0
60E0
3FE0
1FE0
18E0
38E0
30E0
70E0
60E0
E0E0
C0E0
ENDCHAR
STARTCHAR 0430
ENCODING 1072
SWIDTH 468 0
DWIDTH 13 0
BBX 10 13 2 0
BITMAP
7F00
7F80
01C0
00C0
00C0
1FC0
7FC0
E0C0
C0C0
C0C0
C0C0
FFC0
7FC0
ENDCHAR
STARTCHAR 0431
ENCODING 1073
SWIDTH 468 0
DWIDTH 13 0
BBX 12 19 1 0
BITMAP
01E0
0FE0
1E00
3800
7000
6000
6600
FFC0
F9E0
E060
E070
E070
E070
E070
6070
6060
70E0
3FC0
1F80
ENDCHAR
STARTCHAR 0432
ENCODING 1074
SWIDTH 468 0
DWIDTH 13 0
BBX 11 13 2 0
BITMAP
FF00
FF80
C1C0
C0C0
C1C0
FF80
FF80
C1C0
C0C0
C0E0
C0C0
FFC0
FF80
ENDCHAR
STARTCHAR 0433
ENCODING 1075
SWIDTH 468 0
DWIDTH 13 0
BBX 9 13 3 0
BITMAP
FF80
FF80
C000
C000
C000
C000
C000
C000
C000
C000
C000
C000
C000
ENDCHAR
STARTCHAR 0434
ENCODING 1076
SWIDTH 468 0
DWIDTH 13 0
BBX 12 17 1 -4
BITMAP
1FE0
1FE0
1860
1860
1860
1860
1860
3860
3060
3060
6060
FFF0
FFF0
C030
C030
C030
C030
ENDCHAR
STARTCHAR 0435
ENCODING 1077
SWIDTH 468 0
DWIDTH 13 0
BBX 12 13 1 0
BITMAP
1F80
3FC0
70E0
6060
E060
FFF0
FFF0
C000
E000
6000
7000
3FE0
1FE0
ENDCHAR
STARTCHAR 0436
ENCODING 1078
SWIDTH 468 0
DWIDTH 13 0
BBX 13 13 0 0
BITMAP
6318
3330
3330
1B60
1B40
0FC0
0FC0
1FC0
1B60
3330
7330
6318
E318
ENDCHAR
STARTCHAR 0437
ENCODING 1079
SWIDTH 468 0
DWIDTH 13 0
BBX 10 13 2 0
BITMAP
FF00
7F80
01C0
00C0
01C0
3F80
3F80
01C0
00C0
00C0
00C0
FFC0
FF80
ENDCHAR
STARTCHAR 0438
ENCODING 1080
SWIDTH 468 0
DWIDTH 13 0
BBX 10 13 2 0
BITMAP
C0C0
C1C0
C3C0
C3C0
C6C0
CCC0
CCC0
D8C0
F0C0
F0C0
E0C0
E0C0
C0C0
ENDCHAR
STARTCHAR 0439
ENCODING 1081
SWIDTH 468 0
DWIDTH 13 0
BBX 10 18 2 0
BITMAP
3180
3F00
1E00
0000
0000
C0C0
C1C0
C3C0
C3C0
C6C0
CCC0
CCC0
D8C0
F0C0
F0C0
E0C0
E0C0
C0C0
ENDCHAR
STARTCHAR 043A
ENCODING 1082
SWIDTH 468 0
DWIDTH 13 0
BBX 11 13 2 0
BITMAP
C0C0
C1C0
C300
C600
DC00
F800
F800
DC00
CF00
C380
C180
C1C0
C0E0
ENDCHAR
STARTCHAR 043B
ENCODING 1083
SWIDTH 468 0
DWIDTH 13 0
BBX 12 13 0 0
BITMAP
0FF0
0FF0
0E30
0E30
0C30
0C30
0C30
0C30
1C30
1C30
3830
F030
6030
ENDCHAR
STARTCHAR 043C
ENCODING 1084
SWIDTH 468 0
DWIDTH 13 0
BBX 12 13 1 0
BITMAP
6060
6060
F0E0
F0F0
D1B0
D9B0
D930
CF30
CF30
CE30
C030
C030
C030
ENDCHAR
STARTCHAR 043D
ENCODING 1085
SWIDTH 468 0
DWIDTH 13 0
BBX 10 13 2 0
BITMAP
C0C0
C0C0
C0C0
C0C0
C0C0
FFC0
FFC0
C0C0
C0C0
C0C0
C0C0
C0C0
C0C0
ENDCHAR
STARTCHAR 043E
ENCODING 1086
SWIDTH 468 0
DWIDTH 13 0
BBX 12 13 1 0
BITMAP
1F80
3FC0
70E0
6060
E070
E070
C070
E070
E070
6060
70E0
3FC0
1F80
ENDCHAR
STARTCHAR 043F
ENCODING 1087
SWIDTH 468 0
DWIDTH 13 0
BBX 10 13 2 0
BITMAP
FFC0
FFC0
C0C0
C0C0
C0C0
C0C0
C0C0
C0C0
C0C0
C0C0
C0C0
C0C0
C0C0
ENDCHAR
STARTCHAR 0440
ENCODING 1088
SWIDTH 468 0
DWIDTH 13 0
BBX 11 18 2 -5
BITMAP
FF00
FF80
C1C0
C0C0
C0E0
C0E0
C0E0
C0E0
C0E0
C0C0
E1C0
FF80
FF00
C000
C000
C000
C000
C000
ENDCHAR
STARTCHAR 0441
ENCODING 1089
SWIDTH 468 0
DWIDTH 13 0
BBX 12 13 1 0
BITMAP
0FE0
3FE0
7800
7000
6000
E000
E000
E000
6000
7000
7800
3FE0
0FF0
ENDCHAR
STARTCHAR 0442
ENCODING 1090
SWIDTH 468 0
DWIDTH 13 0
BBX 10 13 2 0
BITMAP
FFC0
FFC0
0C00
0C00
0C00
0C00
0C00
0C00
0C00
0C00
0C00
0C00
0C00
ENDCHAR
STARTCHAR 0443
ENCODING 1091
SWIDTH 468 0
DWIDTH 13 0
BBX 12 18 1 -5
BITMAP
E070
6060
6060
7060
30E0
30C0
38C0
19C0
1D80
0D80
0F80
0700
0700
0600
0600
9C00
F800
7000
ENDCHAR
STARTCHAR 0444
ENCODING 1092
SWIDTH 468 0
DWIDTH 13 0
BBX 12 24 1 -5
BITMAP
0600
0600
0600
0600
0600
0600
1F80
3FC0
76E0
E670
C630
C630
C630
C630
C630
E670
66E0
7FC0
1F80
0600
0600
0600
0600
0600
ENDCHAR
STARTCHAR 0445
ENCODING 1093
SWIDTH 468 0
DWIDTH 13 0
BBX 12 13 1 0
BITMAP
E060
70E0
30C0
1980
1F80
0F00
0F00
0F80
1980
39C0
70E0
6060
C070
ENDCHAR
STARTCHAR 0446
ENCODING 1094
SWIDTH 468 0
DWIDTH 13 0
BBX 11 17 2 -4
BITMAP
C0C0
C0C0
C0C0
C0C0
C0C0
C0C0
C0C0
C0C0
C0C0
C0C0
C0C0
FFE0
FFE0
0060
0060
0060
0060
ENDCHAR
STARTCHAR 0447
ENCODING 1095
SWIDTH 468 0
DWIDTH 13 0
BBX 11 13 1 0
BITMAP
E060
E060
E060
E060
6060
6060
7FE0
3FE0
0060
0060
0060
0060
0060
ENDCHAR
STARTCHAR 0448
ENCODING 1096
SWIDTH 468 0
DWIDTH 13 0
BBX 12 13 1 0
BITMAP
C030
C030
C030
C630
C630
C630
C630
C630
C630
C630
C630
FFF0
FFF0
ENDCHAR
STARTCHAR 0449
ENCODING 1097
SWIDTH 468 0
DWIDTH 13 0
BBX 12 17 1 -4
BITMAP
C060
C060
C060
CE60
CE60
CE60
CE60
CE60
CE60
CE60
CE60
FFF0
FFF0
0030
0030
0030
0030
ENDCHAR
STARTCHAR 044A
ENCODING 1098
SWIDTH 468 0
DWIDTH 13 0
BBX 13 13 0 0
BITMAP
F800
F800
1800
1800
1800
1FE0
1FF0
1838
1818
1818
1838
1FF0
1FE0
ENDCHAR
STARTCHAR 044B
ENCODING 1099
SWIDTH 468 0
DWIDTH 13 0
BBX 12 13 1 0
BITMAP
C070
C070
C070
C070
C070
FE70
FF70
C370
C370
C370
C370
FF70
FE70
ENDCHAR
STARTCHAR 044C
ENCODING 1100
SWIDTH 468 0
DWIDTH 13 0
BBX 11 13 2 0
BITMAP
C000
C000
C000
C000
C000
FF80
FFC0
C0E0
C0E0
C0E0
C0E0
FFC0
FF80
ENDCHAR
STARTCHAR 044D
ENCODING 1101
SWIDTH 468 0
DWIDTH 13 0
BBX 11 13 2 0
BITMAP
FE00
FF80
03C0
00C0
00E0
1FE0
1FE0
00E0
00E0
00C0
01C0
FF80
FE00
ENDCHAR
STARTCHAR 044E
ENCODING 1102
SWIDTH 468 0
DWIDTH 13 0
BBX 12 13 1 0
BITMAP
E3C0
E7E0
E670
E630
E630
EE30
FE30
FE30
E630
E630
E670
E7E0
E3C0
ENDCHAR
STARTCHAR 044F
ENCODING 1103
SWIDTH 468 0
DWIDTH 13 0
BBX 11 13 1 0
BITMAP
1FE0
3FE0
7060
6060
6060
7060
3FE0
1FE0
1860
3060
7060
6060
E060
ENDCHAR
STARTCHAR 0450
ENCODING 1104
SWIDTH 468 0
DWIDTH 13 0
BBX 12 19 1 0
BITMAP
0C00
0C00
0600
0300
0000
0000
1F80
3FC0
70E0
6060
E060
FFF0
FFF0
C000
E000
6000
7000
3FE0
1FE0
ENDCHAR
STARTCHAR 0451
ENCODING 1105
SWIDTH 468 0
DWIDTH 13 0
BBX 12 18 1 0
BITMAP
19C0
19C0
1080
0000
0000
1F80
3FC0
70E0
6060
E060
FFF0
FFF0
C000
E000
6000
7000
3FE0
1FE0
ENDCHAR
STARTCHAR 0452
ENCODING 1106
SWIDTH 468 0
DWIDTH 13 0
BBX 11 24 1 -5
BITMAP
7000
7000
FF00
FF00
7000
7000
7F80
7FC0
70C0
70E0
7060
7060
7060
7060
7060
7060
7060
7060
7060
0060
0060
00E0
03C0
0300
ENDCHAR
STARTCHAR 0453
ENCODING 1107
SWIDTH 468 0
DWIDTH 13 0
BBX 9 19 3 0
BITMAP
0200
0700
0E00
1C00
0800
0000
FF80
FF80
C000
C000
C000
C000
C000
C000
C000
C000
C000
C000
C000
ENDCHAR
STARTCHAR 0454
ENCODING 1108
SWIDTH 468 0
DWIDTH 13 0
BBX 11 13 1 0
BITMAP
0FE0
3FE0
7800
7000
6000
FF80
FF80
E000
6000
6000
7800
3FE0
0FE0
ENDCHAR
STARTCHAR 0455
ENCODING 1109
SWIDTH 468 0
DWIDTH 13 0
BBX 10 13 2 0
BITMAP
3F80
7F80
E000
C000
E000
7800
3F00
0780
01C0
00C0
80C0
FFC0
FF00
ENDCHAR
STARTCHAR 0456
ENCODING 1110
SWIDTH 468 0
DWIDTH 13 0
BBX 11 19 1 0
BITMAP
0800
1C00
1E00
1C00
0000
0000
FE00
FE00
0E00
0E00
0E00
0E00
0E00
0E00
0E00
0E00
0E00
07E0
03E0
ENDCHAR
STARTCHAR 0457
ENCODING 1111
SWIDTH 468 0
DWIDTH 13 0
BBX 11 18 1 0
BITMAP
7380
7380
2100
0000
0000
FE00
FE00
0E00
0E00
0E00
0E00
0E00
0E00
0E00
0E00
0E00
07E0
03E0
ENDCHAR
STARTCHAR 0458
ENCODING 1112
SWIDTH 468 0
DWIDTH 13 0
BBX 9 24 2 -5
BITMAP
0200
0700
0700
0700
0000
0000
7F80
7F80
0380
0380
0380
0380
0380
0380
0380
0380
0380
0380
0380
0380
0300
E700
FE00
3C00
ENDCHAR
STARTCHAR 0459
ENCODING 1113
SWIDTH 468 0
DWIDTH 13 0
BBX 13 13 0 0
BITMAP
1F80
1F80
1980
1980
1980
19F0
19F8
1998
3998
3198
3198
F1F8
61F0
ENDCHAR
STARTCHAR 045A
ENCODING 1114
SWIDTH 468 0
DWIDTH 13 0
BBX 12 13 1 0
BITMAP
E300
E300
E300
E300
E300
FFE0
FFF0
E330
E330
E330
E330
E3F0
E3E0
ENDCHAR
STARTCHAR 045B
ENCODING 1115
SWIDTH 468 0
DWIDTH 13 0
BBX 11 19 1 0
BITMAP
7000
7000
FF00
FF00
7000
7000
7F80
7FC0
70C0
70E0
7060
7060
7060
7060
7060
7060
7060
7060
7060
ENDCHAR
STARTCHAR 045C
ENCODING 1116
SWIDTH 468 0
DWIDTH 13 0
BBX 11 19 2 0
BITMAP
0300
0700
0600
0C00
0000
0000
C0C0
C1C0
C300
C600
DC00
F800
F800
DC00
CF00
C380
C180
C1C0
C0E0
ENDCHAR
STARTCHAR 045D
ENCODING 1117
SWIDTH 468 0
DWIDTH 13 0
BBX 10 19 2 0
BITMAP
1800
1C00
0C00
0600
0000
0000
C0C0
C1C0
C3C0
C3C0
C6C0
CCC0
CCC0
D8C0
F0C0
F0C0
E0C0
E0C0
C0C0
ENDCHAR
STARTCHAR 045E
ENCODING 1118
SWIDTH 468 0
DWIDTH 13 0
BBX 12 23 1 -5
BITMAP
18C0
1FC0
0F80
0000
0000
E070
6060
6060
7060
30E0
30C0
38C0
19C0
1D80
0D80
0F80
0700
0700
0600
0600
9C00
F800
7000
ENDCHAR
STARTCHAR 045F
ENCODING 1119
SWIDTH 468 0
DWIDTH 13 0
BBX 10 17 2 -4
BITMAP
C0C0
C0C0
C0C0
C0C0
C0C0
C0C0
C0C0
C0C0
C0C0
C0C0
C0C0
FFC0
FFC0
0C00
0C00
0C00
0C00
ENDCHAR
STARTCHAR 0462
ENCODING 1122
SWIDTH 468 0
DWIDTH 13 0
BBX 13 18 0 0
BITMAP
1800
1800
FFC0
FFC0
1800
1800
1800
1F00
1FE0
1870
1838
1818
1818
1818
1838
1830
1FF0
1FC0
ENDCHAR
STARTCHAR 0463
ENCODING 1123
SWIDTH 468 0
DWIDTH 13 0
BBX 13 19 0 0
BITMAP
1800
1800
1800
1800
1800
1800
FFC0
FFC0
1800
1800
1800
1FE0
1FF0
1838
1838
1838
1838
1FF0
1FE0
ENDCHAR
STARTCHAR 0472
ENCODING 1138
SWIDTH 468 0
DWIDTH 13 0
BBX 12 18 1 0
BITMAP
0600
1F80
3BC0
70E0
6060
E070
C030
C030
FC30
FF70
E3F0
C030
C070
E070
6060
70E0
3FC0
1F80
ENDCHAR
STARTCHAR 0473
ENCODING 1139
SWIDTH 468 0
DWIDTH 13 0
BBX 12 13 1 0
BITMAP
1F80
3FC0
70E0
6060
E070
FC70
FFF0
E3F0
E070
6060
70E0
3FC0
1F80
ENDCHAR
STARTCHAR 0474
ENCODING 1140
SWIDTH 468 0
DWIDTH 13 0
BBX 13 17 1 0
BITMAP
C078
C0F0
C0C0
E0C0
60C0
61C0
6180
7180
3180
3180
3300
3B00
1B00
1B00
1E00
0E00
0E00
ENDCHAR
STARTCHAR 0475
ENCODING 1141
SWIDTH 468 0
DWIDTH 13 0
BBX 13 13 1 0
BITMAP
C078
E0F0
E0C0
6180
6180
7180
3300
3300
3B00
1E00
1E00
1E00
0C00
ENDCHAR
STARTCHAR 048A
ENCODING 1162
SWIDTH 468 0
DWIDTH 13 0
BBX 11 27 2 -5
BITMAP
6180
3F00
1E00
0000
0000
C1C0
C1C0
C3C0
C3C0
C7C0
C6C0
CEC0
CCC0
CCC0
D8C0
D8C0
F0C0
F0C0
E0C0
E0C0
E0E0
C0E0
0060
00E0
00C0
0180
0080
ENDCHAR
STARTCHAR 048B
ENCODING 1163
SWIDTH 468 0
DWIDTH 13 0
BBX 11 22 2 -4
BITMAP
3180
3F00
1E00
0000
0000
C0C0
C1C0
C3C0
C3C0
C6C0
CCC0
CCC0
D8C0
F0C0
F0C0
E0C0
E0E0
C0E0
0060
00E0
00C0
0080
ENDCHAR
STARTCHAR 048C
ENCODING 1164
SWIDTH 468 0
DWIDTH 13 0
BBX 13 17 0 0
BITMAP
3800
3800
FF00
FF00
3800
3800
3F00
3FE0
3870
3838
3818
3818
3818
3838
3870
3FF0
3FC0
ENDCHAR
STARTCHAR 048D
ENCODING 1165
SWIDTH 468 0
DWIDTH 13 0
BBX 13 14 0 0
BITMAP
3800
3800
FF80
FF80
3800
3800
3FE0
3FF0
3838
3838
3838
3838
3FF0
3FE0
ENDCHAR
STARTCHAR 048E
ENCODING 1166
SWIDTH 468 0
DWIDTH 13 0
BBX 11 17 2 0
BITMAP
FF00
FF80
C1C0
C0C0
C0E0
C0E0
CCC0
C6C0
C7C0
FF00
FB00
C180
C1C0
C000
C000
C000
C000
ENDCHAR
STARTCHAR 048F
ENCODING 1167
SWIDTH 468 0
DWIDTH 13 0
BBX 11 18 2 -5
BITMAP
FF00
FF80
C1C0
C0C0
C0E0
C0E0
C0E0
C0E0
C4E0
C6C0
E7C0
FF80
FF80
C180
C0C0
C000
C000
C000
ENDCHAR
STARTCHAR 0490
ENCODING 1168
SWIDTH 468 0
DWIDTH 13 0
BBX 12 20 1 0
BITMAP
0030
0030
0030
1FF0
1FF0
1800
1800
1800
1800
1800
1800
1800
1800
1800
1800
1800
1800
1800
FF80
FF80
ENDCHAR
STARTCHAR 0491
ENCODING 1169
SWIDTH 468 0
DWIDTH 13 0
BBX 9 16 3 0
BITMAP
0180
0180
0180
FF80
FF80
C000
C000
C000
C000
C000
C000
C000
C000
C000
C000
C000
ENDCHAR
STARTCHAR 0492
ENCODING 1170
SWIDTH 468 0
DWIDTH 13 0
BBX 12 17 1 0
BITMAP
1FF0
1FF0
1800
1800
1800
1800
1800
FF80
FF80
1800
1800
1800
1800
1800
1800
FF80
FF80
ENDCHAR
STARTCHAR 0493
ENCODING 1171
SWIDTH 468 0
DWIDTH 13 0
BBX 11 13 1 0
BITMAP
3FE0
3FE0
3000
3000
3000
3000
FF80
FF80
3000
3000
3000
3000
3000
ENDCHAR
STARTCHAR 0494
ENCODING 1172
SWIDTH 468 0
DWIDTH 13 0
BBX 12 22 1 -5
BITMAP
FFC0
FFC0
E000
E000
E000
E000
FF00
FFC0
E1C0
E0E0
E060
E070
E070
E030
E030
E070
E070
0060
00E0
03C0
0F80
0C00
ENDCHAR
STARTCHAR 0495
ENCODING 1173
SWIDTH 468 0
DWIDTH 13 0
BBX 11 18 2 -5
BITMAP
FF80
FF80
C000
C000
C000
FF00
FF80
C1C0
C0C0
C0E0
C060
C060
C0E0
00E0
00C0
01C0
0780
0C00
ENDCHAR
STARTCHAR 0496
ENCODING 1174
SWIDTH 468 0
DWIDTH 13 0
BBX 14 22 0 -5
BITMAP
6638
6630
7630
3660
3660
1EC0
1EC0
0F80
1FC0
1EC0
3660
3660
7670
6630
6630
E63C
E61C
001C
001C
001C
001C
001C
ENDCHAR
STARTCHAR 0497
ENCODING 1175
SWIDTH 468 0
DWIDTH 13 0
BBX 13 17 0 -4
BITMAP
6330
7330
3360
1B60
1BC0
0F80
0F80
1BC0
3B60
3360
7330
6338
E318
0018
0018
0018
0018
ENDCHAR
STARTCHAR 0498
ENCODING 1176
SWIDTH 468 0
DWIDTH 13 0
BBX 12 22 1 -4
BITMAP
7F80
7BC0
00E0
0060
0060
00E0
01C0
1F80
1FC0
00E0
0070
0030
0030
0070
0060
FFE0
7FC0
0400
0E00
0600
1E00
1C00
ENDCHAR
STARTCHAR 0499
ENCODING 1177
SWIDTH 468 0
DWIDTH 13 0
BBX 10 18 2 -5
BITMAP
FF00
7F80
01C0
00C0
01C0
3F80
3F80
01C0
00C0
00C0
00C0
FFC0
FF80
0800
1C00
0C00
3C00
3800
ENDCHAR
STARTCHAR 049A
ENCODING 1178
SWIDTH 468 0
DWIDTH 13 0
BBX 11 22 2 -5
BITMAP
C0E0
C1C0
C380
C300
C700
CE00
DC00
F800
F800
DC00
CE00
C700
C380
C380
C1C0
C0E0
C0E0
0060
0060
0060
0060
0060
ENDCHAR
STARTCHAR 049B
ENCODING 1179
SWIDTH 468 0
DWIDTH 13 0
BBX 11 17 2 -4
BITMAP
C0C0
C1C0
C300
C600
DC00
F800
F800
DC00
CE00
C300
C380
C1E0
C0E0
0060
0060
0060
0060
ENDCHAR
STARTCHAR 049C
ENCODING 1180
SWIDTH 468 0
DWIDTH 13 0
BBX 12 17 1 0
BITMAP
E070
E060
E0E0
ECC0
EDC0
ED80
EF80
FF00
FF00
EF80
EDC0
EDC0
ECE0
E0E0
E070
E070
E030
ENDCHAR
STARTCHAR 049D
ENCODING 1181
SWIDTH 468 0
DWIDTH 13 0
BBX 12 13 1 0
BITMAP
E070
E0E0
E1C0
ED80
EF80
FF00
FF00
EF80
EDC0
EDC0
E0E0
E060
E070
ENDCHAR
STARTCHAR 049E
ENCODING 1182
SWIDTH 468 0
DWIDTH 13 0
BBX 13 17 0 0
BITMAP
3838
3870
FC60
FCE0
39C0
3B80
3B00
3F00
3F00
3B80
39C0
38E0
38E0
3870
3830
3838
3818
ENDCHAR
STARTCHAR 049F
ENCODING 1183
SWIDTH 468 0
DWIDTH 13 0
BBX 13 14 0 0
BITMAP
3800
3830
FC70
FCE0
39C0
3B80
3F00
3F00
3B80
39C0
38E0
3870
3830
3838
ENDCHAR
STARTCHAR 04A0
ENCODING 1184
SWIDTH 468 0
DWIDTH 13 0
BBX 13 17 0 0
BITMAP
F838
F870
1870
18E0
18C0
1980
1B80
1F00
1F00
1B80
19C0
18E0
1860
1870
1830
1838
1818
ENDCHAR
STARTCHAR 04A1
ENCODING 1185
SWIDTH 468 0
DWIDTH 13 0
BBX 13 13 0 0
BITMAP
F830
F870
18E0
19C0
1B80
1F00
1F00
1B80
19C0
18E0
1870
1830
1838
ENDCHAR
STARTCHAR 04A2
ENCODING 1186
SWIDTH 468 0
DWIDTH 13 0
BBX 12 22 1 -5
BITMAP
E060
E060
E060
E060
E060
E060
E060
FFE0
FFE0
E060
E060
E060
E060
E060
E060
E070
E070
0030
0030
0030
0030
0030
ENDCHAR
STARTCHAR 04A3
ENCODING 1187
SWIDTH 468 0
DWIDTH 13 0
BBX 11 17 2 -4
BITMAP
C0C0
C0C0
C0C0
C0C0
C0C0
FFC0
FFC0
C0C0
C0C0
C0C0
C0C0
C0E0
C0E0
0060
0060
0060
0060
ENDCHAR
STARTCHAR 04A4
ENCODING 1188
SWIDTH 468 0
DWIDTH 13 0
BBX 12 17 1 0
BITMAP
E1F0
E1F0
E1C0
E1C0
E1C0
E1C0
E1C0
FFC0
FFC0
E1C0
E1C0
E1C0
E1C0
E1C0
E1C0
E1C0
E1C0
ENDCHAR
STARTCHAR 04A5
ENCODING 1189
SWIDTH 468 0
DWIDTH 13 0
BBX 11 13 2 0
BITMAP
C1E0
C1E0
C180
C180
C180
FF80
FF80
C180
C180
C180
C180
C180
C180
ENDCHAR
STARTCHAR 04A6
ENCODING 1190
SWIDTH 468 0
DWIDTH 13 0
BBX 12 22 1 -5
BITMAP
FE00
FE00
E600
E600
E600
E600
E7C0
E7E0
E660
E670
E630
E630
E630
E630
E630
E630
E630
0070
0060
00E0
01C0
0100
ENDCHAR
STARTCHAR 04A7
ENCODING 1191
SWIDTH 468 0
DWIDTH 13 0
BBX 12 18 1 -5
BITMAP
FE00
FE00
E600
E600
E600
E7C0
E7E0
E660
E630
E630
E630
E630
E630
0030
0060
00E0
01C0
0180
ENDCHAR
STARTCHAR 04A8
ENCODING 1192
SWIDTH 468 0
DWIDTH 13 0
BBX 12 22 1 -5
BITMAP
0380
1FE0
3C40
7000
6000
E1C0
C3E0
C770
C630
C630
C630
C630
C630
E670
6660
76E0
3FC0
1F80
0300
0380
01E0
00E0
ENDCHAR
STARTCHAR 04A9
ENCODING 1193
SWIDTH 468 0
DWIDTH 13 0
BBX 12 16 1 -4
BITMAP
1F00
3F00
7000
61C0
E3E0
C670
C630
C630
E630
6630
7660
3FE0
1FC0
0300
01C0
00E0
ENDCHAR
STARTCHAR 04AA
ENCODING 1194
SWIDTH 468 0
DWIDTH 13 0
BBX 12 23 1 -5
BITMAP
0380
0FE0
1EE0
3800
7000
6000
6000
E000
E000
E000
E000
E000
6000
6000
7000
3800
1FF0
0FE0
0300
0380
0180
0780
0700
ENDCHAR
STARTCHAR 04AB
ENCODING 1195
SWIDTH 468 0
DWIDTH 13 0
BBX 12 18 1 -5
BITMAP
0FE0
3FE0
7800
7000
6000
E000
E000
E000
6000
7000
7800
3FE0
0FF0
0200
0700
0380
0F00
0E00
ENDCHAR
STARTCHAR 04AC
ENCODING 1196
SWIDTH 468 0
DWIDTH 13 0
BBX 12 22 1 -5
BITMAP
FFF0
FFF0
0600
0600
0600
0600
0600
0600
0600
0600
0600
0600
0600
0600
0600
0700
0700
0300
0300
0300
0300
0300
ENDCHAR
STARTCHAR 04AD
ENCODING 1197
SWIDTH 468 0
DWIDTH 13 0
BBX 10 17 2 -4
BITMAP
FFC0
FFC0
0C00
0C00
0C00
0C00
0C00
0C00
0C00
0C00
0C00
0E00
0E00
0600
0600
0600
0600
ENDCHAR
STARTCHAR 04AE
ENCODING 1198
SWIDTH 468 0
DWIDTH 13 0
BBX 12 17 1 0
BITMAP
C030
E070
E060
6060
70C0
30C0
3980
1980
0F00
0F00
0600
0600
0600
0600
0600
0600
0600
ENDCHAR
STARTCHAR 04AF
ENCODING 1199
SWIDTH 468 0
DWIDTH 13 0
BBX 12 18 1 -5
BITMAP
C030
E070
6060
6060
70E0
30C0
30C0
3980
1980
1F80
0F00
0F00
0600
0600
0600
0600
0600
0600
ENDCHAR
STARTCHAR 04B0
ENCODING 1200
SWIDTH 468 0
DWIDTH 13 0
BBX 12 17 1 0
BITMAP
C030
E070
6060
70E0
30C0
39C0
1980
1F80
0F00
0E00
7FE0
7FE0
0600
0600
0600
0600
0600
ENDCHAR
STARTCHAR 04B1
ENCODING 1201
SWIDTH 468 0
DWIDTH 13 0
BBX 12 18 1 -5
BITMAP
C030
E070
6060
6060
70E0
30C0
30C0
3980
1980
1F80
0F00
7FC0
7FC0
0600
0600
0600
0600
0600
ENDCHAR
STARTCHAR 04B2
ENCODING 1202
SWIDTH 468 0
DWIDTH 13 0
BBX 12 22 1 -5
BITMAP
E060
60E0
70C0
31C0
1980
1B80
0F00
0E00
0F00
1F00
1B80
3980
31C0
70C0
60E0
E070
C070
0030
0030
0030
0030
0030
ENDCHAR
STARTCHAR 04B3
ENCODING 1203
SWIDTH 468 0
DWIDTH 13 0
BBX 12 17 1 -4
BITMAP
E060
70E0
31C0
1980
1F80
0F00
0F00
0F00
1980
39C0
70C0
6070
C070
0030
0030
0030
0030
ENDCHAR
STARTCHAR 04B4
ENCODING 1204
SWIDTH 468 0
DWIDTH 13 0
BBX 13 22 0 -5
BITMAP
FF30
FF30
1830
1830
1830
1830
1830
1830
1830
1830
1830
1830
1830
1830
1830
1FF8
1FF8
0018
0018
0018
0018
0018
ENDCHAR
STARTCHAR 04B5
ENCODING 1205
SWIDTH 468 0
DWIDTH 13 0
BBX 13 17 0 -4
BITMAP
FF30
FF30
1830
1830
1830
1830
1830
1830
1830
1830
1830
1FF8
1FF8
0018
0018
0018
0018
ENDCHAR
STARTCHAR 04B6
ENCODING 1206
SWIDTH 468 0
DWIDTH 13 0
BBX 12 22 1 -5
BITMAP
E060
E060
E060
E060
E060
6060
6060
6060
7060
3FE0
1FE0
0060
0060
0060
0060
0070
0070
0030
0030
0030
0030
0030
ENDCHAR
STARTCHAR 04B7
ENCODING 1207
SWIDTH 468 0
DWIDTH 13 0
BBX 12 17 1 -4
BITMAP
E060
E060
E060
E060
6060
6060
7BE0
3FE0
0060
0060
0060
0070
0070
0030
0030
0030
0030
ENDCHAR
STARTCHAR 04B8
ENCODING 1208
SWIDTH 468 0
DWIDTH 13 0
BBX 11 17 1 0
BITMAP
E060
E060
E060
E060
E060
6060
6660
6660
7660
3FE0
1FE0
0660
0660
0660
0060
0060
0060
ENDCHAR
STARTCHAR 04B9
ENCODING 1209
SWIDTH 468 0
DWIDTH 13 0
BBX 11 13 1 0
BITMAP
E060
E060
E060
E060
6660
6660
7FE0
3FE0
0660
0660
0660
0060
0060
ENDCHAR
STARTCHAR 04BA
ENCODING 1210
SWIDTH 468 0
DWIDTH 13 0
BBX 12 17 1 0
BITMAP
E000
E000
E000
E000
E000
E000
FFC0
FFE0
E0E0
E060
E060
E070
E070
E070
E070
E070
E070
ENDCHAR
STARTCHAR 04BB
ENCODING 1211
SWIDTH 468 0
DWIDTH 13 0
BBX 10 19 2 0
BITMAP
C000
C000
C000
C000
C000
C000
FF00
FF80
C180
C1C0
C0C0
C0C0
C0C0
C0C0
C0C0
C0C0
C0C0
C0C0
C0C0
ENDCHAR
STARTCHAR 04BC
ENCODING 1212
SWIDTH 468 0
DWIDTH 13 0
BBX 12 17 1 1
BITMAP
07C0
06E0
0E60
0C30
CC30
DC30
DC30
FFF0
7FF0
1C00
1C00
1C00
0C00
0C00
0E00
07F0
03F0
ENDCHAR
STARTCHAR 04BD
ENCODING 1213
SWIDTH 468 0
DWIDTH 13 0
BBX 12 13 1 0
BITMAP
07C0
0FE0
CC60
9C60
DC70
FFF0
7FF0
1800
1C00
1C00
0E00
0FE0
07E0
ENDCHAR
STARTCHAR 04BE
ENCODING 1214
SWIDTH 468 0
DWIDTH 13 0
BBX 12 22 1 -4
BITMAP
07C0
06E0
0E60
0C30
CC30
DC30
DC30
FFF0
7FF0
1C00
1C00
1C00
0C00
0C00
0E00
07F0
03F0
01C0
01C0
01C0
01C0
01C0
ENDCHAR
STARTCHAR 04BF
ENCODING 1215
SWIDTH 468 0
DWIDTH 13 0
BBX 12 17 1 -4
BITMAP
07C0
0FE0
CC60
9C60
DC70
FFF0
7FF0
1800
1C00
1C00
0E00
0FE0
07E0
0180
0180
0180
0180
ENDCHAR
STARTCHAR 04C0
ENCODING 1216
SWIDTH 468 0
DWIDTH 13 0
BBX 9 17 2 0
BITMAP
FF80
FF80
0C00
0C00
0C00
0C00
0C00
0C00
0C00
0C00
0C00
0C00
0C00
0C00
0C00
FF80
FF80
ENDCHAR
STARTCHAR 04C1
ENCODING 1217
SWIDTH 468 0
DWIDTH 13 0
BBX 14 22 0 0
BITMAP
1860
0FC0
0780
0000
0000
6318
6318
3330
3330
1B60
1B60
0FC0
0FC0
0FC0
1B60
1B60
3330
3330
7338
6318
6318
E31C
ENDCHAR
STARTCHAR 04C2
ENCODING 1218
SWIDTH 468 0
DWIDTH 13 0
BBX 13 18 0 0
BITMAP
18E0
0FC0
0780
0000
0000
6318
3330
3330
1B60
1B40
0FC0
0FC0
1FC0
1B60
3330
7330
6318
E318
ENDCHAR
STARTCHAR 04C3
ENCODING 1219
SWIDTH 468 0
DWIDTH 13 0
BBX 12 22 1 -5
BITMAP
E070
E0E0
E1C0
E380
E700
E600
EC00
FC00
FF80
E1C0
E0E0
E060
E070
E030
E030
E070
E070
0060
00E0
01C0
0780
0600
ENDCHAR
STARTCHAR 04C4
ENCODING 1220
SWIDTH 468 0
DWIDTH 13 0
BBX 11 18 2 -5
BITMAP
C0C0
C180
C300
C600
CC00
DC00
FF00
C380
C1C0
C0C0
C0E0
C0E0
C0E0
00C0
00C0
03C0
0F80
0E00
ENDCHAR
STARTCHAR 04C5
ENCODING 1221
SWIDTH 468 0
DWIDTH 13 0
BBX 13 22 0 -5
BITMAP
0FF0
0FF0
0E30
0E30
0E30
0C30
0C30
0C30
0C30
0C30
0C30
1C30
1830
1830
3830
F038
6038
0018
0038
0030
0060
0020
ENDCHAR
STARTCHAR 04C6
ENCODING 1222
SWIDTH 468 0
DWIDTH 13 0
BBX 13 17 0 -4
BITMAP
0FF0
0FF0
0E30
0E30
0C30
0C30
0C30
0C30
1C30
1C30
3830
F038
6038
0018
0038
0030
0020
ENDCHAR
STARTCHAR 04C7
ENCODING 1223
SWIDTH 468 0
DWIDTH 13 0
BBX 12 22 1 -5
BITMAP
E070
E070
E070
E070
E070
E070
E070
FFF0
FFF0
E070
E070
E070
E070
E070
E070
E070
E070
0070
0070
0060
01E0
0180
ENDCHAR
STARTCHAR 04C8
ENCODING 1224
SWIDTH 468 0
DWIDTH 13 0
BBX 10 18 2 -5
BITMAP
C0C0
C0C0
C0C0
C0C0
C0C0
FFC0
FFC0
C0C0
C0C0
C0C0
C0C0
C0C0
C0C0
00C0
01C0
01C0
0780
0600
ENDCHAR
STARTCHAR 04C9
ENCODING 1225
SWIDTH 468 0
DWIDTH 13 0
BBX 12 22 1 -5
BITMAP
E060
E060
E060
E060
E060
E060
E060
FFE0
FFE0
E060
E060
E060
E060
E060
E060
E070
E070
0030
0070
0060
00C0
0040
ENDCHAR
STARTCHAR 04CA
ENCODING 1226
SWIDTH 468 0
DWIDTH 13 0
BBX 11 17 2 -4
BITMAP
C0C0
C0C0
C0C0
C0C0
C0C0
FFC0
FFC0
C0C0
C0C0
C0C0
C0C0
C0E0
C0E0
0060
00E0
00C0
0080
ENDCHAR
STARTCHAR 04CB
ENCODING 1227
SWIDTH 468 0
DWIDTH 13 0
BBX 11 22 1 -5
BITMAP
E060
E060
E060
E060
E060
6060
6060
6060
7060
3FE0
1FE0
0060
0060
0060
0060
00E0
00E0
00C0
00C0
00C0
00C0
00C0
ENDCHAR
STARTCHAR 04CC
ENCODING 1228
SWIDTH 468 0
DWIDTH 13 0
BBX 11 17 1 -4
BITMAP
E060
E060
E060
E060
6060
6060
7FE0
3FE0
0060
0060
0060
00E0
00E0
00C0
00C0
00C0
00C0
ENDCHAR
STARTCHAR 04CD
ENCODING 1229
SWIDTH 468 0
DWIDTH 13 0
BBX 12 22 1 -5
BITMAP
60C0
70C0
71C0
51E0
5960
5B60
CB60
CA60
CE60
CE60
C060
C060
C060
C060
C060
C070
C070
0030
0070
0060
00C0
0040
ENDCHAR
STARTCHAR 04CE
ENCODING 1230
SWIDTH 468 0
DWIDTH 13 0
BBX 12 17 1 -4
BITMAP
60C0
60E0
F1E0
F1E0
D1E0
DB60
DB60
DB60
CE60
CE60
C060
C070
C070
0030
0070
0060
0040
ENDCHAR
STARTCHAR 04CF
ENCODING 1231
SWIDTH 468 0
DWIDTH 13 0
BBX 9 17 2 0
BITMAP
FF80
FF80
0C00
0C00
0C00
0C00
0C00
0C00
0C00
0C00
0C00
0C00
0C00
0C00
0C00
FF80
FF80
ENDCHAR
STARTCHAR 04D0
ENCODING 1232
SWIDTH 468 0
DWIDTH 13 0
BBX 14 22 0 0
BITMAP
1860
0FC0
0780
0000
0000
0780
0780
0780
0CC0
0CC0
0CC0
18E0
1860
1860
3070
3030
3FF0
7FF0
6038
6018
6018
E01C
ENDCHAR
STARTCHAR 04D1
ENCODING 1233
SWIDTH 468 0
DWIDTH 13 0
BBX 10 18 2 0
BITMAP
6380
3F00
1E00
0000
0000
7F00
7F80
01C0
00C0
00C0
1FC0
7FC0
E0C0
C0C0
C0C0
C0C0
FFC0
7FC0
ENDCHAR
STARTCHAR 04D2
ENCODING 1234
SWIDTH 468 0
DWIDTH 13 0
BBX 14 22 0 0
BITMAP
1CC0
1CE0
08C0
0000
0000
0780
0780
0780
0CC0
0CC0
0CC0
18E0
1860
1860
3070
3030
3FF0
7FF0
6038
6018
6018
E01C
ENDCHAR
STARTCHAR 04D3
ENCODING 1235
SWIDTH 468 0
DWIDTH 13 0
BBX 10 18 2 0
BITMAP
7380
7380
2100
0000
0000
7F00
7F80
01C0
00C0
00C0
1FC0
7FC0
E0C0
C0C0
C0C0
C0C0
FFC0
7FC0
ENDCHAR
STARTCHAR 04D4
ENCODING 1236
SWIDTH 468 0
DWIDTH 13 0
BBX 12 17 1 0
BITMAP
07F0
0FF0
0F00
0F00
1B00
1B00
1B00
33E0
33E0
3300
3300
7F00
7F00
6300
E300
C3F0
C3F0
ENDCHAR
STARTCHAR 04D5
ENCODING 1237
SWIDTH 468 0
DWIDTH 13 0
BBX 12 13 1 0
BITMAP
79E0
7FE0
0F30
0630
0630
3FF0
7FF0
E600
C600
C600
C300
FFF0
7DF0
ENDCHAR
STARTCHAR 04D6
ENCODING 1238
SWIDTH 468 0
DWIDTH 13 0
BBX 10 22 3 0
BITMAP
6300
7F00
3E00
0000
0000
FF80
FF80
C000
C000
C000
C000
C000
FF00
FF00
C000
C000
C000
C000
C000
C000
FFC0
FFC0
ENDCHAR
STARTCHAR 04D7
ENCODING 1239
SWIDTH 468 0
DWIDTH 13 0
BBX 12 18 1 0
BITMAP
31C0
1F80
0F00
0000
0000
1F80
3FC0
70E0
6060
E060
FFF0
FFF0
C000
E000
6000
7000
3FE0
1FE0
ENDCHAR
STARTCHAR 04D8
ENCODING 1240
SWIDTH 468 0
DWIDTH 13 0
BBX 12 18 1 0
BITMAP
0C00
7F80
77C0
00E0
0060
0070
0070
0030
0030
FFF0
FFF0
C030
C070
C070
E060
60E0
7FC0
1F80
ENDCHAR
STARTCHAR 04D9
ENCODING 1241
SWIDTH 468 0
DWIDTH 13 0
BBX 12 13 1 0
BITMAP
7F00
7FC0
00E0
0060
0070
0070
FFF0
FFF0
E070
6060
70E0
3FC0
1F80
ENDCHAR
STARTCHAR 04DA
ENCODING 1242
SWIDTH 468 0
DWIDTH 13 0
BBX 12 22 1 0
BITMAP
3180
3B80
3180
0000
0C00
7F80
77C0
00E0
0060
0070
0070
0030
0030
FFF0
FFF0
C030
C070
C070
E060
60E0
7FC0
1F80
ENDCHAR
STARTCHAR 04DB
ENCODING 1243
SWIDTH 468 0
DWIDTH 13 0
BBX 12 18 1 0
BITMAP
3980
39C0
1080
0000
0000
7F00
7FC0
00E0
0060
0070
0070
FFF0
FFF0
E070
6060
70E0
3FC0
1F80
ENDCHAR
STARTCHAR 04DC
ENCODING 1244
SWIDTH 468 0
DWIDTH 13 0
BBX 14 22 0 0
BITMAP
1CC0
1CE0
08C0
0000
0000
6318
6318
3330
3330
1B60
1B60
0FC0
0FC0
0FC0
1B60
1B60
3330
3330
7338
6318
6318
E31C
ENDCHAR
STARTCHAR 04DD
ENCODING 1245
SWIDTH 468 0
DWIDTH 13 0
BBX 13 18 0 0
BITMAP
1CE0
1CE0
0840
0000
0000
6318
3330
3330
1B60
1B40
0FC0
0FC0
1FC0
1B60
3330
7330
6318
E318
ENDCHAR
STARTCHAR 04DE
ENCODING 1246
SWIDTH 468 0
DWIDTH 13 0
BBX 12 22 1 0
BITMAP
3180
39C0
3180
0000
0000
7F80
7BC0
00E0
0060
0060
00E0
01C0
1F80
1FC0
00E0
0070
0030
0030
0070
0060
FFE0
7FC0
ENDCHAR
STARTCHAR 04DF
ENCODING 1247
SWIDTH 468 0
DWIDTH 13 0
BBX 10 18 2 0
BITMAP
7300
7380
2100
0000
0000
FF00
7F80
01C0
00C0
01C0
3F80
3F80
01C0
00C0
00C0
00C0
FFC0
FF80
ENDCHAR
STARTCHAR 04E0
ENCODING 1248
SWIDTH 468 0
DWIDTH 13 0
BBX 12 17 1 0
BITMAP
FFE0
FFE0
00C0
01C0
0380
0700
0E00
0F00
0FC0
00E0
0070
0030
0030
0070
80E0
FFE0
FF80
ENDCHAR
STARTCHAR 04E1
ENCODING 1249
SWIDTH 468 0
DWIDTH 13 0
BBX 11 18 1 -5
BITMAP
7FC0
7FC0
01C0
0380
0300
0700
0E00
1C00
1F80
01C0
00E0
0060
0060
00E0
00E0
67C0
FF80
0800
ENDCHAR
STARTCHAR 04E2
ENCODING 1250
SWIDTH 468 0
DWIDTH 13 0
BBX 10 22 2 0
BITMAP
7F00
7F00
0000
0000
0000
C0C0
C1C0
C1C0
C3C0
C7C0
C6C0
CEC0
CCC0
CCC0
D8C0
D8C0
F0C0
F0C0
E0C0
E0C0
C0C0
C0C0
ENDCHAR
STARTCHAR 04E3
ENCODING 1251
SWIDTH 468 0
DWIDTH 13 0
BBX 10 18 2 0
BITMAP
7F00
7F00
0000
0000
0000
C0C0
C1C0
C3C0
C3C0
C6C0
CCC0
CCC0
D8C0
F0C0
F0C0
E0C0
E0C0
C0C0
ENDCHAR
STARTCHAR 04E4
ENCODING 1252
SWIDTH 468 0
DWIDTH 13 0
BBX 10 22 2 0
BITMAP
7300
7380
2300
0000
0000
C0C0
C1C0
C1C0
C3C0
C7C0
C6C0
CEC0
CCC0
CCC0
D8C0
D8C0
F0C0
F0C0
E0C0
E0C0
C0C0
C0C0
ENDCHAR
STARTCHAR 04E5
ENCODING 1253
SWIDTH 468 0
DWIDTH 13 0
BBX 10 18 2 0
BITMAP
7380
7380
2100
0000
0000
C0C0
C1C0
C3C0
C3C0
C6C0
CCC0
CCC0
D8C0
F0C0
F0C0
E0C0
E0C0
C0C0
ENDCHAR
STARTCHAR 04E6
ENCODING 1254
SWIDTH 468 0
DWIDTH 13 0
BBX 12 22 1 0
BITMAP
3980
39C0
1180
0000
0600
1F80
3FC0
70E0
6060
E070
C030
C030
C030
C030
C030
C030
C070
E070
6060
70E0
3FC0
1F80
ENDCHAR
STARTCHAR 04E7
ENCODING 1255
SWIDTH 468 0
DWIDTH 13 0
BBX 12 18 1 0
BITMAP
39C0
39C0
1080
0000
0000
1F80
3FC0
70E0
6060
E070
E070
C070
E070
E070
6060
70E0
3FC0
1F80
ENDCHAR
STARTCHAR 04E8
ENCODING 1256
SWIDTH 468 0
DWIDTH 13 0
BBX 12 18 1 0
BITMAP
0600
1F80
3BC0
70E0
6060
E070
C030
C030
FFF0
FFF0
C030
C030
C070
E070
6060
70E0
3FC0
1F80
ENDCHAR
STARTCHAR 04E9
ENCODING 1257
SWIDTH 468 0
DWIDTH 13 0
BBX 12 13 1 0
BITMAP
1F80
3FC0
70E0
6060
E070
C070
FFF0
C070
E070
6060
70E0
3FC0
1F80
ENDCHAR
STARTCHAR 04EA
ENCODING 1258
SWIDTH 468 0
DWIDTH 13 0
BBX 12 22 1 0
BITMAP
3980
39C0
1180
0000
0600
1F80
3BC0
70E0
6060
E070
C030
C030
FFF0
FFF0
C030
C030
C070
E070
6060
70E0
3FC0
1F80
ENDCHAR
STARTCHAR 04EB
ENCODING 1259
SWIDTH 468 0
DWIDTH 13 0
BBX 12 18 1 0
BITMAP
39C0
39C0
1080
0000
0000
1F80
3FC0
70E0
6060
E070
C070
FFF0
C070
E070
6060
70E0
3FC0
1F80
ENDCHAR
STARTCHAR 04EC
ENCODING 1260
SWIDTH 468 0
DWIDTH 13 0
BBX 12 22 1 0
BITMAP
3180
3B80
3180
0000
0C00
FF80
77C0
00E0
0060
0070
0070
0030
1FF0
1FF0
0030
0030
0070
0060
00E0
01C0
7FC0
7F00
ENDCHAR
STARTCHAR 04ED
ENCODING 1261
SWIDTH 468 0
DWIDTH 13 0
BBX 11 18 2 0
BITMAP
6300
7700
2200
0000
0000
FE00
FF80
03C0
00C0
00E0
1FE0
1FE0
00E0
00E0
00C0
01C0
FF80
FE00
ENDCHAR
STARTCHAR 04EE
ENCODING 1262
SWIDTH 468 0
DWIDTH 13 0
BBX 13 22 1 0
BITMAP
1FC0
1FC0
0000
0000
0000
C038
C030
E070
6060
7060
30E0
38C0
18C0
1DC0
0D80
0780
0700
0300
0600
0E00
FC00
F800
ENDCHAR
STARTCHAR 04EF
ENCODING 1263
SWIDTH 468 0
DWIDTH 13 0
BBX 12 23 1 -5
BITMAP
1FC0
1FC0
0000
0000
0000
E070
6060
6060
7060
30E0
30C0
38C0
19C0
1D80
0D80
0F80
0700
0700
0600
0600
9C00
F800
7000
ENDCHAR
STARTCHAR 04F0
ENCODING 1264
SWIDTH 468 0
DWIDTH 13 0
BBX 13 22 1 0
BITMAP
19C0
39C0
1880
0000
0000
C038
C030
E070
6060
7060
30E0
38C0
18C0
1DC0
0D80
0780
0700
0300
0600
0E00
FC00
F800
ENDCHAR
STARTCHAR 04F1
ENCODING 1265
SWIDTH 468 0
DWIDTH 13 0
BBX 12 23 1 -5
BITMAP
18C0
1DC0
0880
0000
0000
E070
6060
6060
7060
30E0
30C0
38C0
19C0
1D80
0D80
0F80
0700
0700
0600
0600
9C00
F800
7000
ENDCHAR
STARTCHAR 04F2
ENCODING 1266
SWIDTH 468 0
DWIDTH 13 0
BBX 13 23 1 0
BITMAP
0440
0660
0CC0
1980
0000
0000
C038
C030
E070
6060
7060
30E0
38C0
18C0
1DC0
0D80
0780
0700
0300
0600
0E00
FC00
F800
ENDCHAR
STARTCHAR 04F3
ENCODING 1267
SWIDTH 468 0
DWIDTH 13 0
BBX 12 24 1 -5
BITMAP
0660
0660
0CC0
1980
0000
0000
E070
6060
6060
7060
30E0
30C0
38C0
19C0
1D80
0D80
0F80
0700
0700
0600
0600
9C00
F800
7000
ENDCHAR
STARTCHAR 04F4
ENCODING 1268
SWIDTH 468 0
DWIDTH 13 0
BBX 11 22 1 0
BITMAP
3980
39C0
1180
0000
0000
E060
E060
E060
E060
E060
6060
6060
6060
7060
3FE0
1FE0
0060
0060
0060
0060
0060
0060
ENDCHAR
STARTCHAR 04F5
ENCODING 1269
SWIDTH 468 0
DWIDTH 13 0
BBX 11 18 1 0
BITMAP
39C0
39C0
1080
0000
0000
E060
E060
E060
E060
6060
6060
7FE0
3FE0
0060
0060
0060
0060
0060
ENDCHAR
STARTCHAR 04F6
ENCODING 1270
SWIDTH 468 0
DWIDTH 13 0
BBX 12 22 1 -5
BITMAP
1FF0
1FF0
1800
1800
1800
1800
1800
1800
1800
1800
1800
1800
1800
1800
1800
FF80
FF80
0180
0180
0180
0180
0180
ENDCHAR
STARTCHAR 04F7
ENCODING 1271
SWIDTH 468 0
DWIDTH 13 0
BBX 9 17 3 -4
BITMAP
FF80
FF80
C000
C000
C000
C000
C000
C000
C000
C000
C000
F000
F000
3000
3000
3000
3000
ENDCHAR
STARTCHAR 04F8
ENCODING 1272
SWIDTH 468 0
DWIDTH 13 0
BBX 12 22 1 0
BITMAP
3980
39C0
1180
0000
0000
C030
C030
C030
C030
C030
C030
FC30
FE30
C730
C330
C330
C330
C330
C330
C730
FE30
FC30
ENDCHAR
STARTCHAR 04F9
ENCODING 1273
SWIDTH 468 0
DWIDTH 13 0
BBX 12 18 1 0
BITMAP
39C0
39C0
1080
0000
0000
C070
C070
C070
C070
C070
FE70
FF70
C370
C370
C370
C370
FF70
FE70
ENDCHAR
STARTCHAR 1E80
ENCODING 7808
SWIDTH 468 0
DWIDTH 13 0
BBX 12 23 1 0
BITMAP
0800
0C00
0600
0300
0000
0000
C030
C030
C030
C030
C030
C030
C630
C630
CF30
CF20
C920
59A0
59E0
50E0
70E0
70E0
60E0
ENDCHAR
STARTCHAR 1E81
ENCODING 7809
SWIDTH 468 0
DWIDTH 13 0
BBX 12 19 1 0
BITMAP
0C00
0C00
0600
0300
0000
0000
C030
C030
C030
C630
C630
CF30
CF30
EB60
79E0
79E0
71E0
70E0
70C0
ENDCHAR
STARTCHAR 1E82
ENCODING 7810
SWIDTH 468 0
DWIDTH 13 0
BBX 12 23 1 0
BITMAP
0200
0300
0600
0C00
0000
0000
C030
C030
C030
C030
C030
C030
C630
C630
CF30
CF20
C920
59A0
59E0
50E0
70E0
70E0
60E0
ENDCHAR
STARTCHAR 1E83
ENCODING 7811
SWIDTH 468 0
DWIDTH 13 0
BBX 12 19 1 0
BITMAP
0300
0700
0600
0C00
0000
0000
C030
C030
C030
C630
C630
CF30
CF30
EB60
79E0
79E0
71E0
70E0
70C0
ENDCHAR
STARTCHAR 1E84
ENCODING 7812
SWIDTH 468 0
DWIDTH 13 0
BBX 12 22 1 0
BITMAP
3980
39C0
1180
0000
0000
C030
C030
C030
C030
C030
C030
C630
C630
CF30
CF20
C920
59A0
59E0
50E0
70E0
70E0
60E0
ENDCHAR
STARTCHAR 1E85
ENCODING 7813
SWIDTH 468 0
DWIDTH 13 0
BBX 12 18 1 0
BITMAP
39C0
39C0
1080
0000
0000
C030
C030
C030
C630
C630
CF30
CF30
EB60
79E0
79E0
71E0
70E0
70C0
ENDCHAR
STARTCHAR 1EF2
ENCODING 7922
SWIDTH 468 0
DWIDTH 13 0
BBX 12 23 1 0
BITMAP
0800
0C00
0600
0300
0000
0000
C030
E070
E060
6060
70C0
30C0
3980
1980
0F00
0F00
0600
0600
0600
0600
0600
0600
0600
ENDCHAR
STARTCHAR 1EF3
ENCODING 7923
SWIDTH 468 0
DWIDTH 13 0
BBX 12 24 1 -5
BITMAP
0C00
0C00
0600
0300
0000
0000
E070
6060
6060
7060
30E0
30C0
38C0
19C0
1D80
0D80
0F80
0700
0700
0600
0600
9C00
F800
7000
ENDCHAR
STARTCHAR 1F00
ENCODING 7936
SWIDTH 468 0
DWIDTH 13 0
BBX 12 19 1 0
BITMAP
0700
0700
0600
0600
0000
0000
0FE0
3FE0
7060
6060
6060
E060
E060
E060
6060
6060
70E0
3FF0
1FB0
ENDCHAR
STARTCHAR 1F01
ENCODING 7937
SWIDTH 468 0
DWIDTH 13 0
BBX 12 19 1 0
BITMAP
0E00
0E00
0600
0300
0000
0000
0FE0
3FE0
7060
6060
6060
E060
E060
E060
6060
6060
70E0
3FF0
1FB0
ENDCHAR
STARTCHAR 1F02
ENCODING 7938
SWIDTH 468 0
DWIDTH 13 0
BBX 12 19 1 0
BITMAP
3B00
3B80
1980
30C0
2000
0000
0FE0
3FE0
7060
6060
6060
E060
E060
E060
6060
6060
70E0
3FF0
1FB0
ENDCHAR
STARTCHAR 1F03
ENCODING 7939
SWIDTH 468 0
DWIDTH 13 0
BBX 12 19 1 0
BITMAP
3B00
3B00
3180
18C0
0880
0000
0FE0
3FE0
7060
6060
6060
E060
E060
E060
6060
6060
70E0
3FF0
1FB0
ENDCHAR
STARTCHAR 1F04
ENCODING 7940
SWIDTH 468 0
DWIDTH 13 0
BBX 12 19 1 0
BITMAP
0C60
0CC0
0DC0
1980
0100
0000
0FE0
3FE0
7060
6060
6060
E060
E060
E060
6060
6060
70E0
3FF0
1FB0
ENDCHAR
STARTCHAR 1F05
ENCODING 7941
SWIDTH 468 0
DWIDTH 13 0
BBX 12 19 1 0
BITMAP
38C0
38C0
1180
1B80
0900
0000
0FE0
3FE0
7060
6060
6060
E060
E060
E060
6060
6060
70E0
3FF0
1FB0
ENDCHAR
STARTCHAR 1F06
ENCODING 7942
SWIDTH 468 0
DWIDTH 13 0
BBX 12 22 1 0
BITMAP
0700
0F80
18C0
0200
0700
0300
0600
0400
0000
0FE0
3FE0
7060
6060
6060
E060
E060
E060
6060
6060
70E0
3FF0
1FB0
ENDCHAR
STARTCHAR 1F07
ENCODING 7943
SWIDTH 468 0
DWIDTH 13 0
BBX 12 22 1 0
BITMAP
0F00
1F80
1080
0400
0600
0600
0600
0000
0000
0FE0
3FE0
7060
6060
6060
E060
E060
E060
6060
6060
70E0
3FF0
1FB0
ENDCHAR
STARTCHAR 1F08
ENCODING 7944
SWIDTH 468 0
DWIDTH 13 0
BBX 14 18 0 0
BITMAP
2000
7780
7780
6780
CCC0
0CC0
0CC0
18E0
1860
1860
3070
3030
3FF0
7FF0
6038
6018
6018
E01C
ENDCHAR
STARTCHAR 1F09
ENCODING 7945
SWIDTH 468 0
DWIDTH 13 0
BBX 14 18 0 0
BITMAP
4000
E780
C780
C780
6CC0
0CC0
0CC0
18E0
1860
1860
3070
3030
3FF0
7FF0
6038
6018
6018
E01C
ENDCHAR
STARTCHAR 1F0A
ENCODING 7946
SWIDTH 468 0
DWIDTH 13 0
BBX 19 18 -5 0
BITMAP
040000
EC3C00
663C00
673C00
C36600
006600
006600
00C700
00C300
00C300
018380
018180
01FF80
03FF80
0301C0
0300C0
0300C0
0700E0
ENDCHAR
STARTCHAR 1F0B
ENCODING 7947
SWIDTH 468 0
DWIDTH 13 0
BBX 19 18 -5 0
BITMAP
440000
EC3C00
E63C00
633C00
336600
006600
006600
00C700
00C300
00C300
018380
018180
01FF80
03FF80
0301C0
0300C0
0300C0
0700E0
ENDCHAR
STARTCHAR 1F0C
ENCODING 7948
SWIDTH 468 0
DWIDTH 13 0
BBX 18 18 -4 0
BITMAP
220000
737800
767800
6E7800
CCCC00
00CC00
00CC00
018E00
018600
018600
030700
030300
03FF00
07FF00
060380
060180
060180
0E01C0
ENDCHAR
STARTCHAR 1F0D
ENCODING 7949
SWIDTH 468 0
DWIDTH 13 0
BBX 18 18 -4 0
BITMAP
820000
C37800
C67800
CE7800
6CCC00
00CC00
00CC00
018E00
018600
018600
030700
030300
03FF00
07FF00
060380
060180
060180
0E01C0
ENDCHAR
STARTCHAR 1F0E
ENCODING 7950
SWIDTH 468 0
DWIDTH 13 0
BBX 16 19 -2 0
BITMAP
7800
CC00
85E0
31E0
31E0
3330
6330
0330
0638
0618
0618
0C1C
0C0C
0FFC
1FFC
180E
1806
1806
3807
ENDCHAR
STARTCHAR 1F0F
ENCODING 7951
SWIDTH 468 0
DWIDTH 13 0
BBX 17 19 -3 0
BITMAP
3C0000
660000
C2F000
18F000
38F000
199800
0D9800
019800
031C00
030C00
030C00
060E00
060600
07FE00
0FFE00
0C0700
0C0300
0C0300
1C0380
ENDCHAR
STARTCHAR 1F10
ENCODING 7952
SWIDTH 468 0
DWIDTH 13 0
BBX 11 19 2 0
BITMAP
0600
0600
0600
0C00
0000
0000
3FC0
7FC0
E000
E000
6000
7F00
3F00
7000
C000
C000
E000
7FE0
3FE0
ENDCHAR
STARTCHAR 1F11
ENCODING 7953
SWIDTH 468 0
DWIDTH 13 0
BBX 11 19 2 0
BITMAP
1C00
1C00
0C00
0600
0000
0000
3FC0
7FC0
E000
E000
6000
7F00
3F00
7000
C000
C000
E000
7FE0
3FE0
ENDCHAR
STARTCHAR 1F12
ENCODING 7954
SWIDTH 468 0
DWIDTH 13 0
BBX 11 19 2 0
BITMAP
3B00
3B80
1980
30C0
2000
0000
3FC0
7FC0
E000
E000
6000
7F00
3F00
7000
C000
C000
E000
7FE0
3FE0
ENDCHAR
STARTCHAR 1F13
ENCODING 7955
SWIDTH 468 0
DWIDTH 13 0
BBX 11 19 2 0
BITMAP
7600
7600
6300
3180
1100
0000
3FC0
7FC0
E000
E000
6000
7F00
3F00
7000
C000
C000
E000
7FE0
3FE0
ENDCHAR
STARTCHAR 1F14
ENCODING 7956
SWIDTH 468 0
DWIDTH 13 0
BBX 11 19 2 0
BITMAP
3180
3300
3700
6600
0400
0000
3FC0
7FC0
E000
E000
6000
7F00
3F00
7000
C000
C000
E000
7FE0
3FE0
ENDCHAR
STARTCHAR 1F15
ENCODING 7957
SWIDTH 468 0
DWIDTH 13 0
BBX 11 19 2 0
BITMAP
7180
7180
2300
3700
1200
0000
3FC0
7FC0
E000
E000
6000
7F00
3F00
7000
C000
C000
E000
7FE0
3FE0
ENDCHAR
STARTCHAR 1F18
ENCODING 7960
SWIDTH 468 0
DWIDTH 13 0
BBX 15 17 -2 1
BITMAP
E7FC
67FC
6600
C600
0600
0600
0600
07F8
07F8
0600
0600
0600
0600
0600
0600
07FE
07FE
ENDCHAR
STARTCHAR 1F19
ENCODING 7961
SWIDTH 468 0
DWIDTH 13 0
BBX 15 18 -2 0
BITMAP
4000
E7FC
E7FC
4600
6600
0600
0600
0600
07F8
07F8
0600
0600
0600
0600
0600
0600
07FE
07FE
ENDCHAR
STARTCHAR 1F1A
ENCODING 7962
SWIDTH 468 0
DWIDTH 13 0
BBX 20 17 -7 1
BITMAP
7E3FE0
663FE0
633000
C1B000
003000
003000
003000
003FC0
003FC0
003000
003000
003000
003000
003000
003000
003FF0
003FF0
ENDCHAR
STARTCHAR 1F1B
ENCODING 7963
SWIDTH 468 0
DWIDTH 13 0
BBX 19 18 -6 0
BITMAP
800000
DC7FC0
CC7FC0
C66000
636000
006000
006000
006000
007F80
007F80
006000
006000
006000
006000
006000
006000
007FE0
007FE0
ENDCHAR
STARTCHAR 1F1C
ENCODING 7964
SWIDTH 468 0
DWIDTH 13 0
BBX 19 18 -6 0
BITMAP
400000
E77FC0
EE7FC0
4C6000
D86000
886000
006000
006000
007F80
007F80
006000
006000
006000
006000
006000
006000
007FE0
007FE0
ENDCHAR
STARTCHAR 1F1D
ENCODING 7965
SWIDTH 468 0
DWIDTH 13 0
BBX 20 18 -7 0
BITMAP
400000
E3BFE0
E33FE0
463000
2C3000
043000
003000
003000
003FC0
003FC0
003000
003000
003000
003000
003000
003000
003FF0
003FF0
ENDCHAR
STARTCHAR 1F20
ENCODING 7968
SWIDTH 468 0
DWIDTH 13 0
BBX 10 24 2 -5
BITMAP
0E00
0E00
0C00
0C00
0000
0000
FF00
FF80
C1C0
C1C0
C0C0
C0C0
C0C0
C0C0
C0C0
C0C0
C0C0
C0C0
C0C0
00C0
00C0
00C0
00C0
00C0
ENDCHAR
STARTCHAR 1F21
ENCODING 7969
SWIDTH 468 0
DWIDTH 13 0
BBX 10 24 2 -5
BITMAP
1C00
1C00
0C00
0600
0000
0000
FF00
FF80
C1C0
C1C0
C0C0
C0C0
C0C0
C0C0
C0C0
C0C0
C0C0
C0C0
C0C0
00C0
00C0
00C0
00C0
00C0
ENDCHAR
STARTCHAR 1F22
ENCODING 7970
SWIDTH 468 0
DWIDTH 13 0
BBX 10 24 2 -5
BITMAP
7600
7700
3300
6180
4000
0000
FF00
FF80
C1C0
C1C0
C0C0
C0C0
C0C0
C0C0
C0C0
C0C0
C0C0
C0C0
C0C0
00C0
00C0
00C0
00C0
00C0
ENDCHAR
STARTCHAR 1F23
ENCODING 7971
SWIDTH 468 0
DWIDTH 13 0
BBX 10 24 2 -5
BITMAP
7600
7600
6300
3180
1100
0000
FF00
FF80
C1C0
C1C0
C0C0
C0C0
C0C0
C0C0
C0C0
C0C0
C0C0
C0C0
C0C0
00C0
00C0
00C0
00C0
00C0
ENDCHAR
STARTCHAR 1F24
ENCODING 7972
SWIDTH 468 0
DWIDTH 13 0
BBX 10 24 2 -5
BITMAP
3180
3300
3700
6600
0400
0000
FF00
FF80
C1C0
C1C0
C0C0
C0C0
C0C0
C0C0
C0C0
C0C0
C0C0
C0C0
C0C0
00C0
00C0
00C0
00C0
00C0
ENDCHAR
STARTCHAR 1F25
ENCODING 7973
SWIDTH 468 0
DWIDTH 13 0
BBX 10 24 2 -5
BITMAP
7180
7180
2300
3700
1200
0000
FF00
FF80
C1C0
C1C0
C0C0
C0C0
C0C0
C0C0
C0C0
C0C0
C0C0
C0C0
C0C0
00C0
00C0
00C0
00C0
00C0
ENDCHAR
STARTCHAR 1F26
ENCODING 7974
SWIDTH 468 0
DWIDTH 13 0
BBX 10 27 2 -5
BITMAP
1E00
3F00
2100
0000
0C00
0C00
1800
1000
0000
FF00
FF80
C1C0
C1C0
C0C0
C0C0
C0C0
C0C0
C0C0
C0C0
C0C0
C0C0
C0C0
00C0
00C0
00C0
00C0
00C0
ENDCHAR
STARTCHAR 1F27
ENCODING 7975
SWIDTH 468 0
DWIDTH 13 0
BBX 10 27 2 -5
BITMAP
1E00
3F00
2100
0800
0C00
0C00
0C00
0000
0000
FF00
FF80
C1C0
C1C0
C0C0
C0C0
C0C0
C0C0
C0C0
C0C0
C0C0
C0C0
C0C0
00C0
00C0
00C0
00C0
00C0
ENDCHAR
STARTCHAR 1F28
ENCODING 7976
SWIDTH 468 0
DWIDTH 13 0
BBX 16 18 -3 0
BITMAP
4000
EE07
EE07
4E07
CE07
0E07
0E07
0E07
0FFF
0FFF
0E07
0E07
0E07
0E07
0E07
0E07
0E07
0E07
ENDCHAR
STARTCHAR 1F29
ENCODING 7977
SWIDTH 468 0
DWIDTH 13 0
BBX 16 18 -3 0
BITMAP
4000
EE07
CE07
CE07
6E07
0E07
0E07
0E07
0FFF
0FFF
0E07
0E07
0E07
0E07
0E07
0E07
0E07
0E07
ENDCHAR
STARTCHAR 1F2A
ENCODING 7978
SWIDTH 468 0
DWIDTH 13 0
BBX 21 18 -8 0
BITMAP
040000
EC7038
667038
677038
C37038
007038
007038
007038
007FF8
007FF8
007038
007038
007038
007038
007038
007038
007038
007038
ENDCHAR
STARTCHAR 1F2B
ENCODING 7979
SWIDTH 468 0
DWIDTH 13 0
BBX 21 18 -8 0
BITMAP
440000
EC7038
E67038
677038
337038
007038
007038
007038
007FF8
007FF8
007038
007038
007038
007038
007038
007038
007038
007038
ENDCHAR
STARTCHAR 1F2C
ENCODING 7980
SWIDTH 468 0
DWIDTH 13 0
BBX 21 18 -8 0
BITMAP
220000
737038
777038
667038
CC7038
007038
007038
007038
007FF8
007FF8
007038
007038
007038
007038
007038
007038
007038
007038
ENDCHAR
STARTCHAR 1F2D
ENCODING 7981
SWIDTH 468 0
DWIDTH 13 0
BBX 21 18 -8 0
BITMAP
400000
E37038
C77038
C67038
6C7038
007038
007038
007038
007FF8
007FF8
007038
007038
007038
007038
007038
007038
007038
007038
ENDCHAR
STARTCHAR 1F2E
ENCODING 7982
SWIDTH 468 0
DWIDTH 13 0
BBX 19 19 -6 0
BITMAP
780000
CC0000
85C0E0
31C0E0
31C0E0
31C0E0
61C0E0
01C0E0
01C0E0
01FFE0
01FFE0
01C0E0
01C0E0
01C0E0
01C0E0
01C0E0
01C0E0
01C0E0
01C0E0
ENDCHAR
STARTCHAR 1F2F
ENCODING 7983
SWIDTH 468 0
DWIDTH 13 0
BBX 19 19 -6 0
BITMAP
780000
CC0000
85C0E0
31C0E0
31C0E0
31C0E0
19C0E0
01C0E0
01C0E0
01FFE0
01FFE0
01C0E0
01C0E0
01C0E0
01C0E0
01C0E0
01C0E0
01C0E0
01C0E0
ENDCHAR
STARTCHAR 1F30
ENCODING 7984
SWIDTH 468 0
DWIDTH 13 0
BBX 11 19 1 0
BITMAP
0E00
0E00
0400
0C00
0000
0000
FE00
FE00
0E00
0E00
0E00
0E00
0E00
0E00
0E00
0E00
0E00
07E0
07E0
ENDCHAR
STARTCHAR 1F31
ENCODING 7985
SWIDTH 468 0
DWIDTH 13 0
BBX 11 19 1 0
BITMAP
0C00
1C00
0C00
0600
0000
0000
FE00
FE00
0E00
0E00
0E00
0E00
0E00
0E00
0E00
0E00
0E00
07E0
07E0
ENDCHAR
STARTCHAR 1F32
ENCODING 7986
SWIDTH 468 0
DWIDTH 13 0
BBX 11 19 1 0
BITMAP
3600
3300
3380
6180
0080
0000
FE00
FE00
0E00
0E00
0E00
0E00
0E00
0E00
0E00
0E00
0E00
07E0
07E0
ENDCHAR
STARTCHAR 1F33
ENCODING 7987
SWIDTH 468 0
DWIDTH 13 0
BBX 11 19 1 0
BITMAP
7600
7700
2300
3180
1000
0000
FE00
FE00
0E00
0E00
0E00
0E00
0E00
0E00
0E00
0E00
0E00
07E0
07E0
ENDCHAR
STARTCHAR 1F34
ENCODING 7988
SWIDTH 468 0
DWIDTH 13 0
BBX 11 19 1 0
BITMAP
3980
3980
1B00
3700
2200
0000
FE00
FE00
0E00
0E00
0E00
0E00
0E00
0E00
0E00
0E00
0E00
07E0
07E0
ENDCHAR
STARTCHAR 1F35
ENCODING 7989
SWIDTH 468 0
DWIDTH 13 0
BBX 11 19 1 0
BITMAP
7180
7180
2300
3300
1200
0000
FE00
FE00
0E00
0E00
0E00
0E00
0E00
0E00
0E00
0E00
0E00
07E0
07E0
ENDCHAR
STARTCHAR 1F36
ENCODING 7990
SWIDTH 468 0
DWIDTH 13 0
BBX 11 22 1 0
BITMAP
0E00
3F00
3100
0400
0E00
0C00
0C00
0000
0000
FE00
FE00
0E00
0E00
0E00
0E00
0E00
0E00
0E00
0E00
0E00
07E0
07E0
ENDCHAR
STARTCHAR 1F37
ENCODING 7991
SWIDTH 468 0
DWIDTH 13 0
BBX 11 22 1 0
BITMAP
0E00
3F00
3100
0400
0C00
0C00
0600
0200
0000
FE00
FE00
0E00
0E00
0E00
0E00
0E00
0E00
0E00
0E00
0E00
07E0
07E0
ENDCHAR
STARTCHAR 1F38
ENCODING 7992
SWIDTH 468 0
DWIDTH 13 0
BBX 13 17 -2 1
BITMAP
EFF8
6FF8
60C0
C0C0
00C0
00C0
00C0
00C0
00C0
00C0
00C0
00C0
00C0
00C0
00C0
0FF8
0FF8
ENDCHAR
STARTCHAR 1F39
ENCODING 7993
SWIDTH 468 0
DWIDTH 13 0
BBX 13 18 -2 0
BITMAP
4000
EFF8
EFF8
40C0
60C0
00C0
00C0
00C0
00C0
00C0
00C0
00C0
00C0
00C0
00C0
00C0
0FF8
0FF8
ENDCHAR
STARTCHAR 1F3A
ENCODING 7994
SWIDTH 468 0
DWIDTH 13 0
BBX 18 18 -7 0
BITMAP
400000
6E7FC0
667FC0
630600
C18600
000600
000600
000600
000600
000600
000600
000600
000600
000600
000600
000600
007FC0
007FC0
ENDCHAR
STARTCHAR 1F3B
ENCODING 7995
SWIDTH 468 0
DWIDTH 13 0
BBX 17 18 -6 0
BITMAP
800000
DCFF80
CCFF80
C60C00
630C00
000C00
000C00
000C00
000C00
000C00
000C00
000C00
000C00
000C00
000C00
000C00
00FF80
00FF80
ENDCHAR
STARTCHAR 1F3C
ENCODING 7996
SWIDTH 468 0
DWIDTH 13 0
BBX 17 18 -6 0
BITMAP
400000
E7FF80
EEFF80
4C0C00
D80C00
000C00
000C00
000C00
000C00
000C00
000C00
000C00
000C00
000C00
000C00
000C00
00FF80
00FF80
ENDCHAR
STARTCHAR 1F3D
ENCODING 7997
SWIDTH 468 0
DWIDTH 13 0
BBX 18 18 -7 0
BITMAP
400000
E3FFC0
E77FC0
460600
6C0600
000600
000600
000600
000600
000600
000600
000600
000600
000600
000600
000600
007FC0
007FC0
ENDCHAR
STARTCHAR 1F3E
ENCODING 7998
SWIDTH 468 0
DWIDTH 13 0
BBX 16 19 -5 0
BITMAP
7800
CC00
85FF
31FF
3818
3018
6018
0018
0018
0018
0018
0018
0018
0018
0018
0018
0018
01FF
01FF
ENDCHAR
STARTCHAR 1F3F
ENCODING 7999
SWIDTH 468 0
DWIDTH 13 0
BBX 16 19 -5 0
BITMAP
7800
CC00
85FF
31FF
3018
3018
1818
0018
0018
0018
0018
0018
0018
0018
0018
0018
0018
01FF
01FF
ENDCHAR
STARTCHAR 1F40
ENCODING 8000
SWIDTH 468 0
DWIDTH 13 0
BBX 12 19 1 0
BITMAP
0700
0700
0600
0600
0000
0000
1F80
3FC0
70E0
6060
E070
E070
C070
E070
E070
6060
70E0
3FC0
1F80
ENDCHAR
STARTCHAR 1F41
ENCODING 8001
SWIDTH 468 0
DWIDTH 13 0
BBX 12 19 1 0
BITMAP
0E00
0E00
0600
0300
0000
0000
1F80
3FC0
70E0
6060
E070
E070
C070
E070
E070
6060
70E0
3FC0
1F80
ENDCHAR
STARTCHAR 1F42
ENCODING 8002
SWIDTH 468 0
DWIDTH 13 0
BBX 12 19 1 0
BITMAP
3B00
3B80
1980
30C0
2000
0000
1F80
3FC0
70E0
6060
E070
E070
C070
E070
E070
6060
70E0
3FC0
1F80
ENDCHAR
STARTCHAR 1F43
ENCODING 8003
SWIDTH 468 0
DWIDTH 13 0
BBX 12 19 1 0
BITMAP
3B00
3B00
3180
18C0
0880
0000
1F80
3FC0
70E0
6060
E070
E070
C070
E070
E070
6060
70E0
3FC0
1F80
ENDCHAR
STARTCHAR 1F44
ENCODING 8004
SWIDTH 468 0
DWIDTH 13 0
BBX 12 19 1 0
BITMAP
18C0
1980
1B80
3300
0200
0000
1F80
3FC0
70E0
6060
E070
E070
C070
E070
E070
6060
70E0
3FC0
1F80
ENDCHAR
STARTCHAR 1F45
ENCODING 8005
SWIDTH 468 0
DWIDTH 13 0
BBX 12 19 1 0
BITMAP
38C0
38C0
1180
1B80
0900
0000
1F80
3FC0
70E0
6060
E070
E070
C070
E070
E070
6060
70E0
3FC0
1F80
ENDCHAR
STARTCHAR 1F48
ENCODING 8008
SWIDTH 468 0
DWIDTH 13 0
BBX 15 18 -2 0
BITMAP
40C0
E3F0
E7F8
4E1C
CC0C
1C0E
1806
1806
1806
1806
1806
1806
180E
1C0E
0C0C
0E1C
07F8
03F0
ENDCHAR
STARTCHAR 1F49
ENCODING 8009
SWIDTH 468 0
DWIDTH 13 0
BBX 16 18 -3 0
BITMAP
0060
E1F8
C3FC
C70E
6606
0E07
0C03
0C03
0C03
0C03
0C03
0C03
0C07
0E07
0606
070E
03FC
01F8
ENDCHAR
STARTCHAR 1F4A
ENCODING 8010
SWIDTH 468 0
DWIDTH 13 0
BBX 21 18 -8 0
BITMAP
440300
EC0FC0
661FE0
673870
C33030
007038
006018
006018
006018
006018
006018
006018
006038
007038
003030
003870
001FE0
000FC0
ENDCHAR
STARTCHAR 1F4B
ENCODING 8011
SWIDTH 468 0
DWIDTH 13 0
BBX 21 18 -8 0
BITMAP
440300
EC0FC0
E61FE0
673870
333030
007038
006018
006018
006018
006018
006018
006018
006038
007038
003030
003870
001FE0
000FC0
ENDCHAR
STARTCHAR 1F4C
ENCODING 8012
SWIDTH 468 0
DWIDTH 13 0
BBX 19 18 -6 0
BITMAP
400C00
E73F00
EE7F80
4CE1C0
D8C0C0
01C0E0
018060
018060
018060
018060
018060
018060
0180E0
01C0E0
00C0C0
00E1C0
007F80
003F00
ENDCHAR
STARTCHAR 1F4D
ENCODING 8013
SWIDTH 468 0
DWIDTH 13 0
BBX 20 18 -7 0
BITMAP
400600
E39F80
E73FC0
4670E0
6C6060
00E070
00C030
00C030
00C030
00C030
00C030
00C030
00C070
00E070
006060
0070E0
003FC0
001F80
ENDCHAR
STARTCHAR 1F50
ENCODING 8016
SWIDTH 468 0
DWIDTH 13 0
BBX 10 19 2 0
BITMAP
0E00
0E00
0C00
0C00
0000
0000
C0C0
C0C0
C0C0
C0C0
C0C0
C0C0
C0C0
C0C0
C1C0
E1C0
E180
7F80
3F00
ENDCHAR
STARTCHAR 1F51
ENCODING 8017
SWIDTH 468 0
DWIDTH 13 0
BBX 10 19 2 0
BITMAP
1C00
1C00
0C00
0600
0000
0000
C0C0
C0C0
C0C0
C0C0
C0C0
C0C0
C0C0
C0C0
C1C0
E1C0
E180
7F80
3F00
ENDCHAR
STARTCHAR 1F52
ENCODING 8018
SWIDTH 468 0
DWIDTH 13 0
BBX 10 19 2 0
BITMAP
7600
7700
3300
6180
4000
0000
C0C0
C0C0
C0C0
C0C0
C0C0
C0C0
C0C0
C0C0
C1C0
E1C0
E180
7F80
3F00
ENDCHAR
STARTCHAR 1F53
ENCODING 8019
SWIDTH 468 0
DWIDTH 13 0
BBX 10 19 2 0
BITMAP
7600
7600
6300
3180
1100
0000
C0C0
C0C0
C0C0
C0C0
C0C0
C0C0
C0C0
C0C0
C1C0
E1C0
E180
7F80
3F00
ENDCHAR
STARTCHAR 1F54
ENCODING 8020
SWIDTH 468 0
DWIDTH 13 0
BBX 10 19 2 0
BITMAP
3180
3300
3700
6600
0400
0000
C0C0
C0C0
C0C0
C0C0
C0C0
C0C0
C0C0
C0C0
C1C0
E1C0
E180
7F80
3F00
ENDCHAR
STARTCHAR 1F55
ENCODING 8021
SWIDTH 468 0
DWIDTH 13 0
BBX 10 19 2 0
BITMAP
7180
7180
2300
3700
1200
0000
C0C0
C0C0
C0C0
C0C0
C0C0
C0C0
C0C0
C0C0
C1C0
E1C0
E180
7F80
3F00
ENDCHAR
STARTCHAR 1F56
ENCODING 8022
SWIDTH 468 0
DWIDTH 13 0
BBX 10 22 2 0
BITMAP
1E00
3F00
2100
0000
0C00
0C00
1800
1000
0000
C0C0
C0C0
C0C0
C0C0
C0C0
C0C0
C0C0
C0C0
C1C0
E1C0
E180
7F80
3F00
ENDCHAR
STARTCHAR 1F57
ENCODING 8023
SWIDTH 468 0
DWIDTH 13 0
BBX 10 22 2 0
BITMAP
1E00
3F00
2100
0800
0C00
0C00
0C00
0000
0000
C0C0
C0C0
C0C0
C0C0
C0C0
C0C0
C0C0
C0C0
C1C0
E1C0
E180
7F80
3F00
ENDCHAR
STARTCHAR 1F59
ENCODING 8025
SWIDTH 468 0
DWIDTH 13 0
BBX 16 17 -3 1
BITMAP
EC03
CE07
CE06
6606
070C
030C
0398
0198
00F0
00F0
0060
0060
0060
0060
0060
0060
0060
ENDCHAR
STARTCHAR 1F5B
ENCODING 8027
SWIDTH 468 0
DWIDTH 13 0
BBX 20 17 -7 1
BITMAP
DCC030
CCE070
C6E060
676060
0070C0
0030C0
003980
001980
000F00
000F00
000600
000600
000600
000600
000600
000600
000600
ENDCHAR
STARTCHAR 1F5D
ENCODING 8029
SWIDTH 468 0
DWIDTH 13 0
BBX 22 18 -9 0
BITMAP
400000
E3B00C
E3381C
663818
3C1818
001C30
000C30
000E60
000660
0003C0
0003C0
000180
000180
000180
000180
000180
000180
000180
ENDCHAR
STARTCHAR 1F5F
ENCODING 8031
SWIDTH 468 0
DWIDTH 13 0
BBX 20 19 -7 0
BITMAP
780000
CC0000
84C030
30E070
30E060
306060
1870C0
0030C0
003980
001980
000F00
000F00
000600
000600
000600
000600
000600
000600
000600
ENDCHAR
STARTCHAR 1F60
ENCODING 8032
SWIDTH 468 0
DWIDTH 13 0
BBX 12 19 1 0
BITMAP
0700
0700
0600
0600
0000
0000
30C0
70E0
60E0
6060
E070
E670
C630
C630
C630
C630
EE70
7FE0
79E0
ENDCHAR
STARTCHAR 1F61
ENCODING 8033
SWIDTH 468 0
DWIDTH 13 0
BBX 12 19 1 0
BITMAP
0E00
0E00
0600
0300
0000
0000
30C0
70E0
60E0
6060
E070
E670
C630
C630
C630
C630
EE70
7FE0
79E0
ENDCHAR
STARTCHAR 1F62
ENCODING 8034
SWIDTH 468 0
DWIDTH 13 0
BBX 12 19 1 0
BITMAP
3B00
3B80
1980
30C0
2000
0000
30C0
70E0
60E0
6060
E070
E670
C630
C630
C630
C630
EE70
7FE0
79E0
ENDCHAR
STARTCHAR 1F63
ENCODING 8035
SWIDTH 468 0
DWIDTH 13 0
BBX 12 19 1 0
BITMAP
3B00
3B00
3180
18C0
0880
0000
30C0
70E0
60E0
6060
E070
E670
C630
C630
C630
C630
EE70
7FE0
79E0
ENDCHAR
STARTCHAR 1F64
ENCODING 8036
SWIDTH 468 0
DWIDTH 13 0
BBX 12 19 1 0
BITMAP
18C0
1980
1B80
3300
0200
0000
30C0
70E0
60E0
6060
E070
E670
C630
C630
C630
C630
EE70
7FE0
79E0
ENDCHAR
STARTCHAR 1F65
ENCODING 8037
SWIDTH 468 0
DWIDTH 13 0
BBX 12 19 1 0
BITMAP
38C0
38C0
1180
1B80
0900
0000
30C0
70E0
60E0
6060
E070
E670
C630
C630
C630
C630
EE70
7FE0
79E0
ENDCHAR
STARTCHAR 1F66
ENCODING 8038
SWIDTH 468 0
DWIDTH 13 0
BBX 12 22 1 0
BITMAP
0F00
1F80
1080
0000
0600
0600
0C00
0800
0000
30C0
70E0
60E0
6060
E070
E670
C630
C630
C630
C630
EE70
7FE0
79E0
ENDCHAR
STARTCHAR 1F67
ENCODING 8039
SWIDTH 468 0
DWIDTH 13 0
BBX 12 22 1 0
BITMAP
0F00
1F80
1080
0400
0600
0600
0600
0000
0000
30C0
70E0
60E0
6060
E070
E670
C630
C630
C630
C630
EE70
7FE0
79E0
ENDCHAR
STARTCHAR 1F68
ENCODING 8040
SWIDTH 468 0
DWIDTH 13 0
BBX 16 18 -3 0
BITMAP
2060
71F8
73FC
670E
C606
0E07
0C03
0C03
0C03
0C03
0C07
0E07
0606
0606
070C
030C
1F9F
1F9F
ENDCHAR
STARTCHAR 1F69
ENCODING 8041
SWIDTH 468 0
DWIDTH 13 0
BBX 16 18 -3 0
BITMAP
8060
E1F8
C3FC
C70E
6606
0E07
0C03
0C03
0C03
0C03
0C07
0E07
0606
0606
070C
030C
1F9F
1F9F
ENDCHAR
STARTCHAR 1F6A
ENCODING 8042
SWIDTH 468 0
DWIDTH 13 0
BBX 21 18 -8 0
BITMAP
440300
EC0FC0
661FE0
673870
C33030
007038
006018
006018
006018
006018
006038
007038
003030
003030
003860
001860
00FCF8
00FCF8
ENDCHAR
STARTCHAR 1F6B
ENCODING 8043
SWIDTH 468 0
DWIDTH 13 0
BBX 21 18 -8 0
BITMAP
440300
EC0FC0
E61FE0
673870
333030
007038
006018
006018
006018
006018
006038
007038
003030
003030
003860
001860
00FCF8
00FCF8
ENDCHAR
STARTCHAR 1F6C
ENCODING 8044
SWIDTH 468 0
DWIDTH 13 0
BBX 19 18 -6 0
BITMAP
400C00
E63F00
EE7F80
4CE1C0
D8C0C0
01C0E0
018060
018060
018060
018060
0180E0
01C0E0
00C0C0
00C0C0
00E180
006180
03F3E0
03F3E0
ENDCHAR
STARTCHAR 1F6D
ENCODING 8045
SWIDTH 468 0
DWIDTH 13 0
BBX 20 18 -7 0
BITMAP
400600
E31F80
E73FC0
4670E0
6C6060
20E070
00C030
00C030
00C030
00C030
00C070
00E070
006060
006060
0070C0
0030C0
01F9F0
01F9F0
ENDCHAR
STARTCHAR 1F6E
ENCODING 8046
SWIDTH 468 0
DWIDTH 13 0
BBX 18 19 -5 0
BITMAP
7C0000
661800
C67E00
18FF00
39C380
198180
3381C0
0300C0
0300C0
0300C0
0300C0
0301C0
0381C0
018180
018180
01C300
00C300
07E7C0
07E7C0
ENDCHAR
STARTCHAR 1F6F
ENCODING 8047
SWIDTH 468 0
DWIDTH 13 0
BBX 18 19 -5 0
BITMAP
780000
CC1800
847E00
30FF00
71C380
318180
1B81C0
0300C0
0300C0
0300C0
0300C0
0301C0
0381C0
018180
018180
01C300
00C300
07E7C0
07E7C0
ENDCHAR
STARTCHAR 1F70
ENCODING 8048
SWIDTH 468 0
DWIDTH 13 0
BBX 12 19 1 0
BITMAP
0C00
1E00
0700
0380
0000
0000
0FE0
3FE0
7060
6060
6060
E060
E060
E060
6060
6060
70E0
3FF0
1FB0
ENDCHAR
STARTCHAR 1F71
ENCODING 8049
SWIDTH 468 0
DWIDTH 13 0
BBX 12 19 1 0
BITMAP
0180
0380
0700
0E00
0000
0000
0FE0
3FE0
7060
6060
6060
E060
E060
E060
6060
6060
70E0
3FF0
1FB0
ENDCHAR
STARTCHAR 1F72
ENCODING 8050
SWIDTH 468 0
DWIDTH 13 0
BBX 11 19 2 0
BITMAP
1800
3C00
0E00
0700
0000
0000
3FC0
7FC0
E000
E000
6000
7F00
3F00
7000
C000
C000
E000
7FE0
3FE0
ENDCHAR
STARTCHAR 1F73
ENCODING 8051
SWIDTH 468 0
DWIDTH 13 0
BBX 11 19 2 0
BITMAP
0300
0700
0E00
1C00
0000
0000
3FC0
7FC0
E000
E000
6000
7F00
3F00
7000
C000
C000
E000
7FE0
3FE0
ENDCHAR
STARTCHAR 1F74
ENCODING 8052
SWIDTH 468 0
DWIDTH 13 0
BBX 10 24 2 -5
BITMAP
1800
3C00
0E00
0700
0000
0000
FF00
FF80
C1C0
C1C0
C0C0
C0C0
C0C0
C0C0
C0C0
C0C0
C0C0
C0C0
C0C0
00C0
00C0
00C0
00C0
00C0
ENDCHAR
STARTCHAR 1F75
ENCODING 8053
SWIDTH 468 0
DWIDTH 13 0
BBX 10 24 2 -5
BITMAP
0300
0700
0E00
1C00
0000
0000
FF00
FF80
C1C0
C1C0
C0C0
C0C0
C0C0
C0C0
C0C0
C0C0
C0C0
C0C0
C0C0
00C0
00C0
00C0
00C0
00C0
ENDCHAR
STARTCHAR 1F76
ENCODING 8054
SWIDTH 468 0
DWIDTH 13 0
BBX 11 19 1 0
BITMAP
1800
1C00
0E00
0700
0000
0000
FE00
FE00
0E00
0E00
0E00
0E00
0E00
0E00
0E00
0E00
0E00
07E0
07E0
ENDCHAR
STARTCHAR 1F77
ENCODING 8055
SWIDTH 468 0
DWIDTH 13 0
BBX 11 19 1 0
BITMAP
0300
0700
0E00
1C00
0000
0000
FE00
FE00
0E00
0E00
0E00
0E00
0E00
0E00
0E00
0E00
0E00
07E0
07E0
ENDCHAR
STARTCHAR 1F78
ENCODING 8056
SWIDTH 468 0
DWIDTH 13 0
BBX 12 19 1 0
BITMAP
0C00
1E00
0700
0380
0000
0000
1F80
3FC0
70E0
6060
E070
E070
C070
E070
E070
6060
70E0
3FC0
1F80
ENDCHAR
STARTCHAR 1F79
ENCODING 8057
SWIDTH 468 0
DWIDTH 13 0
BBX 12 19 1 0
BITMAP
0180
0380
0700
0E00
0000
0000
1F80
3FC0
70E0
6060
E070
E070
C070
E070
E070
6060
70E0
3FC0
1F80
ENDCHAR
STARTCHAR 1F7A
ENCODING 8058
SWIDTH 468 0
DWIDTH 13 0
BBX 10 19 2 0
BITMAP
1800
3C00
0E00
0700
0000
0000
C0C0
C0C0
C0C0
C0C0
C0C0
C0C0
C0C0
C0C0
C1C0
E1C0
E180
7F80
3F00
ENDCHAR
STARTCHAR 1F7B
ENCODING 8059
SWIDTH 468 0
DWIDTH 13 0
BBX 10 19 2 0
BITMAP
0300
0700
0E00
1C00
0000
0000
C0C0
C0C0
C0C0
C0C0
C0C0
C0C0
C0C0
C0C0
C1C0
E1C0
E180
7F80
3F00
ENDCHAR
STARTCHAR 1F7C
ENCODING 8060
SWIDTH 468 0
DWIDTH 13 0
BBX 12 19 1 0
BITMAP
0C00
1E00
0700
0380
0000
0000
30C0
70E0
60E0
6060
E070
E670
C630
C630
C630
C630
EE70
7FE0
79E0
ENDCHAR
STARTCHAR 1F7D
ENCODING 8061
SWIDTH 468 0
DWIDTH 13 0
BBX 12 19 1 0
BITMAP
0180
0380
0700
0E00
0000
0000
30C0
70E0
60E0
6060
E070
E670
C630
C630
C630
C630
EE70
7FE0
79E0
ENDCHAR
STARTCHAR 1F80
ENCODING 8064
SWIDTH 468 0
DWIDTH 13 0
BBX 12 24 1 -5
BITMAP
0700
0700
0600
0600
0000
0000
0FE0
3FE0
7060
6060
6060
E060
E060
E060
6060
6060
70E0
3FF0
1FB0
0000
0E00
0600
0780
0380
ENDCHAR
STARTCHAR 1F81
ENCODING 8065
SWIDTH 468 0
DWIDTH 13 0
BBX 12 24 1 -5
BITMAP
0E00
0E00
0600
0300
0000
0000
0FE0
3FE0
7060
6060
6060
E060
E060
E060
6060
6060
70E0
3FF0
1FB0
0000
0E00
0600
0780
0380
ENDCHAR
STARTCHAR 1F82
ENCODING 8066
SWIDTH 468 0
DWIDTH 13 0
BBX 12 24 1 -5
BITMAP
3B00
3B80
1980
30C0
2000
0000
0FE0
3FE0
7060
6060
6060
E060
E060
E060
6060
6060
70E0
3FF0
1FB0
0000
0E00
0600
0780
0380
ENDCHAR
STARTCHAR 1F83
ENCODING 8067
SWIDTH 468 0
DWIDTH 13 0
BBX 12 24 1 -5
BITMAP
3B00
3B00
3180
18C0
0880
0000
0FE0
3FE0
7060
6060
6060
E060
E060
E060
6060
6060
70E0
3FF0
1FB0
0000
0E00
0600
0780
0380
ENDCHAR
STARTCHAR 1F84
ENCODING 8068
SWIDTH 468 0
DWIDTH 13 0
BBX 12 24 1 -5
BITMAP
0C60
0CC0
0DC0
1980
0100
0000
0FE0
3FE0
7060
6060
6060
E060
E060
E060
6060
6060
70E0
3FF0
1FB0
0000
0E00
0600
0780
0380
ENDCHAR
STARTCHAR 1F85
ENCODING 8069
SWIDTH 468 0
DWIDTH 13 0
BBX 12 24 1 -5
BITMAP
38C0
38C0
1180
1B80
0900
0000
0FE0
3FE0
7060
6060
6060
E060
E060
E060
6060
6060
70E0
3FF0
1FB0
0000
0E00
0600
0780
0380
ENDCHAR
STARTCHAR 1F86
ENCODING 8070
SWIDTH 468 0
DWIDTH 13 0
BBX 12 27 1 -5
BITMAP
0700
0F80
18C0
0200
0700
0300
0600
0400
0000
0FE0
3FE0
7060
6060
6060
E060
E060
E060
6060
6060
70E0
3FF0
1FB0
0000
0E00
0600
0780
0380
ENDCHAR
STARTCHAR 1F87
ENCODING 8071
SWIDTH 468 0
DWIDTH 13 0
BBX 12 27 1 -5
BITMAP
0F00
1F80
1080
0400
0600
0600
0600
0000
0000
0FE0
3FE0
7060
6060
6060
E060
E060
E060
6060
6060
70E0
3FF0
1FB0
0000
0E00
0600
0780
0380
ENDCHAR
STARTCHAR 1F88
ENCODING 8072
SWIDTH 468 0
DWIDTH 13 0
BBX 16 18 -2 0
BITMAP
4000
7700
7780
6780
C580
0D8C
0D8C
0CCC
0CCC
0CCC
18CC
18CC
1FEC
1FEC
186C
186E
3867
3067
ENDCHAR
STARTCHAR 1F89
ENCODING 8073
SWIDTH 468 0
DWIDTH 13 0
BBX 16 18 -2 0
BITMAP
8000
E700
C780
C780
6580
0D8C
0D8C
0CCC
0CCC
0CCC
18CC
18CC
1FEC
1FEC
186C
186E
3867
3067
ENDCHAR
STARTCHAR 1F8A
ENCODING 8074
SWIDTH 468 0
DWIDTH 13 0
BBX 21 18 -7 0
BITMAP
440000
EC3800
663C00
673C00
C32C00
006C60
006C60
006660
006660
006660
00C660
00C660
00FF60
00FF60
00C360
00C370
01C338
018338
ENDCHAR
STARTCHAR 1F8B
ENCODING 8075
SWIDTH 468 0
DWIDTH 13 0
BBX 21 18 -7 0
BITMAP
440000
EC3800
E63C00
673C00
332C00
006C60
006C60
006660
006660
006660
00C660
00C660
00FF60
00FF60
00C360
00C370
01C338
018338
ENDCHAR
STARTCHAR 1F8C
ENCODING 8076
SWIDTH 468 0
DWIDTH 13 0
BBX 20 18 -6 0
BITMAP
020000
637000
667800
6E7800
CC5800
00D8C0
00D8C0
00CCC0
00CCC0
00CCC0
018CC0
018CC0
01FEC0
01FEC0
0186C0
0186E0
038670
030670
ENDCHAR
STARTCHAR 1F8D
ENCODING 8077
SWIDTH 468 0
DWIDTH 13 0
BBX 20 18 -6 0
BITMAP
020000
C37000
C67800
CE7800
6C5800
00D8C0
00D8C0
00CCC0
00CCC0
00CCC0
018CC0
018CC0
01FEC0
01FEC0
0186C0
0186E0
038670
030670
ENDCHAR
STARTCHAR 1F8E
ENCODING 8078
SWIDTH 468 0
DWIDTH 13 0
BBX 18 19 -4 0
BITMAP
780000
CC0000
85C000
31E000
31E000
316000
636300
036300
033300
033300
033300
063300
063300
07FB00
07FB00
061B00
061B80
0E19C0
0C19C0
ENDCHAR
STARTCHAR 1F8F
ENCODING 8079
SWIDTH 468 0
DWIDTH 13 0
BBX 19 19 -5 0
BITMAP
7C0000
660000
C6E000
38F000
38F000
10B000
0DB180
01B180
019980
019980
019980
031980
031980
03FD80
03FD80
030D80
030DC0
070CE0
060CE0
ENDCHAR
STARTCHAR 1F90
ENCODING 8080
SWIDTH 468 0
DWIDTH 13 0
BBX 10 24 2 -5
BITMAP
0E00
0E00
0C00
0C00
0000
0000
FF00
FF80
C1C0
C1C0
C0C0
C0C0
C0C0
C0C0
C0C0
C0C0
C0C0
C0C0
C0C0
00C0
C0C0
C0C0
F0C0
30C0
ENDCHAR
STARTCHAR 1F91
ENCODING 8081
SWIDTH 468 0
DWIDTH 13 0
BBX 10 24 2 -5
BITMAP
1C00
1C00
0C00
0600
0000
0000
FF00
FF80
C1C0
C1C0
C0C0
C0C0
C0C0
C0C0
C0C0
C0C0
C0C0
C0C0
C0C0
00C0
C0C0
C0C0
F0C0
30C0
ENDCHAR
STARTCHAR 1F92
ENCODING 8082
SWIDTH 468 0
DWIDTH 13 0
BBX 10 24 2 -5
BITMAP
7600
7700
3300
6180
4000
0000
FF00
FF80
C1C0
C1C0
C0C0
C0C0
C0C0
C0C0
C0C0
C0C0
C0C0
C0C0
C0C0
00C0
C0C0
C0C0
F0C0
30C0
ENDCHAR
STARTCHAR 1F93
ENCODING 8083
SWIDTH 468 0
DWIDTH 13 0
BBX 10 24 2 -5
BITMAP
7600
7600
6300
3180
1100
0000
FF00
FF80
C1C0
C1C0
C0C0
C0C0
C0C0
C0C0
C0C0
C0C0
C0C0
C0C0
C0C0
00C0
C0C0
C0C0
F0C0
30C0
ENDCHAR
STARTCHAR 1F94
ENCODING 8084
SWIDTH 468 0
DWIDTH 13 0
BBX 10 24 2 -5
BITMAP
3180
3300
3700
6600
0400
0000
FF00
FF80
C1C0
C1C0
C0C0
C0C0
C0C0
C0C0
C0C0
C0C0
C0C0
C0C0
C0C0
00C0
C0C0
C0C0
F0C0
30C0
ENDCHAR
STARTCHAR 1F95
ENCODING 8085
SWIDTH 468 0
DWIDTH 13 0
BBX 10 24 2 -5
BITMAP
7180
7180
2300
3700
1200
0000
FF00
FF80
C1C0
C1C0
C0C0
C0C0
C0C0
C0C0
C0C0
C0C0
C0C0
C0C0
C0C0
00C0
C0C0
C0C0
F0C0
30C0
ENDCHAR
STARTCHAR 1F96
ENCODING 8086
SWIDTH 468 0
DWIDTH 13 0
BBX 10 27 2 -5
BITMAP
1E00
3F00
2100
0000
0C00
0C00
1800
1000
0000
FF00
FF80
C1C0
C1C0
C0C0
C0C0
C0C0
C0C0
C0C0
C0C0
C0C0
C0C0
C0C0
00C0
C0C0
C0C0
F0C0
30C0
ENDCHAR
STARTCHAR 1F97
ENCODING 8087
SWIDTH 468 0
DWIDTH 13 0
BBX 10 27 2 -5
BITMAP
1E00
3F00
2100
0800
0C00
0C00
0C00
0000
0000
FF00
FF80
C1C0
C1C0
C0C0
C0C0
C0C0
C0C0
C0C0
C0C0
C0C0
C0C0
C0C0
00C0
C0C0
C0C0
F0C0
30C0
ENDCHAR
STARTCHAR 1F98
ENCODING 8088
SWIDTH 468 0
DWIDTH 13 0
BBX 17 18 -3 0
BITMAP
400000
EC3000
EC3000
4C3000
CC3000
0C3600
0C3600
0C3600
0FF600
0FF600
0C3600
0C3600
0C3600
0C3600
0C3600
0C3700
0C3380
0C3380
ENDCHAR
STARTCHAR 1F99
ENCODING 8089
SWIDTH 468 0
DWIDTH 13 0
BBX 17 18 -3 0
BITMAP
800000
CC3000
CC3000
CC3000
6C3000
0C3600
0C3600
0C3600
0FF600
0FF600
0C3600
0C3600
0C3600
0C3600
0C3600
0C3700
0C3380
0C3380
ENDCHAR
STARTCHAR 1F9A
ENCODING 8090
SWIDTH 468 0
DWIDTH 13 0
BBX 22 18 -8 0
BITMAP
040000
EC6180
666180
676180
C36180
0061B0
0061B0
0061B0
007FB0
007FB0
0061B0
0061B0
0061B0
0061B0
0061B0
0061B8
00619C
00619C
ENDCHAR
STARTCHAR 1F9B
ENCODING 8091
SWIDTH 468 0
DWIDTH 13 0
BBX 22 18 -8 0
BITMAP
440000
EC6180
E66180
676180
336180
0061B0
0061B0
0061B0
007FB0
007FB0
0061B0
0061B0
0061B0
0061B0
0061B0
0061B8
00619C
00619C
ENDCHAR
STARTCHAR 1F9C
ENCODING 8092
SWIDTH 468 0
DWIDTH 13 0
BBX 22 18 -8 0
BITMAP
220000
736180
776180
666180
CC6180
0061B0
0061B0
0061B0
007FB0
007FB0
0061B0
0061B0
0061B0
0061B0
0061B0
0061B8
00619C
00619C
ENDCHAR
STARTCHAR 1F9D
ENCODING 8093
SWIDTH 468 0
DWIDTH 13 0
BBX 22 18 -8 0
BITMAP
400000
E36180
C76180
C66180
6C6180
0061B0
0061B0
0061B0
007FB0
007FB0
0061B0
0061B0
0061B0
0061B0
0061B0
0061B8
00619C
00619C
ENDCHAR
STARTCHAR 1F9E
ENCODING 8094
SWIDTH 468 0
DWIDTH 13 0
BBX 20 19 -6 0
BITMAP
780000
CC0000
858600
318600
318600
318600
6186C0
0186C0
0186C0
01FEC0
01FEC0
0186C0
0186C0
0186C0
0186C0
0186C0
0186E0
018670
018670
ENDCHAR
STARTCHAR 1F9F
ENCODING 8095
SWIDTH 468 0
DWIDTH 13 0
BBX 20 19 -6 0
BITMAP
780000
CC0000
858600
318600
318600
318600
1986C0
0186C0
0186C0
01FEC0
01FEC0
0186C0
0186C0
0186C0
0186C0
0186C0
0186E0
018670
018670
ENDCHAR
STARTCHAR 1FA0
ENCODING 8096
SWIDTH 468 0
DWIDTH 13 0
BBX 12 24 1 -5
BITMAP
0700
0700
0600
0600
0000
0000
30C0
70E0
60E0
6060
E070
E670
C630
C630
C630
C630
EE70
7FE0
79E0
0000
0600
0600
0780
0380
ENDCHAR
STARTCHAR 1FA1
ENCODING 8097
SWIDTH 468 0
DWIDTH 13 0
BBX 12 24 1 -5
BITMAP
0E00
0E00
0600
0300
0000
0000
30C0
70E0
60E0
6060
E070
E670
C630
C630
C630
C630
EE70
7FE0
79E0
0000
0600
0600
0780
0380
ENDCHAR
STARTCHAR 1FA2
ENCODING 8098
SWIDTH 468 0
DWIDTH 13 0
BBX 12 24 1 -5
BITMAP
3B00
3B80
1980
30C0
2000
0000
30C0
70E0
60E0
6060
E070
E670
C630
C630
C630
C630
EE70
7FE0
79E0
0000
0600
0600
0780
0380
ENDCHAR
STARTCHAR 1FA3
ENCODING 8099
SWIDTH 468 0
DWIDTH 13 0
BBX 12 24 1 -5
BITMAP
3B00
3B00
3180
18C0
0880
0000
30C0
70E0
60E0
6060
E070
E670
C630
C630
C630
C630
EE70
7FE0
79E0
0000
0600
0600
0780
0380
ENDCHAR
STARTCHAR 1FA4
ENCODING 8100
SWIDTH 468 0
DWIDTH 13 0
BBX 12 24 1 -5
BITMAP
18C0
1980
1B80
3300
0200
0000
30C0
70E0
60E0
6060
E070
E670
C630
C630
C630
C630
EE70
7FE0
79E0
0000
0600
0600
0780
0380
ENDCHAR
STARTCHAR 1FA5
ENCODING 8101
SWIDTH 468 0
DWIDTH 13 0
BBX 12 24 1 -5
BITMAP
38C0
38C0
1180
1B80
0900
0000
30C0
70E0
60E0
6060
E070
E670
C630
C630
C630
C630
EE70
7FE0
79E0
0000
0600
0600
0780
0380
ENDCHAR
STARTCHAR 1FA6
ENCODING 8102
SWIDTH 468 0
DWIDTH 13 0
BBX 12 27 1 -5
BITMAP
0F00
1F80
1080
0000
0600
0600
0C00
0800
0000
30C0
70E0
60E0
6060
E070
E670
C630
C630
C630
C630
EE70
7FE0
79E0
0000
0600
0600
0780
0380
ENDCHAR
STARTCHAR 1FA7
ENCODING 8103
SWIDTH 468 0
DWIDTH 13 0
BBX 12 27 1 -5
BITMAP
0F00
1F80
1080
0400
0600
0600
0600
0000
0000
30C0
70E0
60E0
6060
E070
E670
C630
C630
C630
C630
EE70
7FE0
79E0
0000
0600
0600
0780
0380
ENDCHAR
STARTCHAR 1FA8
ENCODING 8104
SWIDTH 468 0
DWIDTH 13 0
BBX 17 18 -3 0
BITMAP
010000
77C000
77E000
6C6000
CC6000
0C3600
0C3600
0C3600
0C3600
0C3600
0C3600
0C3600
0C6600
0C6600
066600
064700
1EF380
1EF380
ENDCHAR
STARTCHAR 1FA9
ENCODING 8105
SWIDTH 468 0
DWIDTH 13 0
BBX 18 18 -4 0
BITMAP
008000
E3E000
E3F000
663000
363000
061B00
061B00
061B00
061B00
061B00
061B00
061B00
063300
063300
033300
032380
0F79C0
0F79C0
ENDCHAR
STARTCHAR 1FAA
ENCODING 8106
SWIDTH 468 0
DWIDTH 13 0
BBX 22 18 -8 0
BITMAP
400800
EC3E00
EE3F00
466300
C36300
0061B0
0061B0
0061B0
0061B0
0061B0
0061B0
0061B0
006330
006330
003330
003238
00F79C
00F79C
ENDCHAR
STARTCHAR 1FAB
ENCODING 8107
SWIDTH 468 0
DWIDTH 13 0
BBX 22 18 -8 0
BITMAP
400800
EC3E00
EE3F00
466300
636300
2061B0
0061B0
0061B0
0061B0
0061B0
0061B0
0061B0
006330
006330
003330
003238
00F79C
00F79C
ENDCHAR
STARTCHAR 1FAC
ENCODING 8108
SWIDTH 468 0
DWIDTH 13 0
BBX 21 18 -7 0
BITMAP
221000
737C00
777E00
66C600
CCC600
00C360
00C360
00C360
00C360
00C360
00C360
00C360
00C660
00C660
006660
006470
01EF38
01EF38
ENDCHAR
STARTCHAR 1FAD
ENCODING 8109
SWIDTH 468 0
DWIDTH 13 0
BBX 21 18 -7 0
BITMAP
021000
E37C00
C77E00
CEC600
6CC600
00C360
00C360
00C360
00C360
00C360
00C360
00C360
00C660
00C660
006660
006470
01EF38
01EF38
ENDCHAR
STARTCHAR 1FAE
ENCODING 8110
SWIDTH 468 0
DWIDTH 13 0
BBX 19 19 -5 0
BITMAP
780000
CC4000
85F000
31F800
331800
331800
630D80
030D80
030D80
030D80
030D80
030D80
030D80
031980
031980
019980
0191C0
07BCE0
07BCE0
ENDCHAR
STARTCHAR 1FAF
ENCODING 8111
SWIDTH 468 0
DWIDTH 13 0
BBX 20 19 -6 0
BITMAP
7C0000
CC2000
86F800
30FC00
398C00
318C00
1986C0
0186C0
0186C0
0186C0
0186C0
0186C0
0186C0
018CC0
018CC0
00CCC0
00C8E0
03DE70
03DE70
ENDCHAR
STARTCHAR 1FB0
ENCODING 8112
SWIDTH 468 0
DWIDTH 13 0
BBX 12 19 1 0
BITMAP
1080
1180
1F80
0F00
0000
0000
0FE0
3FE0
7060
6060
6060
E060
E060
E060
6060
6060
70E0
3FF0
1FB0
ENDCHAR
STARTCHAR 1FB1
ENCODING 8113
SWIDTH 468 0
DWIDTH 13 0
BBX 12 18 1 0
BITMAP
3F80
3F80
0000
0000
0000
0FE0
3FE0
7060
6060
6060
E060
E060
E060
6060
6060
70E0
3FF0
1FB0
ENDCHAR
STARTCHAR 1FB2
ENCODING 8114
SWIDTH 468 0
DWIDTH 13 0
BBX 12 24 1 -5
BITMAP
0C00
1E00
0700
0380
0000
0000
0FE0
3FE0
7060
6060
6060
E060
E060
E060
6060
6060
70E0
3FF0
1FB0
0000
0E00
0600
0780
0380
ENDCHAR
STARTCHAR 1FB3
ENCODING 8115
SWIDTH 468 0
DWIDTH 13 0
BBX 12 18 1 -5
BITMAP
0FE0
3FE0
7060
6060
6060
E060
E060
E060
6060
6060
70E0
3FF0
1FB0
0000
0E00
0600
0780
0380
ENDCHAR
STARTCHAR 1FB4
ENCODING 8116
SWIDTH 468 0
DWIDTH 13 0
BBX 12 24 1 -5
BITMAP
0180
0380
0700
0E00
0000
0000
0FE0
3FE0
7060
6060
6060
E060
E060
E060
6060
6060
70E0
3FF0
1FB0
0000
0E00
0600
0780
0380
ENDCHAR
STARTCHAR 1FB6
ENCODING 8118
SWIDTH 468 0
DWIDTH 13 0
BBX 12 19 1 0
BITMAP
0200
0F80
18C0
18C0
0000
0000
0FE0
3FE0
7060
6060
6060
E060
E060
E060
6060
6060
70E0
3FF0
1FB0
ENDCHAR
STARTCHAR 1FB7
ENCODING 8119
SWIDTH 468 0
DWIDTH 13 0
BBX 12 24 1 -5
BITMAP
0200
0F80
18C0
18C0
0000
0000
0FE0
3FE0
7060
6060
6060
E060
E060
E060
6060
6060
70E0
3FF0
1FB0
0000
0E00
0600
0780
0380
ENDCHAR
STARTCHAR 1FB8
ENCODING 8120
SWIDTH 468 0
DWIDTH 13 0
BBX 14 22 0 0
BITMAP
08C0
0FC0
0780
0000
0000
0780
0780
0780
0CC0
0CC0
0CC0
18E0
1860
1860
3070
3030
3FF0
7FF0
6038
6018
6018
E01C
ENDCHAR
STARTCHAR 1FB9
ENCODING 8121
SWIDTH 468 0
DWIDTH 13 0
BBX 14 22 0 0
BITMAP
1FC0
1FC0
0000
0000
0000
0780
0780
0780
0CC0
0CC0
0CC0
18E0
1860
1860
3070
3030
3FF0
7FF0
6038
6018
6018
E01C
ENDCHAR
STARTCHAR 1FBA
ENCODING 8122
SWIDTH 468 0
DWIDTH 13 0
BBX 15 17 -1 1
BITMAP
C3C0
C3C0
63C0
3660
0660
0660
0C70
0C30
0C30
1838
1818
1FF8
3FF8
301C
300C
300C
700E
ENDCHAR
STARTCHAR 1FBB
ENCODING 8123
SWIDTH 468 0
DWIDTH 13 0
BBX 15 17 -1 1
BITMAP
33C0
33C0
63C0
C660
0660
0660
0C70
0C30
0C30
1838
1818
1FF8
3FF8
301C
300C
300C
700E
ENDCHAR
STARTCHAR 1FBC
ENCODING 8124
SWIDTH 468 0
DWIDTH 13 0
BBX 14 17 0 0
BITMAP
1C00
1E00
1E00
1600
3630
3630
3330
3330
3330
6330
6330
7FB0
7FB0
61B0
61B8
E19C
C19C
ENDCHAR
STARTCHAR 1FBD
ENCODING 8125
SWIDTH 468 0
DWIDTH 13 0
BBX 3 4 6 14
BITMAP
E0
E0
C0
C0
ENDCHAR
STARTCHAR 1FBE
ENCODING 8126
SWIDTH 468 0
DWIDTH 13 0
BBX 4 4 5 -5
BITMAP
C0
C0
F0
30
ENDCHAR
STARTCHAR 1FBF
ENCODING 8127
SWIDTH 468 0
DWIDTH 13 0
BBX 3 4 6 14
BITMAP
E0
E0
C0
C0
ENDCHAR
STARTCHAR 1FC0
ENCODING 8128
SWIDTH 468 0
DWIDTH 13 0
BBX 6 4 4 15
BITMAP
20
F8
CC
84
ENDCHAR
STARTCHAR 1FC1
ENCODING 8129
SWIDTH 468 0
DWIDTH 13 0
BBX 8 6 3 15
BITMAP
7C
66
42
00
E7
E7
ENDCHAR
STARTCHAR 1FC2
ENCODING 8130
SWIDTH 468 0
DWIDTH 13 0
BBX 10 24 2 -5
BITMAP
1800
3C00
0E00
0700
0000
0000
FF00
FF80
C1C0
C1C0
C0C0
C0C0
C0C0
C0C0
C0C0
C0C0
C0C0
C0C0
C0C0
00C0
C0C0
C0C0
F0C0
30C0
ENDCHAR
STARTCHAR 1FC3
ENCODING 8131
SWIDTH 468 0
DWIDTH 13 0
BBX 10 18 2 -5
BITMAP
FF00
FF80
C1C0
C1C0
C0C0
C0C0
C0C0
C0C0
C0C0
C0C0
C0C0
C0C0
C0C0
00C0
C0C0
C0C0
F0C0
30C0
ENDCHAR
STARTCHAR 1FC4
ENCODING 8132
SWIDTH 468 0
DWIDTH 13 0
BBX 10 24 2 -5
BITMAP
0300
0700
0E00
1C00
0000
0000
FF00
FF80
C1C0
C1C0
C0C0
C0C0
C0C0
C0C0
C0C0
C0C0
C0C0
C0C0
C0C0
00C0
C0C0
C0C0
F0C0
30C0
ENDCHAR
STARTCHAR 1FC6
ENCODING 8134
SWIDTH 468 0
DWIDTH 13 0
BBX 10 24 2 -5
BITMAP
0800
3E00
3300
2100
0000
0000
FF00
FF80
C1C0
C1C0
C0C0
C0C0
C0C0
C0C0
C0C0
C0C0
C0C0
C0C0
C0C0
00C0
00C0
00C0
00C0
00C0
ENDCHAR
STARTCHAR 1FC7
ENCODING 8135
SWIDTH 468 0
DWIDTH 13 0
BBX 10 24 2 -5
BITMAP
0800
3E00
3300
2100
0000
0000
FF00
FF80
C1C0
C1C0
C0C0
C0C0
C0C0
C0C0
C0C0
C0C0
C0C0
C0C0
C0C0
00C0
C0C0
C0C0
F0C0
30C0
ENDCHAR
STARTCHAR 1FC8
ENCODING 8136
SWIDTH 468 0
DWIDTH 13 0
BBX 16 17 -3 1
BITMAP
C3FE
E3FE
7300
3300
0300
0300
0300
03FC
03FC
0300
0300
0300
0300
0300
0300
03FF
03FF
ENDCHAR
STARTCHAR 1FC9
ENCODING 8137
SWIDTH 468 0
DWIDTH 13 0
BBX 16 17 -3 1
BITMAP
33FE
73FE
E300
C300
0300
0300
0300
03FC
03FC
0300
0300
0300
0300
0300
0300
03FF
03FF
ENDCHAR
STARTCHAR 1FCA
ENCODING 8138
SWIDTH 468 0
DWIDTH 13 0
BBX 17 17 -4 1
BITMAP
C70380
C70380
670380
370380
070380
070380
070380
07FF80
07FF80
070380
070380
070380
070380
070380
070380
070380
070380
ENDCHAR
STARTCHAR 1FCB
ENCODING 8139
SWIDTH 468 0
DWIDTH 13 0
BBX 17 17 -4 1
BITMAP
370380
670380
C70380
870380
070380
070380
070380
07FF80
07FF80
070380
070380
070380
070380
070380
070380
070380
070380
ENDCHAR
STARTCHAR 1FCC
ENCODING 8140
SWIDTH 468 0
DWIDTH 13 0
BBX 13 17 1 0
BITMAP
C300
C300
C300
C300
C360
C360
C360
FF60
FF60
C360
C360
C360
C360
C360
C370
C338
C338
ENDCHAR
STARTCHAR 1FCD
ENCODING 8141
SWIDTH 468 0
DWIDTH 13 0
BBX 8 5 3 14
BITMAP
EC
EE
66
C3
80
ENDCHAR
STARTCHAR 1FCE
ENCODING 8142
SWIDTH 468 0
DWIDTH 13 0
BBX 8 5 3 14
BITMAP
63
66
6E
CC
08
ENDCHAR
STARTCHAR 1FCF
ENCODING 8143
SWIDTH 468 0
DWIDTH 13 0
BBX 6 8 4 14
BITMAP
78
FC
84
00
30
30
60
40
ENDCHAR
STARTCHAR 1FD0
ENCODING 8144
SWIDTH 468 0
DWIDTH 13 0
BBX 11 19 1 0
BITMAP
2100
3300
3F00
1E00
0000
0000
FE00
FE00
0E00
0E00
0E00
0E00
0E00
0E00
0E00
0E00
0E00
07E0
07E0
ENDCHAR
STARTCHAR 1FD1
ENCODING 8145
SWIDTH 468 0
DWIDTH 13 0
BBX 11 18 1 0
BITMAP
7F80
7F80
0000
0000
0000
FE00
FE00
0E00
0E00
0E00
0E00
0E00
0E00
0E00
0E00
0E00
07E0
07E0
ENDCHAR
STARTCHAR 1FD2
ENCODING 8146
SWIDTH 468 0
DWIDTH 13 0
BBX 11 19 1 0
BITMAP
1800
EDC0
EDC0
4680
0400
0000
FE00
FE00
0E00
0E00
0E00
0E00
0E00
0E00
0E00
0E00
0E00
07E0
07E0
ENDCHAR
STARTCHAR 1FD3
ENCODING 8147
SWIDTH 468 0
DWIDTH 13 0
BBX 11 19 1 0
BITMAP
0600
66C0
6CC0
0C00
0000
0000
FE00
FE00
0E00
0E00
0E00
0E00
0E00
0E00
0E00
0E00
0E00
07E0
07E0
ENDCHAR
STARTCHAR 1FD6
ENCODING 8150
SWIDTH 468 0
DWIDTH 13 0
BBX 11 18 1 1
BITMAP
3E00
3300
2100
0000
0000
FE00
FE00
0E00
0E00
0E00
0E00
0E00
0E00
0E00
0E00
0E00
07E0
07E0
ENDCHAR
STARTCHAR 1FD7
ENCODING 8151
SWIDTH 468 0
DWIDTH 13 0
BBX 11 21 1 0
BITMAP
3E00
3300
2100
0000
7380
7380
0000
0000
FE00
FE00
0E00
0E00
0E00
0E00
0E00
0E00
0E00
0E00
0E00
07E0
07E0
ENDCHAR
STARTCHAR 1FD8
ENCODING 8152
SWIDTH 468 0
DWIDTH 13 0
BBX 9 22 2 0
BITMAP
2300
3F00
1E00
0000
0000
FF80
FF80
0C00
0C00
0C00
0C00
0C00
0C00
0C00
0C00
0C00
0C00
0C00
0C00
0C00
FF80
FF80
ENDCHAR
STARTCHAR 1FD9
ENCODING 8153
SWIDTH 468 0
DWIDTH 13 0
BBX 9 22 2 0
BITMAP
7F00
7F00
0000
0000
0000
FF80
FF80
0C00
0C00
0C00
0C00
0C00
0C00
0C00
0C00
0C00
0C00
0C00
0C00
0C00
FF80
FF80
ENDCHAR
STARTCHAR 1FDA
ENCODING 8154
SWIDTH 468 0
DWIDTH 13 0
BBX 14 17 -3 1
BITMAP
C7FC
E7FC
6060
3060
0060
0060
0060
0060
0060
0060
0060
0060
0060
0060
0060
07FC
07FC
ENDCHAR
STARTCHAR 1FDB
ENCODING 8155
SWIDTH 468 0
DWIDTH 13 0
BBX 14 17 -3 1
BITMAP
37FC
77FC
E060
C060
0060
0060
0060
0060
0060
0060
0060
0060
0060
0060
0060
07FC
07FC
ENDCHAR
STARTCHAR 1FDD
ENCODING 8157
SWIDTH 468 0
DWIDTH 13 0
BBX 8 5 3 14
BITMAP
EC
EC
C6
63
22
ENDCHAR
STARTCHAR 1FDE
ENCODING 8158
SWIDTH 468 0
DWIDTH 13 0
BBX 8 4 3 14
BITMAP
C3
C7
C6
6C
ENDCHAR
STARTCHAR 1FDF
ENCODING 8159
SWIDTH 468 0
DWIDTH 13 0
BBX 6 7 4 14
BITMAP
78
FC
84
20
30
30
30
ENDCHAR
STARTCHAR 1FE0
ENCODING 8160
SWIDTH 468 0
DWIDTH 13 0
BBX 10 19 2 0
BITMAP
2100
2300
3F00
1E00
0000
0000
C0C0
C0C0
C0C0
C0C0
C0C0
C0C0
C0C0
C0C0
C1C0
E1C0
E180
7F80
3F00
ENDCHAR
STARTCHAR 1FE1
ENCODING 8161
SWIDTH 468 0
DWIDTH 13 0
BBX 10 18 2 0
BITMAP
7F00
7F00
0000
0000
0000
C0C0
C0C0
C0C0
C0C0
C0C0
C0C0
C0C0
C0C0
C1C0
E1C0
E180
7F80
3F00
ENDCHAR
STARTCHAR 1FE2
ENCODING 8162
SWIDTH 468 0
DWIDTH 13 0
BBX 10 19 2 0
BITMAP
1800
EDC0
EDC0
4680
0400
0000
C0C0
C0C0
C0C0
C0C0
C0C0
C0C0
C0C0
C0C0
C1C0
E1C0
E180
7F80
3F00
ENDCHAR
STARTCHAR 1FE3
ENCODING 8163
SWIDTH 468 0
DWIDTH 13 0
BBX 10 19 2 0
BITMAP
0600
EDC0
EDC0
5880
0000
0000
C0C0
C0C0
C0C0
C0C0
C0C0
C0C0
C0C0
C0C0
C1C0
E1C0
E180
7F80
3F00
ENDCHAR
STARTCHAR 1FE4
ENCODING 8164
SWIDTH 468 0
DWIDTH 13 0
BBX 11 24 2 -5
BITMAP
0E00
0E00
0C00
0C00
0000
0000
3F00
7F80
61C0
E0C0
C0E0
C0E0
C0E0
C0E0
C0E0
C0C0
E1C0
FF80
FF00
C000
C000
C000
C000
C000
ENDCHAR
STARTCHAR 1FE5
ENCODING 8165
SWIDTH 468 0
DWIDTH 13 0
BBX 11 24 2 -5
BITMAP
1C00
1C00
0C00
0600
0000
0000
3F00
7F80
61C0
E0C0
C0E0
C0E0
C0E0
C0E0
C0E0
C0C0
E1C0
FF80
FF00
C000
C000
C000
C000
C000
ENDCHAR
STARTCHAR 1FE6
ENCODING 8166
SWIDTH 468 0
DWIDTH 13 0
BBX 10 19 2 0
BITMAP
0800
3E00
3300
2100
0000
0000
C0C0
C0C0
C0C0
C0C0
C0C0
C0C0
C0C0
C0C0
C1C0
E1C0
E180
7F80
3F00
ENDCHAR
STARTCHAR 1FE7
ENCODING 8167
SWIDTH 468 0
DWIDTH 13 0
BBX 10 21 2 0
BITMAP
3E00
3300
2100
0000
7380
7380
0000
0000
C0C0
C0C0
C0C0
C0C0
C0C0
C0C0
C0C0
C0C0
C1C0
E1C0
E180
7F80
3F00
ENDCHAR
STARTCHAR 1FE8
ENCODING 8168
SWIDTH 468 0
DWIDTH 13 0
BBX 12 22 1 0
BITMAP
1180
1F80
0F00
0000
0000
C030
E070
E060
6060
70C0
30C0
3980
1980
0F00
0F00
0600
0600
0600
0600
0600
0600
0600
ENDCHAR
STARTCHAR 1FE9
ENCODING 8169
SWIDTH 468 0
DWIDTH 13 0
BBX 12 22 1 0
BITMAP
3F80
3F80
0000
0000
0000
C030
E070
E060
6060
70C0
30C0
3980
1980
0F00
0F00
0600
0600
0600
0600
0600
0600
0600
ENDCHAR
STARTCHAR 1FEA
ENCODING 8170
SWIDTH 468 0
DWIDTH 13 0
BBX 17 17 -4 1
BITMAP
C60180
E70380
770300
330300
038600
018600
01CC00
00CC00
007800
007800
003000
003000
003000
003000
003000
003000
003000
ENDCHAR
STARTCHAR 1FEB
ENCODING 8171
SWIDTH 468 0
DWIDTH 13 0
BBX 18 17 -5 1
BITMAP
3300C0
7381C0
E38180
C18180
01C300
00C300
00E600
006600
003C00
003C00
001800
001800
001800
001800
001800
001800
001800
ENDCHAR
STARTCHAR 1FEC
ENCODING 8172
SWIDTH 468 0
DWIDTH 13 0
BBX 16 17 -3 1
BITMAP
E7F8
67FE
660E
3606
0607
0607
0607
0606
061E
07FC
07C0
0600
0600
0600
0600
0600
0600
ENDCHAR
STARTCHAR 1FED
ENCODING 8173
SWIDTH 468 0
DWIDTH 13 0
BBX 10 5 2 14
BITMAP
1800
EDC0
EDC0
4680
0400
ENDCHAR
STARTCHAR 1FEE
ENCODING 8174
SWIDTH 468 0
DWIDTH 13 0
BBX 10 4 2 14
BITMAP
0600
EDC0
EDC0
5880
ENDCHAR
STARTCHAR 1FEF
ENCODING 8175
SWIDTH 468 0
DWIDTH 13 0
BBX 6 4 4 14
BITMAP
40
F0
38
1C
ENDCHAR
STARTCHAR 1FF2
ENCODING 8178
SWIDTH 468 0
DWIDTH 13 0
BBX 12 24 1 -5
BITMAP
0C00
1E00
0700
0380
0000
0000
30C0
70E0
60E0
6060
E070
E670
C630
C630
C630
C630
EE70
7FE0
79E0
0000
0600
0600
0780
0380
ENDCHAR
STARTCHAR 1FF3
ENCODING 8179
SWIDTH 468 0
DWIDTH 13 0
BBX 12 18 1 -5
BITMAP
30C0
70E0
60E0
6060
E070
E670
C630
C630
C630
C630
EE70
7FE0
79E0
0000
0600
0600
0780
0380
ENDCHAR
STARTCHAR 1FF4
ENCODING 8180
SWIDTH 468 0
DWIDTH 13 0
BBX 12 24 1 -5
BITMAP
0300
0300
0600
0E00
0400
0000
30C0
70E0
60E0
6060
E070
E670
C630
C630
C630
C630
EE70
7FE0
79E0
0000
0600
0600
0780
0380
ENDCHAR
STARTCHAR 1FF6
ENCODING 8182
SWIDTH 468 0
DWIDTH 13 0
BBX 12 19 1 0
BITMAP
0400
1F00
1980
1080
0000
0000
30C0
70E0
60E0
6060
E070
E670
C630
C630
C630
C630
EE70
7FE0
79E0
ENDCHAR
STARTCHAR 1FF7
ENCODING 8183
SWIDTH 468 0
DWIDTH 13 0
BBX 12 24 1 -5
BITMAP
0400
1F00
1980
1080
0000
0000
30C0
70E0
60E0
6060
E070
E670
C630
C630
C630
C630
EE70
7FE0
79E0
0000
0600
0600
0780
0380
ENDCHAR
STARTCHAR 1FF8
ENCODING 8184
SWIDTH 468 0
DWIDTH 13 0
BBX 17 18 -4 0
BITMAP
003000
C0FC00
61FE00
338700
130300
070380
060180
060180
060180
060180
060180
060180
060380
070380
030300
038700
01FE00
00FC00
ENDCHAR
STARTCHAR 1FF9
ENCODING 8185
SWIDTH 468 0
DWIDTH 13 0
BBX 16 18 -3 0
BITMAP
0060
11F8
33FC
670E
C606
0E07
0C03
0C03
0C03
0C03
0C03
0C03
0C07
0E07
0606
070E
03FC
01F8
ENDCHAR
STARTCHAR 1FFA
ENCODING 8186
SWIDTH 468 0
DWIDTH 13 0
BBX 17 18 -4 0
BITMAP
003000
C0FC00
E1FE00
338700
130300
070380
060180
060180
060180
060180
060380
070380
030300
030300
038600
018600
0FCF80
0FCF80
ENDCHAR
STARTCHAR 1FFB
ENCODING 8187
SWIDTH 468 0
DWIDTH 13 0
BBX 16 18 -3 0
BITMAP
0060
31F8
33FC
670E
C606
0E07
0C03
0C03
0C03
0C03
0C07
0E07
0606
0606
070C
030C
1F9F
1F9F
ENDCHAR
STARTCHAR 1FFC
ENCODING 8188
SWIDTH 468 0
DWIDTH 13 0
BBX 14 18 0 0
BITMAP
0800
3E00
3F00
6300
6300
61B0
61B0
61B0
61B0
61B0
61B0
61B0
6330
6330
3330
3238
F79C
F79C
ENDCHAR
STARTCHAR 1FFD
ENCODING 8189
SWIDTH 468 0
DWIDTH 13 0
BBX 6 4 4 14
BITMAP
18
3C
70
E0
ENDCHAR
STARTCHAR 1FFE
ENCODING 8190
SWIDTH 468 0
DWIDTH 13 0
BBX 3 5 5 14
BITMAP
E0
E0
40
60
20
ENDCHAR
STARTCHAR 2013
ENCODING 8211
SWIDTH 468 0
DWIDTH 13 0
BBX 10 2 2 7
BITMAP
FFC0
FFC0
ENDCHAR
STARTCHAR 2014
ENCODING 8212
SWIDTH 468 0
DWIDTH 13 0
BBX 14 2 0 7
BITMAP
FFFC
FFFC
ENDCHAR
STARTCHAR 2015
ENCODING 8213
SWIDTH 468 0
DWIDTH 13 0
BBX 14 2 0 7
BITMAP
FFFC
FFFC
ENDCHAR
STARTCHAR 2018
ENCODING 8216
SWIDTH 468 0
DWIDTH 13 0
BBX 6 8 4 12
BITMAP
08
3C
70
60
F0
F0
F0
70
ENDCHAR
STARTCHAR 2019
ENCODING 8217
SWIDTH 468 0
DWIDTH 13 0
BBX 6 8 4 12
BITMAP
10
38
3C
3C
18
18
F0
E0
ENDCHAR
STARTCHAR 201A
ENCODING 8218
SWIDTH 468 0
DWIDTH 13 0
BBX 6 8 4 -4
BITMAP
18
3C
3C
3C
18
38
F0
C0
ENDCHAR
STARTCHAR 201C
ENCODING 8220
SWIDTH 468 0
DWIDTH 13 0
BBX 12 7 1 12
BITMAP
3870
78E0
6180
E1C0
F1C0
F1C0
60C0
ENDCHAR
STARTCHAR 201D
ENCODING 8221
SWIDTH 468 0
DWIDTH 13 0
BBX 12 7 1 12
BITMAP
38E0
78F0
38F0
1870
3860
F1C0
C100
ENDCHAR
STARTCHAR 201E
ENCODING 8222
SWIDTH 468 0
DWIDTH 13 0
BBX 12 7 1 -4
BITMAP
38E0
78F0
38F0
1870
38E0
F1C0
0100
ENDCHAR
STARTCHAR 2020
ENCODING 8224
SWIDTH 468 0
DWIDTH 13 0
BBX 10 21 2 -4
BITMAP
0C00
0C00
0C00
0C00
0C00
FFC0
FFC0
0C00
0C00
0C00
0C00
0C00
0C00
0C00
0C00
0C00
0C00
0C00
0C00
0C00
0C00
ENDCHAR
STARTCHAR 2021
ENCODING 8225
SWIDTH 468 0
DWIDTH 13 0
BBX 10 21 2 -4
BITMAP
0C00
0C00
0C00
0C00
0C00
FFC0
FFC0
0C00
0C00
0C00
0C00
0C00
FFC0
FFC0
0C00
0C00
0C00
0C00
0C00
0C00
0C00
ENDCHAR
STARTCHAR 2022
ENCODING 8226
SWIDTH 468 0
DWIDTH 13 0
BBX 8 8 3 5
BITMAP
18
7E
7E
FF
FF
FF
7E
3C
ENDCHAR
STARTCHAR 2026
ENCODING 8230
SWIDTH 468 0
DWIDTH 13 0
BBX 12 3 1 0
BITMAP
4020
E670
E670
ENDCHAR
STARTCHAR 2030
ENCODING 8240
SWIDTH 468 0
DWIDTH 13 0
BBX 13 18 0 0
BITMAP
2000
7000
5800
D808
D838
5860
59C0
7300
0E00
1800
7000
4E38
0B68
0B68
0B48
0B48
0B68
0E38
ENDCHAR
STARTCHAR 2039
ENCODING 8249
SWIDTH 468 0
DWIDTH 13 0
BBX 5 10 4 3
BITMAP
18
38
30
70
E0
E0
70
30
38
18
ENDCHAR
STARTCHAR 203A
ENCODING 8250
SWIDTH 468 0
DWIDTH 13 0
BBX 6 10 4 3
BITMAP
60
60
30
38
1C
1C
38
30
60
E0
ENDCHAR
STARTCHAR 2044
ENCODING 8260
SWIDTH 468 0
DWIDTH 13 0
BBX 12 17 1 0
BITMAP
0030
0060
0060
00C0
0180
0180
0300
0600
0600
0C00
0C00
1800
3000
3000
6000
6000
C000
ENDCHAR
STARTCHAR 2070
ENCODING 8304
SWIDTH 468 0
DWIDTH 13 0
BBX 8 9 3 9
BITMAP
7E
66
C2
DB
DB
C3
C2
66
3C
ENDCHAR
STARTCHAR 2074
ENCODING 8308
SWIDTH 468 0
DWIDTH 13 0
BBX 8 9 3 8
BITMAP
0C
1C
34
64
44
FF
FF
04
04
ENDCHAR
STARTCHAR 2075
ENCODING 8309
SWIDTH 468 0
DWIDTH 13 0
BBX 6 9 4 8
BITMAP
7C
40
C0
F0
FC
0C
04
0C
F8
ENDCHAR
STARTCHAR 2076
ENCODING 8310
SWIDTH 468 0
DWIDTH 13 0
BBX 8 9 3 8
BITMAP
1E
38
60
7C
FE
C3
43
66
3E
ENDCHAR
STARTCHAR 2077
ENCODING 8311
SWIDTH 468 0
DWIDTH 13 0
BBX 7 9 4 8
BITMAP
FE
0C
0C
18
10
30
30
60
60
ENDCHAR
STARTCHAR 2078
ENCODING 8312
SWIDTH 468 0
DWIDTH 13 0
BBX 8 10 3 8
BITMAP
10
7E
46
46
76
3C
46
C3
C6
7E
ENDCHAR
STARTCHAR 2079
ENCODING 8313
SWIDTH 468 0
DWIDTH 13 0
BBX 7 10 4 8
BITMAP
10
FC
C6
86
C6
FE
36
0C
38
F0
ENDCHAR
STARTCHAR 2080
ENCODING 8320
SWIDTH 468 0
DWIDTH 13 0
BBX 8 10 3 0
BITMAP
38
7E
66
C3
DB
DB
C3
46
7E
3C
ENDCHAR
STARTCHAR 2081
ENCODING 8321
SWIDTH 468 0
DWIDTH 13 0
BBX 7 10 4 0
BITMAP
10
70
F0
B0
30
30
30
30
FE
FE
ENDCHAR
STARTCHAR 2082
ENCODING 8322
SWIDTH 468 0
DWIDTH 13 0
BBX 7 10 3 0
BITMAP
3C
FE
46
06
0E
1C
38
70
7E
7E
ENDCHAR
STARTCHAR 2083
ENCODING 8323
SWIDTH 468 0
DWIDTH 13 0
BBX 6 10 4 0
BITMAP
70
FC
0C
0C
78
7C
0C
04
9C
F8
ENDCHAR
STARTCHAR 2084
ENCODING 8324
SWIDTH 468 0
DWIDTH 13 0
BBX 8 10 3 0
BITMAP
04
0C
1C
34
64
C4
FF
FF
04
04
ENDCHAR
STARTCHAR 2085
ENCODING 8325
SWIDTH 468 0
DWIDTH 13 0
BBX 6 10 4 0
BITMAP
7C
7C
40
C0
F8
3C
0C
04
9C
F8
ENDCHAR
STARTCHAR 2086
ENCODING 8326
SWIDTH 468 0
DWIDTH 13 0
BBX 8 10 3 0
BITMAP
02
1E
30
60
7E
E6
C3
43
66
3C
ENDCHAR
STARTCHAR 2087
ENCODING 8327
SWIDTH 468 0
DWIDTH 13 0
BBX 7 10 4 0
BITMAP
FE
FE
0C
08
18
30
30
30
60
60
ENDCHAR
STARTCHAR 2088
ENCODING 8328
SWIDTH 468 0
DWIDTH 13 0
BBX 8 10 3 0
BITMAP
3C
7E
46
66
7E
7E
46
C3
66
7E
ENDCHAR
STARTCHAR 2089
ENCODING 8329
SWIDTH 468 0
DWIDTH 13 0
BBX 7 10 4 0
BITMAP
38
FC
C6
86
C6
FE
06
0C
F8
E0
ENDCHAR
STARTCHAR 20AC
ENCODING 8364
SWIDTH 468 0
DWIDTH 13 0
BBX 12 18 1 0
BITMAP
0080
07E0
1F60
1C00
3800
3800
FFC0
FFC0
3000
3000
3000
FF80
3000
3800
3800
1C00
0FF0
07F0
ENDCHAR
STARTCHAR 20AE
ENCODING 8366
SWIDTH 468 0
DWIDTH 13 0
BBX 12 17 1 0
BITMAP
FFF0
FFF0
0600
0600
0640
07E0
0780
1E00
7E00
2640
07E0
0F80
3E00
7600
0600
0600
0600
ENDCHAR
STARTCHAR 20B4
ENCODING 8372
SWIDTH 468 0
DWIDTH 13 0
BBX 12 18 1 0
BITMAP
0400
3F80
3BC0
00E0
0060
0060
FFF0
FFF0
0380
0F00
3C00
FFF0
7000
6000
6000
7000
3FE0
1FE0
ENDCHAR
STARTCHAR 20B9
ENCODING 8377
SWIDTH 468 0
DWIDTH 13 0
BBX 11 17 2 0
BITMAP
FFE0
FFE0
0300
0380
FFC0
FFC0
0300
0700
FE00
F800
E000
7000
3800
1C00
0E00
0700
0300
ENDCHAR
STARTCHAR 2113
ENCODING 8467
SWIDTH 468 0
DWIDTH 13 0
BBX 11 19 1 0
BITMAP
0780
0FC0
1CC0
1840
1840
18C0
18C0
18C0
1980
1980
1B00
1E00
1C00
3800
F800
5800
1C00
0FE0
0FC0
ENDCHAR
STARTCHAR 2116
ENCODING 8470
SWIDTH 468 0
DWIDTH 13 0
BBX 12 17 1 1
BITMAP
C670
C6D0
E6D0
E690
E690
E690
F6D0
F6F0
F660
D600
DE00
DEF0
CEF0
CE00
CE00
CE00
C600
ENDCHAR
STARTCHAR 2122
ENCODING 8482
SWIDTH 468 0
DWIDTH 13 0
BBX 13 7 0 10
BITMAP
FD98
31B8
31B8
33E8
3368
3308
3308
ENDCHAR
STARTCHAR 2126
ENCODING 8486
SWIDTH 468 0
DWIDTH 13 0
BBX 13 18 0 0
BITMAP
0300
0FC0
1FE0
3870
3030
7038
7038
6018
6018
6018
6038
7038
3030
3030
3860
1860
FCF8
FCF8
ENDCHAR
STARTCHAR 212E
ENCODING 8494
SWIDTH 468 0
DWIDTH 13 0
BBX 12 11 1 0
BITMAP
0F00
30C0
4020
C030
C030
C030
FFC0
C000
4000
4020
3FC0
ENDCHAR
STARTCHAR 2153
ENCODING 8531
SWIDTH 468 0
DWIDTH 13 0
BBX 13 17 0 0
BITMAP
3830
F830
5860
1860
18C0
1980
1980
0300
0200
0600
0CF8
0C18
1818
3078
3008
6098
60F8
ENDCHAR
STARTCHAR 2154
ENCODING 8532
SWIDTH 468 0
DWIDTH 13 0
BBX 12 18 1 0
BITMAP
2000
F030
9860
1860
30C0
E0C0
F980
FB00
0300
0600
0400
0DF0
1830
1830
30F0
6010
6130
C1F0
ENDCHAR
STARTCHAR 2155
ENCODING 8533
SWIDTH 468 0
DWIDTH 13 0
BBX 13 17 0 0
BITMAP
3830
F830
5860
1860
18C0
1980
1980
0300
0600
0600
0C78
0C40
18E0
30F8
3018
6018
60F0
ENDCHAR
STARTCHAR 2156
ENCODING 8534
SWIDTH 468 0
DWIDTH 13 0
BBX 12 18 1 0
BITMAP
6000
F030
9860
1860
30C0
E0C0
F980
FB00
0300
0600
0600
0CF0
1880
19C0
31F0
6030
6030
C1E0
ENDCHAR
STARTCHAR 2157
ENCODING 8535
SWIDTH 468 0
DWIDTH 13 0
BBX 12 18 1 0
BITMAP
6000
F030
1860
7060
78C0
1980
F980
F300
0300
0600
0C00
0CF0
1880
31C0
31F0
6030
6030
C1E0
ENDCHAR
STARTCHAR 2158
ENCODING 8536
SWIDTH 468 0
DWIDTH 13 0
BBX 13 17 0 0
BITMAP
1C18
3C30
6C30
4C60
FE60
0CC0
0D80
0180
0300
0300
0678
0C40
0CE0
18F8
1018
3018
60F0
ENDCHAR
STARTCHAR 2159
ENCODING 8537
SWIDTH 468 0
DWIDTH 13 0
BBX 12 17 0 0
BITMAP
3830
F860
5860
18C0
18C0
1980
1B00
0300
0600
0600
0C70
18C0
19E0
31F0
6110
61B0
C1F0
ENDCHAR
STARTCHAR 215A
ENCODING 8538
SWIDTH 468 0
DWIDTH 13 0
BBX 12 17 1 0
BITMAP
7830
4060
7060
18C0
0980
F980
F300
0300
0600
0C00
0CE0
1980
13C0
33E0
6220
6360
C3E0
ENDCHAR
STARTCHAR 215B
ENCODING 8539
SWIDTH 468 0
DWIDTH 13 0
BBX 13 17 0 0
BITMAP
3830
F860
5860
18C0
18C0
1980
1B00
0300
0600
0600
0CF0
1998
19D8
30F0
6198
6198
C0F0
ENDCHAR
STARTCHAR 215C
ENCODING 8540
SWIDTH 468 0
DWIDTH 13 0
BBX 12 18 1 0
BITMAP
6000
F060
1860
70C0
78C0
1980
FB00
F300
0600
0C00
0C00
19E0
1B30
33B0
61E0
6330
C330
C1E0
ENDCHAR
STARTCHAR 215D
ENCODING 8541
SWIDTH 468 0
DWIDTH 13 0
BBX 12 17 1 0
BITMAP
F860
C060
F0C0
38C0
1980
FB00
F300
0600
0C00
0C00
19E0
1B30
33B0
61E0
6330
C330
C1E0
ENDCHAR
STARTCHAR 215E
ENCODING 8542
SWIDTH 468 0
DWIDTH 13 0
BBX 12 17 1 0
BITMAP
F860
1860
30C0
20C0
6180
6300
6300
0600
0C00
0C00
19E0
1B30
33B0
61E0
6330
C330
C1E0
ENDCHAR
STARTCHAR 2202
ENCODING 8706
SWIDTH 468 0
DWIDTH 13 0
BBX 11 19 1 0
BITMAP
7F00
3F80
01C0
00C0
00E0
0060
0060
1FE0
3FE0
7060
6060
E060
C060
C060
C0E0
E0C0
61C0
7F80
3F00
ENDCHAR
STARTCHAR 2206
ENCODING 8710
SWIDTH 468 0
DWIDTH 13 0
BBX 14 17 0 0
BITMAP
0780
0780
0780
0CC0
0CC0
0CC0
18E0
1860
1860
3070
3030
3030
7030
6038
6018
7FF8
FFFC
ENDCHAR
STARTCHAR 220F
ENCODING 8719
SWIDTH 468 0
DWIDTH 13 0
BBX 10 20 2 -3
BITMAP
FFC0
FFC0
C0C0
C0C0
C0C0
C0C0
C0C0
C0C0
C0C0
C0C0
C0C0
C0C0
C0C0
C0C0
C0C0
C0C0
C0C0
C0C0
C0C0
C0C0
ENDCHAR
STARTCHAR 2211
ENCODING 8721
SWIDTH 468 0
DWIDTH 13 0
BBX 11 20 1 -3
BITMAP
FFE0
7FE0
7000
3000
3800
1C00
0C00
0E00
0700
0300
0700
0E00
0C00
1C00
3800
3000
7000
6000
FFE0
FFE0
ENDCHAR
STARTCHAR 2212
ENCODING 8722
SWIDTH 468 0
DWIDTH 13 0
BBX 12 2 1 6
BITMAP
FFF0
FFF0
ENDCHAR
STARTCHAR 2215
ENCODING 8725
SWIDTH 468 0
DWIDTH 13 0
BBX 12 17 1 0
BITMAP
0030
0060
0060
00C0
0180
0180
0300
0600
0600
0C00
0C00
1800
3000
3000
6000
6000
C000
ENDCHAR
STARTCHAR 2219
ENCODING 8729
SWIDTH 468 0
DWIDTH 13 0
BBX 4 4 5 6
BITMAP
60
F0
F0
F0
ENDCHAR
STARTCHAR 221A
ENCODING 8730
SWIDTH 468 0
DWIDTH 13 0
BBX 12 19 1 0
BITMAP
0030
0030
0030
0060
0060
0060
0060
00C0
00C0
30C0
F080
F180
1980
1980
1B00
0F00
0F00
0F00
0600
ENDCHAR
STARTCHAR 221E
ENCODING 8734
SWIDTH 468 0
DWIDTH 13 0
BBX 12 7 1 4
BITMAP
30C0
FFE0
CF30
C630
C630
EF70
79E0
ENDCHAR
STARTCHAR 222B
ENCODING 8747
SWIDTH 468 0
DWIDTH 13 0
BBX 10 24 2 -5
BITMAP
03C0
07C0
0E00
0C00
0C00
0C00
0C00
0C00
0C00
0C00
0C00
0C00
0C00
0C00
0C00
0C00
0C00
0C00
0C00
0C00
1C00
3800
F800
E000
ENDCHAR
STARTCHAR 2248
ENCODING 8776
SWIDTH 468 0
DWIDTH 13 0
BBX 12 9 1 3
BITMAP
3830
7E30
C7E0
C3C0
0000
3820
7E30
EFE0
C3E0
ENDCHAR
STARTCHAR 2260
ENCODING 8800
SWIDTH 468 0
DWIDTH 13 0
BBX 12 14 1 0
BITMAP
00C0
00C0
0180
FFF0
FFF0
0300
0600
0600
FFF0
FFF0
1800
3800
3000
1000
ENDCHAR
STARTCHAR 2264
ENCODING 8804
SWIDTH 468 0
DWIDTH 13 0
BBX 12 14 1 0
BITMAP
0060
01F0
0F80
3E00
F800
F000
7C00
1F00
03E0
00E0
0020
0000
FFF0
FFF0
ENDCHAR
STARTCHAR 2265
ENCODING 8805
SWIDTH 468 0
DWIDTH 13 0
BBX 12 14 1 0
BITMAP
6000
F800
3F00
07C0
01F0
00F0
03E0
0F80
7C00
F000
4000
0000
FFF0
FFF0
ENDCHAR
STARTCHAR 2500
ENCODING 9472
SWIDTH 468 0
DWIDTH 13 0
BBX 14 2 0 8
BITMAP
FFFC
FFFC
ENDCHAR
STARTCHAR 2502
ENCODING 9474
SWIDTH 468 0
DWIDTH 13 0
BBX 2 28 6 -5
BITMAP
C0
C0
C0
C0
C0
C0
C0
C0
C0
C0
C0
C0
C0
C0
C0
C0
C0
C0
C0
C0
C0
C0
C0
C0
C0
C0
C0
C0
ENDCHAR
STARTCHAR 250C
ENCODING 9484
SWIDTH 468 0
DWIDTH 13 0
BBX 8 15 6 -5
BITMAP
FF
FF
C0
C0
C0
C0
C0
C0
C0
C0
C0
C0
C0
C0
C0
ENDCHAR
STARTCHAR 2510
ENCODING 9488
SWIDTH 468 0
DWIDTH 13 0
BBX 8 15 0 -5
BITMAP
FF
FF
03
03
03
03
03
03
03
03
03
03
03
03
03
ENDCHAR
STARTCHAR 2514
ENCODING 9492
SWIDTH 468 0
DWIDTH 13 0
BBX 8 15 6 8
BITMAP
C0
C0
C0
C0
C0
C0
C0
C0
C0
C0
C0
C0
C0
FF
FF
ENDCHAR
STARTCHAR 2518
ENCODING 9496
SWIDTH 468 0
DWIDTH 13 0
BBX 8 15 0 8
BITMAP
03
03
03
03
03
03
03
03
03
03
03
03
03
FF
FF
ENDCHAR
STARTCHAR 251C
ENCODING 9500
SWIDTH 468 0
DWIDTH 13 0
BBX 8 28 6 -5
BITMAP
C0
C0
C0
C0
C0
C0
C0
C0
C0
C0
C0
C0
C0
FF
FF
C0
C0
C0
C0
C0
C0
C0
C0
C0
C0
C0
C0
C0
ENDCHAR
STARTCHAR 2524
ENCODING 9508
SWIDTH 468 0
DWIDTH 13 0
BBX 8 28 0 -5
BITMAP
03
03
03
03
03
03
03
03
03
03
03
03
03
FF
FF
03
03
03
03
03
03
03
03
03
03
03
03
03
ENDCHAR
STARTCHAR 252C
ENCODING 9516
SWIDTH 468 0
DWIDTH 13 0
BBX 14 15 0 -5
BITMAP
FFFC
FFFC
0300
0300
0300
0300
0300
0300
0300
0300
0300
0300
0300
0300
0300
ENDCHAR
STARTCHAR 2534
ENCODING 9524
SWIDTH 468 0
DWIDTH 13 0
BBX 14 15 0 8
BITMAP
0300
0300
0300
0300
0300
0300
0300
0300
0300
0300
0300
0300
0300
FFFC
FFFC
ENDCHAR
STARTCHAR 253C
ENCODING 9532
SWIDTH 468 0
DWIDTH 13 0
BBX 14 28 0 -5
BITMAP
0300
0300
0300
0300
0300
0300
0300
0300
0300
0300
0300
0300
0300
FFFC
FFFC
0300
0300
0300
0300
0300
0300
0300
0300
0300
0300
0300
0300
0300
ENDCHAR
STARTCHAR 2550
ENCODING 9552
SWIDTH 468 0
DWIDTH 13 0
BBX 14 7 0 6
BITMAP
FFFC
FFFC
FFFC
0000
0000
FFFC
FFFC
ENDCHAR
STARTCHAR 2551
ENCODING 9553
SWIDTH 468 0
DWIDTH 13 0
BBX 6 28 4 -5
BITMAP
CC
CC
CC
CC
CC
CC
CC
CC
CC
CC
CC
CC
CC
CC
CC
CC
CC
CC
CC
CC
CC
CC
CC
CC
CC
CC
CC
CC
ENDCHAR
ENDFONT
